solid OpenSCAD_Model
  facet normal -0 0 -1
    outer loop
      vertex -50 48.1 0.9
      vertex -57.314 40.786 0.9
      vertex -50 50 0.9
    endloop
  endfacet
  facet normal 0 0 -1
    outer loop
      vertex 100.193 -98.7 0.9
      vertex 57.914 -40.193 0.9
      vertex 58.8 -39.3 0.9
    endloop
  endfacet
  facet normal 0 0 -1
    outer loop
      vertex 100.193 -98.7 0.9
      vertex 50 -50 0.9
      vertex 57.914 -40.193 0.9
    endloop
  endfacet
  facet normal 0 0 -1
    outer loop
      vertex 40.786 -80.686 0.9
      vertex 50 -50 0.9
      vertex 58.8 -98.7 0.9
    endloop
  endfacet
  facet normal 0 0 -1
    outer loop
      vertex 39.9 -58.207 0.9
      vertex 50 -50 0.9
      vertex 40.786 -80.686 0.9
    endloop
  endfacet
  facet normal 0 0 -1
    outer loop
      vertex 39.9 -58.207 0.9
      vertex 40.786 -80.686 0.9
      vertex 39.9 -79.8 0.9
    endloop
  endfacet
  facet normal -0 0 -1
    outer loop
      vertex 50 -50 0.9
      vertex 39.9 -58.207 0.9
      vertex 48.107 -50 0.9
    endloop
  endfacet
  facet normal 0 0 -1
    outer loop
      vertex 39 -78.9 0.9
      vertex 39.9 -58.207 0.9
      vertex 39.9 -79.8 0.9
    endloop
  endfacet
  facet normal 0 0 -1
    outer loop
      vertex 20.986 -60.886 0.9
      vertex 39.9 -58.207 0.9
      vertex 39 -78.9 0.9
    endloop
  endfacet
  facet normal 0 0 -1
    outer loop
      vertex 20.1 -60 0.9
      vertex 39.9 -58.207 0.9
      vertex 20.986 -60.886 0.9
    endloop
  endfacet
  facet normal 0 0 -1
    outer loop
      vertex 20.1 -60 0.9
      vertex -39.3 -58.207 0.9
      vertex 39.9 -58.207 0.9
    endloop
  endfacet
  facet normal 0 0 -1
    outer loop
      vertex -39.3 -58.207 0.9
      vertex -50 -50 0.9
      vertex -47.507 -50 0.9
    endloop
  endfacet
  facet normal 0 0 -1
    outer loop
      vertex -50 -50 0.9
      vertex -58.207 -39.3 0.9
      vertex -50 -47.507 0.9
    endloop
  endfacet
  facet normal -0 0 -1
    outer loop
      vertex -50 -50 0.9
      vertex -60 -59.1 0.9
      vertex -58.207 -39.3 0.9
    endloop
  endfacet
  facet normal 0 0 -1
    outer loop
      vertex -60 -59.1 0.9
      vertex -50 -50 0.9
      vertex -59.1 -60 0.9
    endloop
  endfacet
  facet normal -0 0 -1
    outer loop
      vertex -39.3 -58.207 0.9
      vertex -59.1 -60 0.9
      vertex -50 -50 0.9
    endloop
  endfacet
  facet normal 0 0 -1
    outer loop
      vertex -59.1 -60 0.9
      vertex -39.3 -58.207 0.9
      vertex 20.1 -60 0.9
    endloop
  endfacet
  facet normal 0 0 -1
    outer loop
      vertex 58.8 -98.7 0.9
      vertex 100.193 -98.7 0.9
      vertex 99.3 -99.6 0.9
    endloop
  endfacet
  facet normal 0 0 -1
    outer loop
      vertex 100.193 -98.7 0.9
      vertex 79.5 -18.607 0.9
      vertex 100.193 0.299999 0.9
    endloop
  endfacet
  facet normal 0 0 -1
    outer loop
      vertex 100.193 0.299999 0.9
      vertex 98.4 0.299999 0.9
      vertex 99.3 1.19302 0.9
    endloop
  endfacet
  facet normal -0 0 -1
    outer loop
      vertex 100.193 0.299999 0.9
      vertex 97.5139 -0.593024 0.9
      vertex 98.4 0.299999 0.9
    endloop
  endfacet
  facet normal 0 0 -1
    outer loop
      vertex 100.193 0.299999 0.9
      vertex 79.5 -18.607 0.9
      vertex 97.5139 -0.593024 0.9
    endloop
  endfacet
  facet normal 0 0 -1
    outer loop
      vertex 100.193 -98.7 0.9
      vertex 58.8 -39.3 0.9
      vertex 79.5 -18.607 0.9
    endloop
  endfacet
  facet normal -0 0 -1
    outer loop
      vertex 79.5 -18.607 0.9
      vertex 58.8 -39.3 0.9
      vertex 78.607 -17.714 0.9
    endloop
  endfacet
  facet normal 0 0 -1
    outer loop
      vertex 58.8 -98.7 0.9
      vertex 99.3 -99.6 0.9
      vertex 59.7 -99.6 0.9
    endloop
  endfacet
  facet normal -0 0 -1
    outer loop
      vertex 78.607 -17.714 0.9
      vertex 58.8 -39.3 0.9
      vertex 60.593 0.299999 0.9
    endloop
  endfacet
  facet normal 0 0 -1
    outer loop
      vertex 58.8 39.9 0.9
      vertex 60.593 0.299999 0.9
      vertex 58.8 -39.3 0.9
    endloop
  endfacet
  facet normal 0 0 -1
    outer loop
      vertex 50 -50 0.9
      vertex 100.193 -98.7 0.9
      vertex 58.8 -98.7 0.9
    endloop
  endfacet
  facet normal 0 0 -1
    outer loop
      vertex 60.593 0.299999 0.9
      vertex 58.8 39.9 0.9
      vertex 60.593 59.7 0.9
    endloop
  endfacet
  facet normal 0 0 -1
    outer loop
      vertex 50 50 0.9
      vertex 60.593 59.7 0.9
      vertex 58.8 39.9 0.9
    endloop
  endfacet
  facet normal 0 0 -1
    outer loop
      vertex 50 50 0.9
      vertex 58.8 39.9 0.9
      vertex 50 48.7 0.9
    endloop
  endfacet
  facet normal -0 0 -1
    outer loop
      vertex 60.593 59.7 0.9
      vertex 50 50 0.9
      vertex 59.7 60.593 0.9
    endloop
  endfacet
  facet normal 0 0 -1
    outer loop
      vertex 39.9 58.8 0.9
      vertex 50 50 0.9
      vertex 48.7 50 0.9
    endloop
  endfacet
  facet normal 0 0 -1
    outer loop
      vertex 50 50 0.9
      vertex 39.9 58.8 0.9
      vertex 59.7 60.593 0.9
    endloop
  endfacet
  facet normal 0 0 -1
    outer loop
      vertex -39.3 58.8 0.9
      vertex 59.7 60.593 0.9
      vertex 39.9 58.8 0.9
    endloop
  endfacet
  facet normal 0 0 -1
    outer loop
      vertex -50 50 0.9
      vertex -39.3 58.8 0.9
      vertex -48.1 50 0.9
    endloop
  endfacet
  facet normal 0 0 -1
    outer loop
      vertex -60 59.7 0.9
      vertex -57.314 40.786 0.9
      vertex -58.207 39.9 0.9
    endloop
  endfacet
  facet normal 0 0 -1
    outer loop
      vertex -39.3 58.8 0.9
      vertex -59.1 60.593 0.9
      vertex 59.7 60.593 0.9
    endloop
  endfacet
  facet normal 0 0 -1
    outer loop
      vertex -50 50 0.9
      vertex -59.1 60.593 0.9
      vertex -39.3 58.8 0.9
    endloop
  endfacet
  facet normal 0 0 -1
    outer loop
      vertex -57.314 40.786 0.9
      vertex -60 59.7 0.9
      vertex -50 50 0.9
    endloop
  endfacet
  facet normal -0 0 -1
    outer loop
      vertex -58.207 -39.3 0.9
      vertex -60 -59.1 0.9
      vertex -58.207 39.9 0.9
    endloop
  endfacet
  facet normal 0 0 -1
    outer loop
      vertex -60 59.7 0.9
      vertex -58.207 39.9 0.9
      vertex -60 -59.1 0.9
    endloop
  endfacet
  facet normal 0 0 -1
    outer loop
      vertex -50 50 0.9
      vertex -60 59.7 0.9
      vertex -59.1 60.593 0.9
    endloop
  endfacet
  facet normal 0 0 -1
    outer loop
      vertex 57.914 -40.193 0.9
      vertex 50 -50 0.9
      vertex 50 -48.107 0.9
    endloop
  endfacet
  facet normal -0.577357 -0.577357 -0.577336
    outer loop
      vertex 59.7 -108.677 9.97734
      vertex 58.8 -98.7 0.9
      vertex 59.7 -99.6 0.9
    endloop
  endfacet
  facet normal -0.577341 -0.577364 -0.577345
    outer loop
      vertex 58.8 -98.7 0.9
      vertex 59.7 -108.677 9.97734
      vertex 49.7226 -98.7 9.97734
    endloop
  endfacet
  facet normal 0 -0.70712 -0.707094
    outer loop
      vertex 59.7 -108.677 9.97734
      vertex 99.3 -99.6 0.9
      vertex 99.3 -108.677 9.97734
    endloop
  endfacet
  facet normal -0 -0.70712 -0.707094
    outer loop
      vertex 99.3 -99.6 0.9
      vertex 59.7 -108.677 9.97734
      vertex 59.7 -99.6 0.9
    endloop
  endfacet
  facet normal 0.58035 -0.575836 -0.575853
    outer loop
      vertex 109.2 -98.7 9.97734
      vertex 99.3 -99.6 0.9
      vertex 100.193 -98.7 0.9
    endloop
  endfacet
  facet normal 0.58034 -0.575861 -0.575839
    outer loop
      vertex 99.3 -99.6 0.9
      vertex 109.2 -98.7 9.97734
      vertex 99.3 -108.677 9.97734
    endloop
  endfacet
  facet normal -0.577351 -0.577351 -0.577349
    outer loop
      vertex 39.9 -79.8 0.9
      vertex 29.9227 -78.9 9.97734
      vertex 39 -78.9 0.9
    endloop
  endfacet
  facet normal -0.577351 -0.577351 -0.577349
    outer loop
      vertex 29.9227 -78.9 9.97734
      vertex 39.9 -79.8 0.9
      vertex 39.9 -88.8773 9.97734
    endloop
  endfacet
  facet normal -0.577351 -0.577351 -0.577349
    outer loop
      vertex 40.786 -80.686 0.9
      vertex 39.9 -88.8773 9.97734
      vertex 39.9 -79.8 0.9
    endloop
  endfacet
  facet normal -0.577355 -0.577349 -0.577347
    outer loop
      vertex 39.9 -88.8773 9.97734
      vertex 40.786 -80.686 0.9
      vertex 49.7226 -98.7 9.97734
    endloop
  endfacet
  facet normal -0.577349 -0.577349 -0.577353
    outer loop
      vertex 58.8 -98.7 0.9
      vertex 49.7226 -98.7 9.97734
      vertex 40.786 -80.686 0.9
    endloop
  endfacet
  facet normal 0.709852 0 -0.704351
    outer loop
      vertex 109.2 -98.7 9.97734
      vertex 100.193 0.299999 0.9
      vertex 109.2 0.299999 9.97734
    endloop
  endfacet
  facet normal 0.709852 0 -0.704351
    outer loop
      vertex 100.193 0.299999 0.9
      vertex 109.2 -98.7 9.97734
      vertex 100.193 -98.7 0.9
    endloop
  endfacet
  facet normal -0.577351 -0.577351 -0.577349
    outer loop
      vertex -59.1 -69.0773 9.97734
      vertex -60 -59.1 0.9
      vertex -59.1 -60 0.9
    endloop
  endfacet
  facet normal -0.577351 -0.577351 -0.577349
    outer loop
      vertex -60 -59.1 0.9
      vertex -59.1 -69.0773 9.97734
      vertex -69.0773 -59.1 9.97734
    endloop
  endfacet
  facet normal 0 -0.707108 -0.707105
    outer loop
      vertex -59.1 -69.0773 9.97734
      vertex 20.1 -60 0.9
      vertex 20.1 -69.0773 9.97734
    endloop
  endfacet
  facet normal -0 -0.707108 -0.707105
    outer loop
      vertex 20.1 -60 0.9
      vertex -59.1 -69.0773 9.97734
      vertex -59.1 -60 0.9
    endloop
  endfacet
  facet normal -0.577351 -0.577351 -0.577349
    outer loop
      vertex 20.1 -69.0773 9.97734
      vertex 20.986 -60.886 0.9
      vertex 29.9227 -78.9 9.97734
    endloop
  endfacet
  facet normal -0.577351 -0.577351 -0.577349
    outer loop
      vertex 20.986 -60.886 0.9
      vertex 20.1 -69.0773 9.97734
      vertex 20.1 -60 0.9
    endloop
  endfacet
  facet normal -0.577351 -0.577351 -0.577349
    outer loop
      vertex 39 -78.9 0.9
      vertex 29.9227 -78.9 9.97734
      vertex 20.986 -60.886 0.9
    endloop
  endfacet
  facet normal -0.707108 0 -0.707105
    outer loop
      vertex -69.0773 -59.1 9.97734
      vertex -60 59.7 0.9
      vertex -60 -59.1 0.9
    endloop
  endfacet
  facet normal -0.707108 0 -0.707105
    outer loop
      vertex -60 59.7 0.9
      vertex -69.0773 -59.1 9.97734
      vertex -69.0773 59.7 9.97734
    endloop
  endfacet
  facet normal 0.578842 0.578842 -0.574356
    outer loop
      vertex -50 -39.3 9.1711
      vertex -50 -47.507 0.9
      vertex -58.207 -39.3 0.9
    endloop
  endfacet
  facet normal 0.578842 0.578842 -0.574356
    outer loop
      vertex -39.3 -50 9.1711
      vertex -39.3 -58.207 0.9
      vertex -47.507 -50 0.9
    endloop
  endfacet
  facet normal 0 0.709852 -0.704351
    outer loop
      vertex 39.9 -58.207 0.9
      vertex -39.3 -50 9.1711
      vertex 39.9 -50 9.1711
    endloop
  endfacet
  facet normal 0 0.709852 -0.704351
    outer loop
      vertex -39.3 -50 9.1711
      vertex 39.9 -58.207 0.9
      vertex -39.3 -58.207 0.9
    endloop
  endfacet
  facet normal -0.578853 0.574331 -0.578855
    outer loop
      vertex 50 -39.3 9.69999
      vertex 57.914 -40.193 0.9
      vertex 50 -44.15 4.88789
    endloop
  endfacet
  facet normal -0.578859 0.574321 -0.578859
    outer loop
      vertex 57.914 -40.193 0.9
      vertex 50 -39.3 9.69999
      vertex 58.8 -39.3 0.9
    endloop
  endfacet
  facet normal -0.578842 0.578842 -0.574356
    outer loop
      vertex 39.9 -50 9.1711
      vertex 48.107 -50 0.9
      vertex 39.9 -58.207 0.9
    endloop
  endfacet
  facet normal -0.578841 0.578841 -0.574357
    outer loop
      vertex 50 -44.15 4.88789
      vertex 57.914 -40.193 0.9
      vertex 50 -48.107 0.9
    endloop
  endfacet
  facet normal 0.709852 0 -0.704351
    outer loop
      vertex -50 -39.3 9.1711
      vertex -58.207 39.9 0.9
      vertex -50 39.9 9.1711
    endloop
  endfacet
  facet normal 0.709852 0 -0.704351
    outer loop
      vertex -58.207 39.9 0.9
      vertex -50 -39.3 9.1711
      vertex -58.207 -39.3 0.9
    endloop
  endfacet
  facet normal -0.707106 0 -0.707107
    outer loop
      vertex 50 -39.3 9.69999
      vertex 58.8 39.9 0.9
      vertex 58.8 -39.3 0.9
    endloop
  endfacet
  facet normal -0.707106 0 -0.707107
    outer loop
      vertex 58.8 39.9 0.9
      vertex 50 -39.3 9.69999
      vertex 50 39.9 9.69999
    endloop
  endfacet
  facet normal 0.578842 0.578842 -0.574356
    outer loop
      vertex 78.607 -17.714 0.9
      vertex 79.5 -9.6 9.97734
      vertex 79.5 -18.607 0.9
    endloop
  endfacet
  facet normal 0.578842 0.578842 -0.574356
    outer loop
      vertex 79.5 -9.6 9.97734
      vertex 78.607 -17.714 0.9
      vertex 69.6 0.299999 9.97734
    endloop
  endfacet
  facet normal 0.578842 0.578842 -0.574356
    outer loop
      vertex 69.6 0.299999 9.97734
      vertex 78.607 -17.714 0.9
      vertex 60.593 0.299999 0.9
    endloop
  endfacet
  facet normal -0.578841 0.574354 -0.578845
    outer loop
      vertex 97.5139 -0.593024 0.9
      vertex 89.3226 0.299999 9.97734
      vertex 98.4 0.299999 0.9
    endloop
  endfacet
  facet normal -0.578855 0.574329 -0.578855
    outer loop
      vertex 89.3226 0.299999 9.97734
      vertex 97.5139 -0.593024 0.9
      vertex 79.5 -9.6 9.97734
    endloop
  endfacet
  facet normal -0.578843 0.578841 -0.574355
    outer loop
      vertex 79.5 -9.6 9.97734
      vertex 97.5139 -0.593024 0.9
      vertex 79.5 -18.607 0.9
    endloop
  endfacet
  facet normal 0.709852 0 -0.704351
    outer loop
      vertex 69.6 20.1 9.97734
      vertex 60.593 59.7 0.9
      vertex 69.6 59.7 9.97734
    endloop
  endfacet
  facet normal 0.709852 0 -0.704351
    outer loop
      vertex 60.593 0.299999 0.9
      vertex 69.6 20.1 9.97734
      vertex 69.6 0.299999 9.97734
    endloop
  endfacet
  facet normal 0.709852 0 -0.704351
    outer loop
      vertex 69.6 20.1 9.97734
      vertex 60.593 0.299999 0.9
      vertex 60.593 59.7 0.9
    endloop
  endfacet
  facet normal -0.575846 0.580346 -0.575848
    outer loop
      vertex 98.4 0.299999 0.9
      vertex 99.3 10.2 9.97734
      vertex 99.3 1.19302 0.9
    endloop
  endfacet
  facet normal -0.575844 0.580346 -0.575848
    outer loop
      vertex 99.3 10.2 9.97734
      vertex 98.4 0.299999 0.9
      vertex 89.3226 0.299999 9.97734
    endloop
  endfacet
  facet normal 0.578842 0.578841 -0.574356
    outer loop
      vertex 100.193 0.299999 0.9
      vertex 99.3 10.2 9.97734
      vertex 109.2 0.299999 9.97734
    endloop
  endfacet
  facet normal 0.578851 0.578837 -0.574351
    outer loop
      vertex 99.3 10.2 9.97734
      vertex 100.193 0.299999 0.9
      vertex 99.3 1.19302 0.9
    endloop
  endfacet
  facet normal 0.577309 -0.581871 -0.572835
    outer loop
      vertex -57.314 40.786 0.9
      vertex -50 39.9 9.1711
      vertex -58.207 39.9 0.9
    endloop
  endfacet
  facet normal 0.577312 -0.581866 -0.572837
    outer loop
      vertex -50 39.9 9.1711
      vertex -57.314 40.786 0.9
      vertex -50 44.4144 4.58555
    endloop
  endfacet
  facet normal 0.577348 -0.577348 -0.577355
    outer loop
      vertex -50 48.1 0.9
      vertex -50 44.4144 4.58555
      vertex -57.314 40.786 0.9
    endloop
  endfacet
  facet normal 0.57735 -0.57735 -0.577351
    outer loop
      vertex -39.3 58.8 0.9
      vertex -39.3 50 9.69999
      vertex -48.1 50 0.9
    endloop
  endfacet
  facet normal 0 -0.707106 -0.707107
    outer loop
      vertex -39.3 50 9.69999
      vertex 39.9 58.8 0.9
      vertex 39.9 50 9.69999
    endloop
  endfacet
  facet normal -0 -0.707106 -0.707107
    outer loop
      vertex 39.9 58.8 0.9
      vertex -39.3 50 9.69999
      vertex -39.3 58.8 0.9
    endloop
  endfacet
  facet normal -0.57735 -0.57735 -0.577351
    outer loop
      vertex 39.9 58.8 0.9
      vertex 48.7 50 0.9
      vertex 39.9 50 9.69999
    endloop
  endfacet
  facet normal -0.57735 -0.57735 -0.577351
    outer loop
      vertex 50 48.7 0.9
      vertex 58.8 39.9 0.9
      vertex 50 39.9 9.69999
    endloop
  endfacet
  facet normal -0.575836 0.58035 -0.575853
    outer loop
      vertex -60 59.7 0.9
      vertex -59.1 69.6 9.97734
      vertex -59.1 60.593 0.9
    endloop
  endfacet
  facet normal -0.575848 0.580345 -0.575846
    outer loop
      vertex -59.1 69.6 9.97734
      vertex -60 59.7 0.9
      vertex -69.0773 59.7 9.97734
    endloop
  endfacet
  facet normal 0 0.709852 -0.704351
    outer loop
      vertex 59.7 60.593 0.9
      vertex -59.1 69.6 9.97734
      vertex 59.7 69.6 9.97734
    endloop
  endfacet
  facet normal 0 0.709852 -0.704351
    outer loop
      vertex -59.1 69.6 9.97734
      vertex 59.7 60.593 0.9
      vertex -59.1 60.593 0.9
    endloop
  endfacet
  facet normal 0.578842 0.578842 -0.574356
    outer loop
      vertex 69.6 59.7 9.97734
      vertex 59.7 60.593 0.9
      vertex 59.7 69.6 9.97734
    endloop
  endfacet
  facet normal 0.578842 0.578842 -0.574356
    outer loop
      vertex 59.7 60.593 0.9
      vertex 69.6 59.7 9.97734
      vertex 60.593 59.7 0.9
    endloop
  endfacet
  facet normal -0.577344 -0.577362 -0.577344
    outer loop
      vertex 39.9 -98.7 19.8
      vertex 39.9 -108.677 29.7773
      vertex 29.9227 -98.7 29.7773
    endloop
  endfacet
  facet normal -0.577344 -0.577367 -0.57734
    outer loop
      vertex 49.7226 -98.7 9.97734
      vertex 59.7 -108.677 9.97734
      vertex 39.9 -98.7 19.8
    endloop
  endfacet
  facet normal -0.577344 -0.577362 -0.577345
    outer loop
      vertex 39.9 -98.7 19.8
      vertex 59.7 -108.677 9.97734
      vertex 39.9 -108.677 29.7773
    endloop
  endfacet
  facet normal 0 -1 0
    outer loop
      vertex 59.7 -108.677 89.1773
      vertex 59.7 -108.677 69.3773
      vertex 79.5 -108.677 89.1773
    endloop
  endfacet
  facet normal 0 -1 0
    outer loop
      vertex 99.3 -108.677 9.97734
      vertex 79.5 -108.677 89.1773
      vertex 59.7 -108.677 69.3773
    endloop
  endfacet
  facet normal 0 -1 0
    outer loop
      vertex 39.9 -108.677 29.7773
      vertex 59.7 -108.677 69.3773
      vertex 39.9 -108.677 49.5773
    endloop
  endfacet
  facet normal 0 -1 0
    outer loop
      vertex 59.7 -108.677 9.97734
      vertex 59.7 -108.677 69.3773
      vertex 39.9 -108.677 29.7773
    endloop
  endfacet
  facet normal 0 -1 0
    outer loop
      vertex 59.7 -108.677 69.3773
      vertex 59.7 -108.677 9.97734
      vertex 99.3 -108.677 9.97734
    endloop
  endfacet
  facet normal 0 -1 0
    outer loop
      vertex 79.5 -108.677 89.1773
      vertex 99.3 -108.677 9.97734
      vertex 99.3 -108.677 108.977
    endloop
  endfacet
  facet normal 0.709841 -0.704362 0
    outer loop
      vertex 99.3 -108.677 108.977
      vertex 109.2 -98.7 9.97734
      vertex 109.2 -98.7 108.977
    endloop
  endfacet
  facet normal 0.709841 -0.704362 0
    outer loop
      vertex 109.2 -98.7 9.97734
      vertex 99.3 -108.677 108.977
      vertex 99.3 -108.677 9.97734
    endloop
  endfacet
  facet normal -0.577351 -0.577349 -0.577351
    outer loop
      vertex 29.9227 -78.9 9.97734
      vertex 39.9 -98.7 19.8
      vertex 29.9227 -98.7 29.7773
    endloop
  endfacet
  facet normal -0.577349 -0.577349 -0.577352
    outer loop
      vertex 39.9 -98.7 19.8
      vertex 29.9227 -78.9 9.97734
      vertex 39.9 -88.8773 9.97734
    endloop
  endfacet
  facet normal -0.577353 -0.577348 -0.57735
    outer loop
      vertex 39.9 -88.8773 9.97734
      vertex 49.7226 -98.7 9.97734
      vertex 39.9 -98.7 19.8
    endloop
  endfacet
  facet normal 1 0 0
    outer loop
      vertex 109.2 -19.5 89.1773
      vertex 109.2 0.299999 9.97734
      vertex 109.2 0.299999 69.3773
    endloop
  endfacet
  facet normal 1 0 0
    outer loop
      vertex 109.2 -98.7 9.97734
      vertex 109.2 -19.5 89.1773
      vertex 109.2 -39.3 108.977
    endloop
  endfacet
  facet normal 1 0 0
    outer loop
      vertex 109.2 -98.7 9.97734
      vertex 109.2 -39.3 108.977
      vertex 109.2 -98.7 108.977
    endloop
  endfacet
  facet normal 1 0 0
    outer loop
      vertex 109.2 -19.5 89.1773
      vertex 109.2 -98.7 9.97734
      vertex 109.2 0.299999 9.97734
    endloop
  endfacet
  facet normal -0.575847 -0.575847 0.580345
    outer loop
      vertex -59.1 -69.0773 9.97734
      vertex -59.1 -59.1 19.8773
      vertex -69.0773 -59.1 9.97734
    endloop
  endfacet
  facet normal 0 -0.70435 0.709853
    outer loop
      vertex -39.3 -59.1 19.8773
      vertex 20.1 -69.0773 9.97734
      vertex 20.1 -59.1 19.8773
    endloop
  endfacet
  facet normal 0 -0.70435 0.709853
    outer loop
      vertex -59.1 -69.0773 9.97734
      vertex -39.3 -59.1 19.8773
      vertex -59.1 -59.1 19.8773
    endloop
  endfacet
  facet normal 0 -0.70435 0.709853
    outer loop
      vertex -39.3 -59.1 19.8773
      vertex -59.1 -69.0773 9.97734
      vertex 20.1 -69.0773 9.97734
    endloop
  endfacet
  facet normal -0.581859 -0.572841 0.577316
    outer loop
      vertex 29.9227 -59.1 29.7773
      vertex 20.1 -59.1 19.8773
      vertex 20.1 -69.0773 9.97734
    endloop
  endfacet
  facet normal -0.57735 -0.57735 0.577351
    outer loop
      vertex 29.9227 -78.9 9.97734
      vertex 29.9227 -59.1 29.7773
      vertex 20.1 -69.0773 9.97734
    endloop
  endfacet
  facet normal -0.70435 0 0.709853
    outer loop
      vertex -69.0773 59.7 9.97734
      vertex -59.1 39.9 19.8773
      vertex -59.1 59.7 19.8773
    endloop
  endfacet
  facet normal -0.70435 0 0.709853
    outer loop
      vertex -59.1 39.9 19.8773
      vertex -69.0773 59.7 9.97734
      vertex -59.1 -39.3 19.8773
    endloop
  endfacet
  facet normal -0.70435 0 0.709853
    outer loop
      vertex -69.0773 -59.1 9.97734
      vertex -59.1 -39.3 19.8773
      vertex -69.0773 59.7 9.97734
    endloop
  endfacet
  facet normal -0.70435 0 0.709853
    outer loop
      vertex -59.1 -39.3 19.8773
      vertex -69.0773 -59.1 9.97734
      vertex -59.1 -59.1 19.8773
    endloop
  endfacet
  facet normal 0.57735 0.57735 0.57735
    outer loop
      vertex -39.3 -59.1 19.8773
      vertex -39.3 -50 10.7773
      vertex -48.4 -50 19.8773
    endloop
  endfacet
  facet normal 0.57735 0.57735 0.57735
    outer loop
      vertex -50 -48.4 19.8773
      vertex -50 -39.3 10.7773
      vertex -59.1 -39.3 19.8773
    endloop
  endfacet
  facet normal 0 0 1
    outer loop
      vertex -50 -48.4 19.8773
      vertex -59.1 -39.3 19.8773
      vertex -50 -50 19.8773
    endloop
  endfacet
  facet normal -0 0 1
    outer loop
      vertex -50 -50 19.8773
      vertex -39.3 -59.1 19.8773
      vertex -48.4 -50 19.8773
    endloop
  endfacet
  facet normal 0 0 1
    outer loop
      vertex -50 -50 19.8773
      vertex -59.1 -59.1 19.8773
      vertex -39.3 -59.1 19.8773
    endloop
  endfacet
  facet normal 0 0 1
    outer loop
      vertex -59.1 -59.1 19.8773
      vertex -50 -50 19.8773
      vertex -59.1 -39.3 19.8773
    endloop
  endfacet
  facet normal 0 0.707107 0.707107
    outer loop
      vertex 20.1 -50 10.7773
      vertex -39.3 -59.1 19.8773
      vertex 20.1 -59.1 19.8773
    endloop
  endfacet
  facet normal 0 0.707107 0.707107
    outer loop
      vertex -39.3 -59.1 19.8773
      vertex 20.1 -50 10.7773
      vertex -39.3 -50 10.7773
    endloop
  endfacet
  facet normal -0.577326 0.581837 0.572852
    outer loop
      vertex 38.3 -50 28.9773
      vertex 29.9227 -59.1 29.7773
      vertex 39.0938 -50 29.7773
    endloop
  endfacet
  facet normal -0.577339 0.581846 0.572831
    outer loop
      vertex 29.9227 -59.1 29.7773
      vertex 38.3 -50 28.9773
      vertex 20.1 -59.1 19.8773
    endloop
  endfacet
  facet normal -0.57735 0.57735 0.57735
    outer loop
      vertex 38.3 -50 28.9773
      vertex 20.1 -50 10.7773
      vertex 20.1 -59.1 19.8773
    endloop
  endfacet
  facet normal 0.707107 -0 0.707107
    outer loop
      vertex -59.1 -39.3 19.8773
      vertex -50 39.9 10.7773
      vertex -59.1 39.9 19.8773
    endloop
  endfacet
  facet normal 0.707107 0 0.707107
    outer loop
      vertex -50 39.9 10.7773
      vertex -59.1 -39.3 19.8773
      vertex -50 -39.3 10.7773
    endloop
  endfacet
  facet normal -0.574354 0.578844 0.578842
    outer loop
      vertex 50 0.0248 10.5277
      vertex 59.7 0.299999 19.8773
      vertex 50 0.299999 10.2525
    endloop
  endfacet
  facet normal -0.574355 0.578842 0.578842
    outer loop
      vertex 59.7 0.299999 19.8773
      vertex 50 0.0248 10.5277
      vertex 59.7 -9.6 29.7773
    endloop
  endfacet
  facet normal -0.574355 0.578842 0.578842
    outer loop
      vertex 59.7 -9.6 29.7773
      vertex 50 0.0248 10.5277
      vertex 50 -19.2248 29.7773
    endloop
  endfacet
  facet normal 0.575835 0.575835 -0.580369
    outer loop
      vertex 79.5 0.299999 19.8
      vertex 79.5 -9.6 9.97734
      vertex 69.6 0.299999 9.97734
    endloop
  endfacet
  facet normal -0.580367 0.575836 0.575836
    outer loop
      vertex 69.5227 0.299999 29.7773
      vertex 59.7 0.299999 19.8773
      vertex 59.7 -9.6 29.7773
    endloop
  endfacet
  facet normal -0.578856 0.57433 -0.578852
    outer loop
      vertex 79.5 0.299999 19.8
      vertex 89.3226 0.299999 9.97734
      vertex 79.5 -9.6 9.97734
    endloop
  endfacet
  facet normal -0.70435 0 0.709853
    outer loop
      vertex 50 39.9 10.2525
      vertex 59.7 20.1 19.8773
      vertex 59.7 39.9 19.8773
    endloop
  endfacet
  facet normal -0.70435 0 0.709853
    outer loop
      vertex 50 0.299999 10.2525
      vertex 59.7 20.1 19.8773
      vertex 50 39.9 10.2525
    endloop
  endfacet
  facet normal -0.70435 0 0.709853
    outer loop
      vertex 59.7 20.1 19.8773
      vertex 50 0.299999 10.2525
      vertex 59.7 0.299999 19.8773
    endloop
  endfacet
  facet normal 0.894427 0 -0.447214
    outer loop
      vertex 69.6 20.1 9.97734
      vertex 79.5 10.2 29.7773
      vertex 69.6 0.299999 9.97734
    endloop
  endfacet
  facet normal 0.572829 0.581847 -0.577339
    outer loop
      vertex 79.5 10.2 29.7773
      vertex 79.5 0.299999 19.8
      vertex 69.6 0.299999 9.97734
    endloop
  endfacet
  facet normal 0.301511 0.904534 0.301512
    outer loop
      vertex 79.5 10.2 29.7773
      vertex 69.6 20.1 9.97734
      vertex 59.7 20.1 19.8773
    endloop
  endfacet
  facet normal -0.577339 0.581846 0.572831
    outer loop
      vertex 69.5227 0.299999 29.7773
      vertex 79.5 10.2 29.7773
      vertex 59.7 0.299999 19.8773
    endloop
  endfacet
  facet normal -0.447214 0 0.894427
    outer loop
      vertex 79.5 10.2 29.7773
      vertex 59.7 20.1 19.8773
      vertex 59.7 0.299999 19.8773
    endloop
  endfacet
  facet normal -0.57585 0.580343 -0.575846
    outer loop
      vertex 79.5 10.2 29.7773
      vertex 89.3226 0.299999 9.97734
      vertex 79.5 0.299999 19.8
    endloop
  endfacet
  facet normal -0.575845 0.580347 -0.575846
    outer loop
      vertex 99.3 10.2 9.97734
      vertex 89.3226 0.299999 9.97734
      vertex 79.5 10.2 29.7773
    endloop
  endfacet
  facet normal 0.707107 0.707107 -0
    outer loop
      vertex 109.2 0.299999 9.97734
      vertex 99.3 10.2 69.3773
      vertex 109.2 0.299999 69.3773
    endloop
  endfacet
  facet normal 0.707107 0.707107 0
    outer loop
      vertex 99.3 10.2 69.3773
      vertex 109.2 0.299999 9.97734
      vertex 99.3 10.2 9.97734
    endloop
  endfacet
  facet normal 0.707105 -0 0.707108
    outer loop
      vertex 59.7 39.9 19.8773
      vertex 69.6 59.7 9.97734
      vertex 59.7 59.7 19.8773
    endloop
  endfacet
  facet normal 0.707105 0 0.707108
    outer loop
      vertex 69.6 20.1 9.97734
      vertex 59.7 39.9 19.8773
      vertex 59.7 20.1 19.8773
    endloop
  endfacet
  facet normal 0.707105 0 0.707108
    outer loop
      vertex 59.7 39.9 19.8773
      vertex 69.6 20.1 9.97734
      vertex 69.6 59.7 9.97734
    endloop
  endfacet
  facet normal 0.572828 -0.577339 0.581849
    outer loop
      vertex -39.3 50 10.2525
      vertex -39.3 59.7 19.8773
      vertex -44.15 50 15.0273
    endloop
  endfacet
  facet normal 0.57735 -0.57735 0.57735
    outer loop
      vertex -50 39.9 10.7773
      vertex -50 49 19.8773
      vertex -59.1 39.9 19.8773
    endloop
  endfacet
  facet normal 0.57735 -0.57735 0.57735
    outer loop
      vertex -44.15 50 15.0273
      vertex -39.3 59.7 19.8773
      vertex -49 50 19.8773
    endloop
  endfacet
  facet normal -0 0 1
    outer loop
      vertex -59.1 59.7 19.8773
      vertex -49 50 19.8773
      vertex -39.3 59.7 19.8773
    endloop
  endfacet
  facet normal 0 0 1
    outer loop
      vertex -49 50 19.8773
      vertex -59.1 59.7 19.8773
      vertex -50 50 19.8773
    endloop
  endfacet
  facet normal 0 0 1
    outer loop
      vertex -59.1 39.9 19.8773
      vertex -50 50 19.8773
      vertex -59.1 59.7 19.8773
    endloop
  endfacet
  facet normal 0 0 1
    outer loop
      vertex -50 50 19.8773
      vertex -59.1 39.9 19.8773
      vertex -50 49 19.8773
    endloop
  endfacet
  facet normal 0 -0.70435 0.709853
    outer loop
      vertex -39.3 59.7 19.8773
      vertex 39.9 50 10.2525
      vertex 39.9 59.7 19.8773
    endloop
  endfacet
  facet normal 0 -0.70435 0.709853
    outer loop
      vertex 39.9 50 10.2525
      vertex -39.3 59.7 19.8773
      vertex -39.3 50 10.2525
    endloop
  endfacet
  facet normal -0.575847 -0.575847 0.580346
    outer loop
      vertex 59.7 39.9 19.8773
      vertex 50 49.6 19.8773
      vertex 50 39.9 10.2525
    endloop
  endfacet
  facet normal -0.575847 -0.575847 0.580346
    outer loop
      vertex 49.6 50 19.8773
      vertex 39.9 59.7 19.8773
      vertex 39.9 50 10.2525
    endloop
  endfacet
  facet normal 0 0 1
    outer loop
      vertex 59.7 59.7 19.8773
      vertex 50 50 19.8773
      vertex 59.7 39.9 19.8773
    endloop
  endfacet
  facet normal 0 0 1
    outer loop
      vertex 59.7 59.7 19.8773
      vertex 49.6 50 19.8773
      vertex 50 50 19.8773
    endloop
  endfacet
  facet normal 0 -0 1
    outer loop
      vertex 49.6 50 19.8773
      vertex 59.7 59.7 19.8773
      vertex 39.9 59.7 19.8773
    endloop
  endfacet
  facet normal 0 0 1
    outer loop
      vertex 59.7 39.9 19.8773
      vertex 50 50 19.8773
      vertex 50 49.6 19.8773
    endloop
  endfacet
  facet normal -0.574356 0.57884 0.578843
    outer loop
      vertex -59.1 59.7 19.8773
      vertex -59.1 69.6 9.97734
      vertex -69.0773 59.7 9.97734
    endloop
  endfacet
  facet normal 0 0.707105 0.707108
    outer loop
      vertex 59.7 69.6 9.97734
      vertex 39.9 59.7 19.8773
      vertex 59.7 59.7 19.8773
    endloop
  endfacet
  facet normal 0 0.707105 0.707108
    outer loop
      vertex 39.9 59.7 19.8773
      vertex 59.7 69.6 9.97734
      vertex -39.3 59.7 19.8773
    endloop
  endfacet
  facet normal -0 0.707105 0.707108
    outer loop
      vertex -59.1 69.6 9.97734
      vertex -39.3 59.7 19.8773
      vertex 59.7 69.6 9.97734
    endloop
  endfacet
  facet normal 0 0.707105 0.707108
    outer loop
      vertex -39.3 59.7 19.8773
      vertex -59.1 69.6 9.97734
      vertex -59.1 59.7 19.8773
    endloop
  endfacet
  facet normal 0.577349 0.577349 0.577352
    outer loop
      vertex 69.6 59.7 9.97734
      vertex 59.7 69.6 9.97734
      vertex 59.7 59.7 19.8773
    endloop
  endfacet
  facet normal -0.707096 -0.707117 0
    outer loop
      vertex 39.9 -108.677 29.7773
      vertex 29.9227 -98.7 49.5773
      vertex 29.9227 -98.7 29.7773
    endloop
  endfacet
  facet normal -0.707096 -0.707117 0
    outer loop
      vertex 29.9227 -98.7 49.5773
      vertex 39.9 -108.677 29.7773
      vertex 39.9 -108.677 49.5773
    endloop
  endfacet
  facet normal -1 0 0
    outer loop
      vertex 29.9227 -98.7 29.7773
      vertex 29.9227 -59.1 29.7773
      vertex 29.9227 -78.9 9.97734
    endloop
  endfacet
  facet normal -1 0 0
    outer loop
      vertex 29.9227 -59.1 29.7773
      vertex 29.9227 -78.9 69.3773
      vertex 29.9227 -59.1 89.1773
    endloop
  endfacet
  facet normal -1 0 0
    outer loop
      vertex 29.9227 -98.7 49.5773
      vertex 29.9227 -59.1 29.7773
      vertex 29.9227 -98.7 29.7773
    endloop
  endfacet
  facet normal -1 0 0
    outer loop
      vertex 29.9227 -59.1 29.7773
      vertex 29.9227 -98.7 49.5773
      vertex 29.9227 -78.9 69.3773
    endloop
  endfacet
  facet normal -0.70435 0.709853 0
    outer loop
      vertex 39.0938 -50 29.7773
      vertex 29.9227 -59.1 89.1773
      vertex 39.0938 -50 89.1773
    endloop
  endfacet
  facet normal -0.70435 0.709853 0
    outer loop
      vertex 29.9227 -59.1 89.1773
      vertex 39.0938 -50 29.7773
      vertex 29.9227 -59.1 29.7773
    endloop
  endfacet
  facet normal -0.572875 0.577351 -0.58179
    outer loop
      vertex 50 -18.9496 30.0504
      vertex 59.7 -9.6 29.7773
      vertex 50 -19.2248 29.7773
    endloop
  endfacet
  facet normal -0.572842 0.577315 -0.581858
    outer loop
      vertex 59.7 -9.6 29.7773
      vertex 50 -18.9496 30.0504
      vertex 59.7 0.299999 39.6
    endloop
  endfacet
  facet normal -0.57735 0.57735 -0.57735
    outer loop
      vertex 50 0.299999 49.3
      vertex 59.7 0.299999 39.6
      vertex 50 -18.9496 30.0504
    endloop
  endfacet
  facet normal -0.578853 0.574333 -0.578853
    outer loop
      vertex 59.7 0.299999 39.6
      vertex 69.5227 0.299999 29.7773
      vertex 59.7 -9.6 29.7773
    endloop
  endfacet
  facet normal -0.575813 0.580312 -0.575915
    outer loop
      vertex 59.7 10.2 49.5773
      vertex 50 0.299999 49.3
      vertex 50 0.575198 49.5773
    endloop
  endfacet
  facet normal -0.575848 0.580344 -0.575848
    outer loop
      vertex 50 0.299999 49.3
      vertex 59.7 10.2 49.5773
      vertex 59.7 0.299999 39.6
    endloop
  endfacet
  facet normal -0.575848 0.580344 -0.575848
    outer loop
      vertex 59.7 10.2 49.5773
      vertex 69.5227 0.299999 29.7773
      vertex 59.7 0.299999 39.6
    endloop
  endfacet
  facet normal -0.575848 0.580344 -0.575848
    outer loop
      vertex 79.5 10.2 29.7773
      vertex 69.5227 0.299999 29.7773
      vertex 59.7 10.2 49.5773
    endloop
  endfacet
  facet normal -0.575842 -0.575859 0.580338
    outer loop
      vertex 39.9 -108.677 49.5773
      vertex 39.9 -98.7 59.4773
      vertex 29.9227 -98.7 49.5773
    endloop
  endfacet
  facet normal -0.581856 -0.572852 0.577307
    outer loop
      vertex 49.7226 -98.7 69.3773
      vertex 39.9 -98.7 59.4773
      vertex 39.9 -108.677 49.5773
    endloop
  endfacet
  facet normal -0.577343 -0.577366 0.577343
    outer loop
      vertex 59.7 -108.677 69.3773
      vertex 49.7226 -98.7 69.3773
      vertex 39.9 -108.677 49.5773
    endloop
  endfacet
  facet normal -0.578853 -0.578853 0.574333
    outer loop
      vertex 39.9 -98.7 59.4773
      vertex 39.9 -88.8773 69.3773
      vertex 29.9227 -78.9 69.3773
    endloop
  endfacet
  facet normal -0.574357 -0.578841 0.578841
    outer loop
      vertex 39.9 -98.7 59.4773
      vertex 29.9227 -78.9 69.3773
      vertex 29.9227 -98.7 49.5773
    endloop
  endfacet
  facet normal -0.578857 -0.578851 0.574331
    outer loop
      vertex 49.7226 -98.7 69.3773
      vertex 39.9 -88.8773 69.3773
      vertex 39.9 -98.7 59.4773
    endloop
  endfacet
  facet normal -0.70435 0.709853 0
    outer loop
      vertex 59.7 10.2 49.5773
      vertex 50 0.575198 89.1773
      vertex 59.7 10.2 89.1773
    endloop
  endfacet
  facet normal -0.70435 0.709853 0
    outer loop
      vertex 50 0.575198 89.1773
      vertex 59.7 10.2 49.5773
      vertex 50 0.575198 49.5773
    endloop
  endfacet
  facet normal 0 1 0
    outer loop
      vertex 59.7 10.2 49.5773
      vertex 79.5 10.2 89.1773
      vertex 99.3 10.2 69.3773
    endloop
  endfacet
  facet normal 0 1 0
    outer loop
      vertex 79.5 10.2 89.1773
      vertex 59.7 10.2 49.5773
      vertex 59.7 10.2 89.1773
    endloop
  endfacet
  facet normal 0 1 0
    outer loop
      vertex 99.3 10.2 69.3773
      vertex 79.5 10.2 29.7773
      vertex 59.7 10.2 49.5773
    endloop
  endfacet
  facet normal -0 1 0
    outer loop
      vertex 79.5 10.2 29.7773
      vertex 99.3 10.2 69.3773
      vertex 99.3 10.2 9.97734
    endloop
  endfacet
  facet normal -0.707093 -0.707121 0
    outer loop
      vertex 49.7226 -98.7 69.3773
      vertex 59.7 -108.677 89.1773
      vertex 49.7226 -98.7 89.1773
    endloop
  endfacet
  facet normal -0.707093 -0.707121 -0
    outer loop
      vertex 59.7 -108.677 89.1773
      vertex 49.7226 -98.7 69.3773
      vertex 59.7 -108.677 69.3773
    endloop
  endfacet
  facet normal -0.575848 -0.575848 0.580344
    outer loop
      vertex 39.9 -88.8773 69.3773
      vertex 39.9 -78.9 79.2773
      vertex 29.9227 -78.9 69.3773
    endloop
  endfacet
  facet normal -0.581862 -0.57284 0.577313
    outer loop
      vertex 49.7226 -78.9 89.1773
      vertex 39.9 -78.9 79.2773
      vertex 39.9 -88.8773 69.3773
    endloop
  endfacet
  facet normal -0.577354 -0.577348 0.577348
    outer loop
      vertex 49.7226 -98.7 69.3773
      vertex 49.7226 -78.9 89.1773
      vertex 39.9 -88.8773 69.3773
    endloop
  endfacet
  facet normal -1 0 0
    outer loop
      vertex 49.7226 -98.7 89.1773
      vertex 49.7226 -78.9 89.1773
      vertex 49.7226 -98.7 69.3773
    endloop
  endfacet
  facet normal -0.578853 -0.578853 0.574333
    outer loop
      vertex 39.9 -78.9 79.2773
      vertex 39.9 -69.0773 89.1773
      vertex 29.9227 -59.1 89.1773
    endloop
  endfacet
  facet normal -0.574357 -0.578841 0.578841
    outer loop
      vertex 39.9 -78.9 79.2773
      vertex 29.9227 -59.1 89.1773
      vertex 29.9227 -78.9 69.3773
    endloop
  endfacet
  facet normal -0.578857 -0.578851 0.574331
    outer loop
      vertex 49.7226 -78.9 89.1773
      vertex 39.9 -69.0773 89.1773
      vertex 39.9 -78.9 79.2773
    endloop
  endfacet
  facet normal 0.57735 0.57735 0.57735
    outer loop
      vertex 99.3 -9.6 89.1773
      vertex 99.3 0.299999 79.2773
      vertex 89.4 0.299999 89.1773
    endloop
  endfacet
  facet normal 0.57735 0.57735 0.57735
    outer loop
      vertex 109.2 -19.5 89.1773
      vertex 99.3 0.299999 79.2773
      vertex 99.3 -9.6 89.1773
    endloop
  endfacet
  facet normal 0.57735 0.57735 0.57735
    outer loop
      vertex 109.2 -19.5 89.1773
      vertex 109.2 0.299999 69.3773
      vertex 99.3 0.299999 79.2773
    endloop
  endfacet
  facet normal 0.57735 0.57735 0.57735
    outer loop
      vertex 99.3 0.299999 79.2773
      vertex 99.3 10.2 69.3773
      vertex 89.4 0.299999 89.1773
    endloop
  endfacet
  facet normal 0.57735 0.57735 0.57735
    outer loop
      vertex 89.4 0.299999 89.1773
      vertex 99.3 10.2 69.3773
      vertex 79.5 10.2 89.1773
    endloop
  endfacet
  facet normal 0.57735 0.57735 0.57735
    outer loop
      vertex 109.2 0.299999 69.3773
      vertex 99.3 10.2 69.3773
      vertex 99.3 0.299999 79.2773
    endloop
  endfacet
  facet normal -0.575838 -0.575861 0.58034
    outer loop
      vertex 59.7 -108.677 89.1773
      vertex 59.7 -98.7 99.0773
      vertex 49.7226 -98.7 89.1773
    endloop
  endfacet
  facet normal 0 -0.704362 0.709841
    outer loop
      vertex 59.7 -98.7 99.0773
      vertex 79.5 -108.677 89.1773
      vertex 79.5 -98.7 99.0773
    endloop
  endfacet
  facet normal 0 -0.704362 0.709841
    outer loop
      vertex 79.5 -108.677 89.1773
      vertex 59.7 -98.7 99.0773
      vertex 59.7 -108.677 89.1773
    endloop
  endfacet
  facet normal -0.581845 -0.572858 0.577313
    outer loop
      vertex 89.3226 -98.7 108.977
      vertex 79.5 -98.7 99.0773
      vertex 79.5 -108.677 89.1773
    endloop
  endfacet
  facet normal -0.57734 -0.577363 0.577348
    outer loop
      vertex 99.3 -108.677 108.977
      vertex 89.3226 -98.7 108.977
      vertex 79.5 -108.677 89.1773
    endloop
  endfacet
  facet normal -0.704348 0 0.709855
    outer loop
      vertex 49.7226 -78.9 89.1773
      vertex 59.7 -98.7 99.0773
      vertex 59.7 -78.9 99.0773
    endloop
  endfacet
  facet normal -0.704348 0 0.709855
    outer loop
      vertex 59.7 -98.7 99.0773
      vertex 49.7226 -78.9 89.1773
      vertex 49.7226 -98.7 89.1773
    endloop
  endfacet
  facet normal -0.578847 -0.578847 0.574345
    outer loop
      vertex 79.5 -98.7 99.0773
      vertex 79.5 -88.8773 108.977
      vertex 69.5227 -78.9 108.977
    endloop
  endfacet
  facet normal -0.578847 -0.578847 0.574345
    outer loop
      vertex 79.5 -98.7 99.0773
      vertex 69.5227 -78.9 108.977
      vertex 59.7 -78.9 99.0773
    endloop
  endfacet
  facet normal 0 0 1
    outer loop
      vertex 79.5 -98.7 99.0773
      vertex 59.7 -78.9 99.0773
      vertex 59.7 -98.7 99.0773
    endloop
  endfacet
  facet normal -0.578851 -0.578845 0.574343
    outer loop
      vertex 89.3226 -98.7 108.977
      vertex 79.5 -88.8773 108.977
      vertex 79.5 -98.7 99.0773
    endloop
  endfacet
  facet normal -0.575848 -0.575848 0.580344
    outer loop
      vertex 39.9 -69.0773 89.1773
      vertex 39.9 -59.1 99.0773
      vertex 29.9227 -59.1 89.1773
    endloop
  endfacet
  facet normal -0.581851 -0.572846 0.577319
    outer loop
      vertex 49.7226 -59.1 108.977
      vertex 39.9 -59.1 99.0773
      vertex 39.9 -69.0773 89.1773
    endloop
  endfacet
  facet normal -0.577351 -0.577345 0.577354
    outer loop
      vertex 49.7226 -78.9 89.1773
      vertex 49.7226 -59.1 108.977
      vertex 39.9 -69.0773 89.1773
    endloop
  endfacet
  facet normal -0.577343 -0.577349 0.577358
    outer loop
      vertex 59.7 -69.0773 108.977
      vertex 49.7226 -59.1 108.977
      vertex 49.7226 -78.9 89.1773
    endloop
  endfacet
  facet normal -0.572844 -0.581849 0.577323
    outer loop
      vertex 59.7 -78.9 99.0773
      vertex 59.7 -69.0773 108.977
      vertex 49.7226 -78.9 89.1773
    endloop
  endfacet
  facet normal -0.578847 -0.578847 0.574345
    outer loop
      vertex 69.5227 -78.9 108.977
      vertex 59.7 -69.0773 108.977
      vertex 59.7 -78.9 99.0773
    endloop
  endfacet
  facet normal -0.574379 0.57883 0.57883
    outer loop
      vertex 39.0938 -50 89.1773
      vertex 39.9 -59.1 99.0773
      vertex 39.9 -50 89.9773
    endloop
  endfacet
  facet normal -0.574356 0.578843 0.57884
    outer loop
      vertex 39.9 -59.1 99.0773
      vertex 39.0938 -50 89.1773
      vertex 29.9227 -59.1 89.1773
    endloop
  endfacet
  facet normal -0.580374 0.575833 0.575833
    outer loop
      vertex 44.4144 -50 94.5273
      vertex 39.9 -50 89.9773
      vertex 39.9 -59.1 99.0773
    endloop
  endfacet
  facet normal -0.58037 0.575833 0.575836
    outer loop
      vertex 39.9 -59.1 99.0773
      vertex 49.7226 -50 99.8773
      vertex 44.4144 -50 94.5273
    endloop
  endfacet
  facet normal -0.580366 0.575827 0.575846
    outer loop
      vertex 49.7226 -50 99.8773
      vertex 39.9 -59.1 99.0773
      vertex 49.7226 -59.1 108.977
    endloop
  endfacet
  facet normal -1 -0 -0
    outer loop
      vertex 49.7226 -50 108.977
      vertex 49.7226 -50 99.8773
      vertex 49.7226 -59.1 108.977
    endloop
  endfacet
  facet normal 0.577344 0.577344 0.577362
    outer loop
      vertex 99.3 -29.4 108.977
      vertex 99.3 -19.5 99.0773
      vertex 89.4 -19.5 108.977
    endloop
  endfacet
  facet normal 0.577344 0.577344 0.577362
    outer loop
      vertex 109.2 -39.3 108.977
      vertex 99.3 -19.5 99.0773
      vertex 99.3 -29.4 108.977
    endloop
  endfacet
  facet normal 0.577353 0.577344 0.577353
    outer loop
      vertex 109.2 -39.3 108.977
      vertex 109.2 -19.5 89.1773
      vertex 99.3 -19.5 99.0773
    endloop
  endfacet
  facet normal -0.574354 0.578844 0.578842
    outer loop
      vertex 50 0.0248 89.7277
      vertex 59.7 0.299999 99.0773
      vertex 50 0.299999 89.4525
    endloop
  endfacet
  facet normal -0.57436 0.578831 0.578848
    outer loop
      vertex 59.7 0.299999 99.0773
      vertex 50 0.0248 89.7277
      vertex 59.7 -9.6 108.977
    endloop
  endfacet
  facet normal -0.574352 0.578839 0.578848
    outer loop
      vertex 59.7 -9.6 108.977
      vertex 50 0.0248 89.7277
      vertex 50 -19.2248 108.977
    endloop
  endfacet
  facet normal -0 0.707096 0.707117
    outer loop
      vertex 59.7 0.299999 99.0773
      vertex 79.5 -9.6 108.977
      vertex 79.5 0.299999 99.0773
    endloop
  endfacet
  facet normal 0 0.707096 0.707117
    outer loop
      vertex 79.5 -9.6 108.977
      vertex 59.7 0.299999 99.0773
      vertex 59.7 -9.6 108.977
    endloop
  endfacet
  facet normal 0.577344 0.577344 0.577362
    outer loop
      vertex 89.4 -19.5 108.977
      vertex 79.5 0.299999 99.0773
      vertex 79.5 -9.6 108.977
    endloop
  endfacet
  facet normal 0.577344 0.577344 0.577362
    outer loop
      vertex 89.4 -19.5 108.977
      vertex 99.3 -19.5 99.0773
      vertex 79.5 0.299999 99.0773
    endloop
  endfacet
  facet normal 0.57735 0.57735 0.57735
    outer loop
      vertex 99.3 -19.5 99.0773
      vertex 89.4 0.299999 89.1773
      vertex 79.5 0.299999 99.0773
    endloop
  endfacet
  facet normal 0.57735 0.57735 0.57735
    outer loop
      vertex 99.3 -19.5 99.0773
      vertex 99.3 -9.6 89.1773
      vertex 89.4 0.299999 89.1773
    endloop
  endfacet
  facet normal 0.57735 0.57735 0.57735
    outer loop
      vertex 109.2 -19.5 89.1773
      vertex 99.3 -9.6 89.1773
      vertex 99.3 -19.5 99.0773
    endloop
  endfacet
  facet normal -0.574355 0.578842 0.578842
    outer loop
      vertex 50 0.575198 89.1773
      vertex 59.7 0.299999 99.0773
      vertex 59.7 10.2 89.1773
    endloop
  endfacet
  facet normal -0.574354 0.578844 0.578842
    outer loop
      vertex 59.7 0.299999 99.0773
      vertex 50 0.575198 89.1773
      vertex 50 0.299999 89.4525
    endloop
  endfacet
  facet normal -0 0.707107 0.707107
    outer loop
      vertex 59.7 10.2 89.1773
      vertex 79.5 0.299999 99.0773
      vertex 79.5 10.2 89.1773
    endloop
  endfacet
  facet normal 0 0.707107 0.707107
    outer loop
      vertex 79.5 0.299999 99.0773
      vertex 59.7 10.2 89.1773
      vertex 59.7 0.299999 99.0773
    endloop
  endfacet
  facet normal 0.57735 0.57735 0.57735
    outer loop
      vertex 89.4 0.299999 89.1773
      vertex 79.5 10.2 89.1773
      vertex 79.5 0.299999 99.0773
    endloop
  endfacet
  facet normal -0.575838 -0.575861 0.58034
    outer loop
      vertex 99.3 -108.677 108.977
      vertex 99.3 -98.7 118.877
      vertex 89.3226 -98.7 108.977
    endloop
  endfacet
  facet normal 0.578836 -0.574368 0.578836
    outer loop
      vertex 109.2 -98.7 108.977
      vertex 99.3 -98.7 118.877
      vertex 99.3 -108.677 108.977
    endloop
  endfacet
  facet normal -0.575848 -0.575848 0.580344
    outer loop
      vertex 79.5 -88.8773 108.977
      vertex 79.5 -78.9 118.877
      vertex 69.5227 -78.9 108.977
    endloop
  endfacet
  facet normal -0.575848 -0.575842 0.58035
    outer loop
      vertex 89.3226 -98.7 108.977
      vertex 99.3 -98.7 118.877
      vertex 79.5 -88.8773 108.977
    endloop
  endfacet
  facet normal -0.575848 -0.575848 0.580344
    outer loop
      vertex 99.3 -98.7 118.877
      vertex 79.5 -78.9 118.877
      vertex 79.5 -88.8773 108.977
    endloop
  endfacet
  facet normal 0.707107 -0 0.707107
    outer loop
      vertex 99.3 -98.7 118.877
      vertex 109.2 -39.3 108.977
      vertex 99.3 -39.3 118.877
    endloop
  endfacet
  facet normal 0.707107 0 0.707107
    outer loop
      vertex 109.2 -39.3 108.977
      vertex 99.3 -98.7 118.877
      vertex 109.2 -98.7 108.977
    endloop
  endfacet
  facet normal -0.575844 -0.57585 0.580346
    outer loop
      vertex 59.7 -69.0773 108.977
      vertex 59.7 -59.1 118.877
      vertex 49.7226 -59.1 108.977
    endloop
  endfacet
  facet normal -0.575848 -0.575848 0.580344
    outer loop
      vertex 69.5227 -78.9 108.977
      vertex 79.5 -78.9 118.877
      vertex 59.7 -69.0773 108.977
    endloop
  endfacet
  facet normal -0.575848 -0.575848 0.580344
    outer loop
      vertex 79.5 -78.9 118.877
      vertex 59.7 -59.1 118.877
      vertex 59.7 -69.0773 108.977
    endloop
  endfacet
  facet normal 0 0 1
    outer loop
      vertex 59.7 -59.1 118.877
      vertex 99.3 -39.3 118.877
      vertex 79.5 -19.5 118.877
    endloop
  endfacet
  facet normal 0 0 1
    outer loop
      vertex 99.3 -39.3 118.877
      vertex 79.5 -78.9 118.877
      vertex 99.3 -98.7 118.877
    endloop
  endfacet
  facet normal 0 0 1
    outer loop
      vertex 59.7 -59.1 118.877
      vertex 79.5 -19.5 118.877
      vertex 59.7 -19.5 118.877
    endloop
  endfacet
  facet normal 0 0 1
    outer loop
      vertex 99.3 -39.3 118.877
      vertex 59.7 -59.1 118.877
      vertex 79.5 -78.9 118.877
    endloop
  endfacet
  facet normal -0.70432 0 0.709882
    outer loop
      vertex 50 -50 109.253
      vertex 59.7 -19.5 118.877
      vertex 50 -19.5 109.253
    endloop
  endfacet
  facet normal -0.70432 0 0.709882
    outer loop
      vertex 59.7 -19.5 118.877
      vertex 50 -50 109.253
      vertex 59.7 -59.1 118.877
    endloop
  endfacet
  facet normal -0.705316 0 0.708893
    outer loop
      vertex 49.7226 -59.1 108.977
      vertex 50 -50 109.253
      vertex 49.7226 -50 108.977
    endloop
  endfacet
  facet normal -0.704348 -5.86558e-05 0.709855
    outer loop
      vertex 50 -50 109.253
      vertex 49.7226 -59.1 108.977
      vertex 59.7 -59.1 118.877
    endloop
  endfacet
  facet normal 0.57735 0.57735 0.57735
    outer loop
      vertex 99.3 -29.4 108.977
      vertex 89.4 -19.5 108.977
      vertex 79.5 -19.5 118.877
    endloop
  endfacet
  facet normal 0.57735 0.57735 0.57735
    outer loop
      vertex 99.3 -39.3 118.877
      vertex 99.3 -29.4 108.977
      vertex 79.5 -19.5 118.877
    endloop
  endfacet
  facet normal 0.57735 0.57735 0.57735
    outer loop
      vertex 109.2 -39.3 108.977
      vertex 99.3 -29.4 108.977
      vertex 99.3 -39.3 118.877
    endloop
  endfacet
  facet normal -0.574323 0.578858 0.578858
    outer loop
      vertex 59.7 -9.6 108.977
      vertex 50 -19.5 109.253
      vertex 59.7 -19.5 118.877
    endloop
  endfacet
  facet normal -0.574913 0.579404 0.577725
    outer loop
      vertex 50 -19.5 109.253
      vertex 59.7 -9.6 108.977
      vertex 50 -19.2248 108.977
    endloop
  endfacet
  facet normal 0 0.707107 0.707107
    outer loop
      vertex 79.5 -9.6 108.977
      vertex 59.7 -19.5 118.877
      vertex 79.5 -19.5 118.877
    endloop
  endfacet
  facet normal 0 0.707107 0.707107
    outer loop
      vertex 59.7 -19.5 118.877
      vertex 79.5 -9.6 108.977
      vertex 59.7 -9.6 108.977
    endloop
  endfacet
  facet normal 0.57735 0.57735 0.57735
    outer loop
      vertex 89.4 -19.5 108.977
      vertex 79.5 -9.6 108.977
      vertex 79.5 -19.5 118.877
    endloop
  endfacet
  facet normal -1 0 0
    outer loop
      vertex 50 50 0.9
      vertex 50 49.6 19.8773
      vertex 50 50 19.8773
    endloop
  endfacet
  facet normal -1 0 0
    outer loop
      vertex 50 48.7 0.9
      vertex 50 49.6 19.8773
      vertex 50 50 0.9
    endloop
  endfacet
  facet normal -1 0 0
    outer loop
      vertex 50 39.9 10.2525
      vertex 50 48.7 0.9
      vertex 50 39.9 9.69999
    endloop
  endfacet
  facet normal -1 0 0
    outer loop
      vertex 50 48.7 0.9
      vertex 50 39.9 10.2525
      vertex 50 49.6 19.8773
    endloop
  endfacet
  facet normal -1 0 0
    outer loop
      vertex 50 39.9 9.69999
      vertex 50 0.299999 10.2525
      vertex 50 39.9 10.2525
    endloop
  endfacet
  facet normal -1 0 0
    outer loop
      vertex 50 0.0248 89.7277
      vertex 50 -50 109.253
      vertex 50 -19.2248 108.977
    endloop
  endfacet
  facet normal -1 0 0
    outer loop
      vertex 50 -39.3 9.69999
      vertex 50 0.299999 10.2525
      vertex 50 39.9 9.69999
    endloop
  endfacet
  facet normal -1 0 0
    outer loop
      vertex 50 -39.3 9.69999
      vertex 50 0.0248 10.5277
      vertex 50 0.299999 10.2525
    endloop
  endfacet
  facet normal -1 0 0
    outer loop
      vertex 50 -39.3 9.69999
      vertex 50 -19.2248 29.7773
      vertex 50 0.0248 10.5277
    endloop
  endfacet
  facet normal -1 0 0
    outer loop
      vertex 50 -50 109.253
      vertex 50 -19.2248 29.7773
      vertex 50 -39.3 9.69999
    endloop
  endfacet
  facet normal -1 0 0
    outer loop
      vertex 50 -50 0.9
      vertex 50 -39.3 9.69999
      vertex 50 -44.15 4.88789
    endloop
  endfacet
  facet normal -1 0 0
    outer loop
      vertex 50 -50 0.9
      vertex 50 -44.15 4.88789
      vertex 50 -48.107 0.9
    endloop
  endfacet
  facet normal -1 -0 0
    outer loop
      vertex 50 -39.3 9.69999
      vertex 50 -50 0.9
      vertex 50 -50 109.253
    endloop
  endfacet
  facet normal -1 0 0
    outer loop
      vertex 50 -19.2248 108.977
      vertex 50 -50 109.253
      vertex 50 -19.5 109.253
    endloop
  endfacet
  facet normal -1 0 0
    outer loop
      vertex 50 0.299999 49.3
      vertex 50 0.575198 89.1773
      vertex 50 0.575198 49.5773
    endloop
  endfacet
  facet normal -1 0 0
    outer loop
      vertex 50 0.299999 49.3
      vertex 50 0.299999 89.4525
      vertex 50 0.575198 89.1773
    endloop
  endfacet
  facet normal -1 0 0
    outer loop
      vertex 50 0.299999 49.3
      vertex 50 0.0248 89.7277
      vertex 50 0.299999 89.4525
    endloop
  endfacet
  facet normal -1 0 0
    outer loop
      vertex 50 -50 109.253
      vertex 50 0.299999 49.3
      vertex 50 -18.9496 30.0504
    endloop
  endfacet
  facet normal -1 0 0
    outer loop
      vertex 50 -50 109.253
      vertex 50 -18.9496 30.0504
      vertex 50 -19.2248 29.7773
    endloop
  endfacet
  facet normal -1 0 0
    outer loop
      vertex 50 0.299999 49.3
      vertex 50 -50 109.253
      vertex 50 0.0248 89.7277
    endloop
  endfacet
  facet normal 1 0 0
    outer loop
      vertex -50 44.4144 4.58555
      vertex -50 50 19.8773
      vertex -50 49 19.8773
    endloop
  endfacet
  facet normal 1 0 0
    outer loop
      vertex -50 50 19.8773
      vertex -50 44.4144 4.58555
      vertex -50 50 0.9
    endloop
  endfacet
  facet normal 1 0 0
    outer loop
      vertex -50 50 0.9
      vertex -50 44.4144 4.58555
      vertex -50 48.1 0.9
    endloop
  endfacet
  facet normal 1 -0 0
    outer loop
      vertex -50 39.9 10.7773
      vertex -50 44.4144 4.58555
      vertex -50 49 19.8773
    endloop
  endfacet
  facet normal 1 0 0
    outer loop
      vertex -50 39.9 10.7773
      vertex -50 39.9 9.1711
      vertex -50 44.4144 4.58555
    endloop
  endfacet
  facet normal 1 -0 0
    outer loop
      vertex -50 -39.3 10.7773
      vertex -50 39.9 9.1711
      vertex -50 39.9 10.7773
    endloop
  endfacet
  facet normal 1 0 0
    outer loop
      vertex -50 -39.3 10.7773
      vertex -50 -39.3 9.1711
      vertex -50 39.9 9.1711
    endloop
  endfacet
  facet normal 1 0 0
    outer loop
      vertex -50 -39.3 10.7773
      vertex -50 -47.507 0.9
      vertex -50 -39.3 9.1711
    endloop
  endfacet
  facet normal 1 0 0
    outer loop
      vertex -50 -48.4 19.8773
      vertex -50 -47.507 0.9
      vertex -50 -39.3 10.7773
    endloop
  endfacet
  facet normal 1 0 0
    outer loop
      vertex -50 -50 0.9
      vertex -50 -48.4 19.8773
      vertex -50 -50 19.8773
    endloop
  endfacet
  facet normal 1 0 0
    outer loop
      vertex -50 -48.4 19.8773
      vertex -50 -50 0.9
      vertex -50 -47.507 0.9
    endloop
  endfacet
  facet normal 0 -1 0
    outer loop
      vertex -50 50 19.8773
      vertex -44.15 50 15.0273
      vertex -49 50 19.8773
    endloop
  endfacet
  facet normal 0 -1 0
    outer loop
      vertex -50 50 0.9
      vertex -44.15 50 15.0273
      vertex -50 50 19.8773
    endloop
  endfacet
  facet normal 0 -1 0
    outer loop
      vertex -39.3 50 10.2525
      vertex -39.3 50 9.69999
      vertex 39.9 50 10.2525
    endloop
  endfacet
  facet normal -0 -1 0
    outer loop
      vertex -39.3 50 9.69999
      vertex -44.15 50 15.0273
      vertex -48.1 50 0.9
    endloop
  endfacet
  facet normal 0 -1 0
    outer loop
      vertex -44.15 50 15.0273
      vertex -50 50 0.9
      vertex -48.1 50 0.9
    endloop
  endfacet
  facet normal 0 -1 0
    outer loop
      vertex -44.15 50 15.0273
      vertex -39.3 50 9.69999
      vertex -39.3 50 10.2525
    endloop
  endfacet
  facet normal 0 -1 0
    outer loop
      vertex 48.7 50 0.9
      vertex 49.6 50 19.8773
      vertex 39.9 50 10.2525
    endloop
  endfacet
  facet normal 0 -1 0
    outer loop
      vertex 39.9 50 9.69999
      vertex 39.9 50 10.2525
      vertex -39.3 50 9.69999
    endloop
  endfacet
  facet normal 0 -1 0
    outer loop
      vertex 48.7 50 0.9
      vertex 39.9 50 10.2525
      vertex 39.9 50 9.69999
    endloop
  endfacet
  facet normal 0 -1 0
    outer loop
      vertex 50 50 0.9
      vertex 49.6 50 19.8773
      vertex 48.7 50 0.9
    endloop
  endfacet
  facet normal 0 -1 0
    outer loop
      vertex 49.6 50 19.8773
      vertex 50 50 0.9
      vertex 50 50 19.8773
    endloop
  endfacet
  facet normal 0 1 0
    outer loop
      vertex 50 -50 109.253
      vertex 49.7226 -50 99.8773
      vertex 49.7226 -50 108.977
    endloop
  endfacet
  facet normal 0 1 0
    outer loop
      vertex 39.0938 -50 29.7773
      vertex 44.4144 -50 94.5273
      vertex 49.7226 -50 99.8773
    endloop
  endfacet
  facet normal 0 1 0
    outer loop
      vertex 39.9 -50 89.9773
      vertex 39.0938 -50 29.7773
      vertex 39.0938 -50 89.1773
    endloop
  endfacet
  facet normal 0 1 0
    outer loop
      vertex 44.4144 -50 94.5273
      vertex 39.0938 -50 29.7773
      vertex 39.9 -50 89.9773
    endloop
  endfacet
  facet normal 0 1 0
    outer loop
      vertex -39.3 -50 9.1711
      vertex 20.1 -50 10.7773
      vertex 39.9 -50 9.1711
    endloop
  endfacet
  facet normal 0 1 0
    outer loop
      vertex 38.3 -50 28.9773
      vertex 39.9 -50 9.1711
      vertex 20.1 -50 10.7773
    endloop
  endfacet
  facet normal 0 1 0
    outer loop
      vertex 39.0938 -50 29.7773
      vertex 39.9 -50 9.1711
      vertex 38.3 -50 28.9773
    endloop
  endfacet
  facet normal 0 1 0
    outer loop
      vertex 50 -50 0.9
      vertex 39.0938 -50 29.7773
      vertex 49.7226 -50 99.8773
    endloop
  endfacet
  facet normal 0 1 -0
    outer loop
      vertex 50 -50 0.9
      vertex 49.7226 -50 99.8773
      vertex 50 -50 109.253
    endloop
  endfacet
  facet normal 0 1 0
    outer loop
      vertex 39.0938 -50 29.7773
      vertex 50 -50 0.9
      vertex 39.9 -50 9.1711
    endloop
  endfacet
  facet normal 0 1 0
    outer loop
      vertex 39.9 -50 9.1711
      vertex 50 -50 0.9
      vertex 48.107 -50 0.9
    endloop
  endfacet
  facet normal 0 1 0
    outer loop
      vertex -50 -50 0.9
      vertex -48.4 -50 19.8773
      vertex -39.3 -50 10.7773
    endloop
  endfacet
  facet normal 0 1 0
    outer loop
      vertex 20.1 -50 10.7773
      vertex -39.3 -50 9.1711
      vertex -39.3 -50 10.7773
    endloop
  endfacet
  facet normal 0 1 0
    outer loop
      vertex -47.507 -50 0.9
      vertex -39.3 -50 10.7773
      vertex -39.3 -50 9.1711
    endloop
  endfacet
  facet normal 0 1 0
    outer loop
      vertex -50 -50 0.9
      vertex -39.3 -50 10.7773
      vertex -47.507 -50 0.9
    endloop
  endfacet
  facet normal 0 1 0
    outer loop
      vertex -48.4 -50 19.8773
      vertex -50 -50 0.9
      vertex -50 -50 19.8773
    endloop
  endfacet
endsolid OpenSCAD_Model
