solid OpenSCAD_Model
  facet normal -0 0 -1
    outer loop
      vertex -50 48.1 0.9
      vertex -57.314 40.786 0.9
      vertex -50 50 0.9
    endloop
  endfacet
  facet normal 0 0 -1
    outer loop
      vertex 50 -50 0.9
      vertex 100.193 -98.7 0.9
      vertex 99.3 -99.6 0.9
    endloop
  endfacet
  facet normal 0 0 -1
    outer loop
      vertex 100.193 -98.7 0.9
      vertex 79.5 40.793 0.9
      vertex 100.193 59.7 0.9
    endloop
  endfacet
  facet normal 0 0 -1
    outer loop
      vertex 100.193 59.7 0.9
      vertex 98.4 59.7 0.9
      vertex 99.3 60.593 0.9
    endloop
  endfacet
  facet normal -0 0 -1
    outer loop
      vertex 100.193 59.7 0.9
      vertex 97.5139 58.807 0.9
      vertex 98.4 59.7 0.9
    endloop
  endfacet
  facet normal 0 0 -1
    outer loop
      vertex 100.193 59.7 0.9
      vertex 79.5 40.793 0.9
      vertex 97.5139 58.807 0.9
    endloop
  endfacet
  facet normal 0 0 -1
    outer loop
      vertex 100.193 -98.7 0.9
      vertex 58.8 -39.3 0.9
      vertex 79.5 40.793 0.9
    endloop
  endfacet
  facet normal 0 0 -1
    outer loop
      vertex 58.8 39.9 0.9
      vertex 79.5 40.793 0.9
      vertex 58.8 -39.3 0.9
    endloop
  endfacet
  facet normal -0 0 -1
    outer loop
      vertex 78.607 41.686 0.9
      vertex 58.8 39.9 0.9
      vertex 60.593 59.7 0.9
    endloop
  endfacet
  facet normal -0 0 -1
    outer loop
      vertex 79.5 40.793 0.9
      vertex 58.8 39.9 0.9
      vertex 78.607 41.686 0.9
    endloop
  endfacet
  facet normal 0 0 -1
    outer loop
      vertex 100.193 -98.7 0.9
      vertex 57.914 -40.193 0.9
      vertex 58.8 -39.3 0.9
    endloop
  endfacet
  facet normal 0 0 -1
    outer loop
      vertex 100.193 -98.7 0.9
      vertex 50 -50 0.9
      vertex 57.914 -40.193 0.9
    endloop
  endfacet
  facet normal 0 0 -1
    outer loop
      vertex 39.9 -58.207 0.9
      vertex 50 -50 0.9
      vertex 99.3 -99.6 0.9
    endloop
  endfacet
  facet normal -0 0 -1
    outer loop
      vertex 50 -50 0.9
      vertex 39.9 -58.207 0.9
      vertex 48.107 -50 0.9
    endloop
  endfacet
  facet normal 0 0 -1
    outer loop
      vertex -19.5 -99.6 0.9
      vertex 39.9 -58.207 0.9
      vertex 99.3 -99.6 0.9
    endloop
  endfacet
  facet normal 0 0 -1
    outer loop
      vertex -20.4 -78.9 0.9
      vertex -19.5 -99.6 0.9
      vertex -20.4 -98.7 0.9
    endloop
  endfacet
  facet normal 0 0 -1
    outer loop
      vertex -19.5 -99.6 0.9
      vertex -20.4 -78.9 0.9
      vertex 39.9 -58.207 0.9
    endloop
  endfacet
  facet normal 0 0 -1
    outer loop
      vertex -39.3 -58.207 0.9
      vertex -20.4 -78.9 0.9
      vertex -38.414 -60.886 0.9
    endloop
  endfacet
  facet normal 0 0 -1
    outer loop
      vertex -39.3 -58.207 0.9
      vertex -38.414 -60.886 0.9
      vertex -39.3 -60 0.9
    endloop
  endfacet
  facet normal 0 0 -1
    outer loop
      vertex -20.4 -78.9 0.9
      vertex -39.3 -58.207 0.9
      vertex 39.9 -58.207 0.9
    endloop
  endfacet
  facet normal 0 0 -1
    outer loop
      vertex -39.3 -60 0.9
      vertex -47.507 -50 0.9
      vertex -39.3 -58.207 0.9
    endloop
  endfacet
  facet normal 0 0 -1
    outer loop
      vertex -39.3 -60 0.9
      vertex -50 -50 0.9
      vertex -47.507 -50 0.9
    endloop
  endfacet
  facet normal 0 0 -1
    outer loop
      vertex -50 -50 0.9
      vertex -58.207 -39.3 0.9
      vertex -50 -47.507 0.9
    endloop
  endfacet
  facet normal -0 0 -1
    outer loop
      vertex -50 -50 0.9
      vertex -60 -59.1 0.9
      vertex -58.207 -39.3 0.9
    endloop
  endfacet
  facet normal 0 0 -1
    outer loop
      vertex -60 -59.1 0.9
      vertex -50 -50 0.9
      vertex -59.1 -60 0.9
    endloop
  endfacet
  facet normal 0 0 -1
    outer loop
      vertex -59.1 -60 0.9
      vertex -50 -50 0.9
      vertex -39.3 -60 0.9
    endloop
  endfacet
  facet normal 0 0 -1
    outer loop
      vertex 50 50 0.9
      vertex 60.593 59.7 0.9
      vertex 58.8 39.9 0.9
    endloop
  endfacet
  facet normal 0 0 -1
    outer loop
      vertex 50 50 0.9
      vertex 58.8 39.9 0.9
      vertex 50 48.7 0.9
    endloop
  endfacet
  facet normal -0 0 -1
    outer loop
      vertex 60.593 59.7 0.9
      vertex 50 50 0.9
      vertex 59.7 60.593 0.9
    endloop
  endfacet
  facet normal 0 0 -1
    outer loop
      vertex 39.9 58.8 0.9
      vertex 50 50 0.9
      vertex 48.7 50 0.9
    endloop
  endfacet
  facet normal 0 0 -1
    outer loop
      vertex 50 50 0.9
      vertex 39.9 58.8 0.9
      vertex 59.7 60.593 0.9
    endloop
  endfacet
  facet normal 0 0 -1
    outer loop
      vertex -39.3 58.8 0.9
      vertex 59.7 60.593 0.9
      vertex 39.9 58.8 0.9
    endloop
  endfacet
  facet normal 0 0 -1
    outer loop
      vertex -50 50 0.9
      vertex -39.3 58.8 0.9
      vertex -48.1 50 0.9
    endloop
  endfacet
  facet normal 0 0 -1
    outer loop
      vertex -60 59.7 0.9
      vertex -57.314 40.786 0.9
      vertex -58.207 39.9 0.9
    endloop
  endfacet
  facet normal 0 0 -1
    outer loop
      vertex -39.3 58.8 0.9
      vertex -59.1 60.593 0.9
      vertex 59.7 60.593 0.9
    endloop
  endfacet
  facet normal 0 0 -1
    outer loop
      vertex -50 50 0.9
      vertex -59.1 60.593 0.9
      vertex -39.3 58.8 0.9
    endloop
  endfacet
  facet normal 0 0 -1
    outer loop
      vertex -57.314 40.786 0.9
      vertex -60 59.7 0.9
      vertex -50 50 0.9
    endloop
  endfacet
  facet normal -0 0 -1
    outer loop
      vertex -58.207 -39.3 0.9
      vertex -60 -59.1 0.9
      vertex -58.207 39.9 0.9
    endloop
  endfacet
  facet normal 0 0 -1
    outer loop
      vertex -60 59.7 0.9
      vertex -58.207 39.9 0.9
      vertex -60 -59.1 0.9
    endloop
  endfacet
  facet normal 0 0 -1
    outer loop
      vertex -50 50 0.9
      vertex -60 59.7 0.9
      vertex -59.1 60.593 0.9
    endloop
  endfacet
  facet normal 0 0 -1
    outer loop
      vertex 57.914 -40.193 0.9
      vertex 50 -50 0.9
      vertex 50 -48.107 0.9
    endloop
  endfacet
  facet normal -0.577351 -0.577351 -0.577349
    outer loop
      vertex -19.5 -99.6 0.9
      vertex -29.4773 -98.7 9.97734
      vertex -20.4 -98.7 0.9
    endloop
  endfacet
  facet normal -0.577346 -0.577363 -0.577342
    outer loop
      vertex -29.4773 -98.7 9.97734
      vertex -19.5 -99.6 0.9
      vertex -19.5 -108.677 9.97734
    endloop
  endfacet
  facet normal 0 -0.70712 -0.707094
    outer loop
      vertex -19.5 -108.677 9.97734
      vertex 99.3 -99.6 0.9
      vertex 99.3 -108.677 9.97734
    endloop
  endfacet
  facet normal -0 -0.70712 -0.707094
    outer loop
      vertex 99.3 -99.6 0.9
      vertex -19.5 -108.677 9.97734
      vertex -19.5 -99.6 0.9
    endloop
  endfacet
  facet normal 0.58035 -0.575836 -0.575853
    outer loop
      vertex 109.2 -98.7 9.97734
      vertex 99.3 -99.6 0.9
      vertex 100.193 -98.7 0.9
    endloop
  endfacet
  facet normal 0.58034 -0.575861 -0.575839
    outer loop
      vertex 99.3 -99.6 0.9
      vertex 109.2 -98.7 9.97734
      vertex 99.3 -108.677 9.97734
    endloop
  endfacet
  facet normal -0.707108 0 -0.707105
    outer loop
      vertex -20.4 -98.7 0.9
      vertex -29.4773 -78.9 9.97734
      vertex -20.4 -78.9 0.9
    endloop
  endfacet
  facet normal -0.707108 -0 -0.707105
    outer loop
      vertex -29.4773 -78.9 9.97734
      vertex -20.4 -98.7 0.9
      vertex -29.4773 -98.7 9.97734
    endloop
  endfacet
  facet normal 0.709852 0 -0.704351
    outer loop
      vertex 109.2 -98.7 9.97734
      vertex 100.193 59.7 0.9
      vertex 109.2 59.7 9.97734
    endloop
  endfacet
  facet normal 0.709852 0 -0.704351
    outer loop
      vertex 100.193 59.7 0.9
      vertex 109.2 -98.7 9.97734
      vertex 100.193 -98.7 0.9
    endloop
  endfacet
  facet normal -0.577351 -0.577351 -0.577349
    outer loop
      vertex -59.1 -69.0773 9.97734
      vertex -60 -59.1 0.9
      vertex -59.1 -60 0.9
    endloop
  endfacet
  facet normal -0.577351 -0.577351 -0.577349
    outer loop
      vertex -60 -59.1 0.9
      vertex -59.1 -69.0773 9.97734
      vertex -69.0773 -59.1 9.97734
    endloop
  endfacet
  facet normal 0 -0.707108 -0.707105
    outer loop
      vertex -59.1 -69.0773 9.97734
      vertex -39.3 -60 0.9
      vertex -39.3 -69.0773 9.97734
    endloop
  endfacet
  facet normal -0 -0.707108 -0.707105
    outer loop
      vertex -39.3 -60 0.9
      vertex -59.1 -69.0773 9.97734
      vertex -59.1 -60 0.9
    endloop
  endfacet
  facet normal -0.577351 -0.577351 -0.577349
    outer loop
      vertex -39.3 -69.0773 9.97734
      vertex -38.414 -60.886 0.9
      vertex -29.4773 -78.9 9.97734
    endloop
  endfacet
  facet normal -0.577351 -0.577351 -0.577349
    outer loop
      vertex -38.414 -60.886 0.9
      vertex -39.3 -69.0773 9.97734
      vertex -39.3 -60 0.9
    endloop
  endfacet
  facet normal -0.577351 -0.577351 -0.577349
    outer loop
      vertex -20.4 -78.9 0.9
      vertex -29.4773 -78.9 9.97734
      vertex -38.414 -60.886 0.9
    endloop
  endfacet
  facet normal -0.707108 0 -0.707105
    outer loop
      vertex -69.0773 -59.1 9.97734
      vertex -60 59.7 0.9
      vertex -60 -59.1 0.9
    endloop
  endfacet
  facet normal -0.707108 0 -0.707105
    outer loop
      vertex -60 59.7 0.9
      vertex -69.0773 -59.1 9.97734
      vertex -69.0773 59.7 9.97734
    endloop
  endfacet
  facet normal 0.578842 0.578842 -0.574356
    outer loop
      vertex -50 -39.3 9.1711
      vertex -50 -47.507 0.9
      vertex -58.207 -39.3 0.9
    endloop
  endfacet
  facet normal 0.578842 0.578842 -0.574356
    outer loop
      vertex -39.3 -50 9.1711
      vertex -39.3 -58.207 0.9
      vertex -47.507 -50 0.9
    endloop
  endfacet
  facet normal 0 0.709852 -0.704351
    outer loop
      vertex 39.9 -58.207 0.9
      vertex -39.3 -50 9.1711
      vertex 39.9 -50 9.1711
    endloop
  endfacet
  facet normal 0 0.709852 -0.704351
    outer loop
      vertex -39.3 -50 9.1711
      vertex 39.9 -58.207 0.9
      vertex -39.3 -58.207 0.9
    endloop
  endfacet
  facet normal -0.578853 0.574331 -0.578855
    outer loop
      vertex 50 -39.3 9.69999
      vertex 57.914 -40.193 0.9
      vertex 50 -44.15 4.88789
    endloop
  endfacet
  facet normal -0.578859 0.574321 -0.578859
    outer loop
      vertex 57.914 -40.193 0.9
      vertex 50 -39.3 9.69999
      vertex 58.8 -39.3 0.9
    endloop
  endfacet
  facet normal -0.578842 0.578842 -0.574356
    outer loop
      vertex 39.9 -50 9.1711
      vertex 48.107 -50 0.9
      vertex 39.9 -58.207 0.9
    endloop
  endfacet
  facet normal -0.578841 0.578841 -0.574357
    outer loop
      vertex 50 -44.15 4.88789
      vertex 57.914 -40.193 0.9
      vertex 50 -48.107 0.9
    endloop
  endfacet
  facet normal 0.709852 0 -0.704351
    outer loop
      vertex -50 -39.3 9.1711
      vertex -58.207 39.9 0.9
      vertex -50 39.9 9.1711
    endloop
  endfacet
  facet normal 0.709852 0 -0.704351
    outer loop
      vertex -58.207 39.9 0.9
      vertex -50 -39.3 9.1711
      vertex -58.207 -39.3 0.9
    endloop
  endfacet
  facet normal -0.707106 0 -0.707107
    outer loop
      vertex 50 -39.3 9.69999
      vertex 58.8 39.9 0.9
      vertex 58.8 -39.3 0.9
    endloop
  endfacet
  facet normal -0.707106 0 -0.707107
    outer loop
      vertex 58.8 39.9 0.9
      vertex 50 -39.3 9.69999
      vertex 50 39.9 9.69999
    endloop
  endfacet
  facet normal 0.577309 -0.581871 -0.572835
    outer loop
      vertex -57.314 40.786 0.9
      vertex -50 39.9 9.1711
      vertex -58.207 39.9 0.9
    endloop
  endfacet
  facet normal 0.577312 -0.581866 -0.572837
    outer loop
      vertex -50 39.9 9.1711
      vertex -57.314 40.786 0.9
      vertex -50 44.4144 4.58555
    endloop
  endfacet
  facet normal 0.577348 -0.577348 -0.577355
    outer loop
      vertex -50 48.1 0.9
      vertex -50 44.4144 4.58555
      vertex -57.314 40.786 0.9
    endloop
  endfacet
  facet normal 0.57735 -0.57735 -0.577351
    outer loop
      vertex -39.3 58.8 0.9
      vertex -39.3 50 9.69999
      vertex -48.1 50 0.9
    endloop
  endfacet
  facet normal 0 -0.707106 -0.707107
    outer loop
      vertex -39.3 50 9.69999
      vertex 39.9 58.8 0.9
      vertex 39.9 50 9.69999
    endloop
  endfacet
  facet normal -0 -0.707106 -0.707107
    outer loop
      vertex 39.9 58.8 0.9
      vertex -39.3 50 9.69999
      vertex -39.3 58.8 0.9
    endloop
  endfacet
  facet normal -0.57735 -0.57735 -0.577351
    outer loop
      vertex 39.9 58.8 0.9
      vertex 48.7 50 0.9
      vertex 39.9 50 9.69999
    endloop
  endfacet
  facet normal -0.57735 -0.57735 -0.577351
    outer loop
      vertex 50 48.7 0.9
      vertex 58.8 39.9 0.9
      vertex 50 39.9 9.69999
    endloop
  endfacet
  facet normal 0.578842 0.578842 -0.574356
    outer loop
      vertex 78.607 41.686 0.9
      vertex 79.5 49.8 9.97734
      vertex 79.5 40.793 0.9
    endloop
  endfacet
  facet normal 0.578842 0.578842 -0.574356
    outer loop
      vertex 79.5 49.8 9.97734
      vertex 78.607 41.686 0.9
      vertex 69.6 59.7 9.97734
    endloop
  endfacet
  facet normal 0.578842 0.578842 -0.574356
    outer loop
      vertex 69.6 59.7 9.97734
      vertex 78.607 41.686 0.9
      vertex 60.593 59.7 0.9
    endloop
  endfacet
  facet normal -0.578836 0.574363 -0.57884
    outer loop
      vertex 97.5139 58.807 0.9
      vertex 89.3226 59.7 9.97734
      vertex 98.4 59.7 0.9
    endloop
  endfacet
  facet normal -0.578855 0.57433 -0.578854
    outer loop
      vertex 89.3226 59.7 9.97734
      vertex 97.5139 58.807 0.9
      vertex 79.5 49.8 9.97734
    endloop
  endfacet
  facet normal -0.578844 0.57884 -0.574355
    outer loop
      vertex 79.5 49.8 9.97734
      vertex 97.5139 58.807 0.9
      vertex 79.5 40.793 0.9
    endloop
  endfacet
  facet normal -0.575836 0.58035 -0.575853
    outer loop
      vertex -60 59.7 0.9
      vertex -59.1 69.6 9.97734
      vertex -59.1 60.593 0.9
    endloop
  endfacet
  facet normal -0.575848 0.580345 -0.575846
    outer loop
      vertex -59.1 69.6 9.97734
      vertex -60 59.7 0.9
      vertex -69.0773 59.7 9.97734
    endloop
  endfacet
  facet normal 0 0.709852 -0.704351
    outer loop
      vertex 59.7 60.593 0.9
      vertex -59.1 69.6 9.97734
      vertex 59.7 69.6 9.97734
    endloop
  endfacet
  facet normal 0 0.709852 -0.704351
    outer loop
      vertex -59.1 69.6 9.97734
      vertex 59.7 60.593 0.9
      vertex -59.1 60.593 0.9
    endloop
  endfacet
  facet normal 0.578842 0.578842 -0.574356
    outer loop
      vertex 69.6 59.7 9.97734
      vertex 59.7 60.593 0.9
      vertex 59.7 69.6 9.97734
    endloop
  endfacet
  facet normal 0.578842 0.578842 -0.574356
    outer loop
      vertex 59.7 60.593 0.9
      vertex 69.6 59.7 9.97734
      vertex 60.593 59.7 0.9
    endloop
  endfacet
  facet normal -0.575836 0.58035 -0.575853
    outer loop
      vertex 98.4 59.7 0.9
      vertex 99.3 69.6 9.97734
      vertex 99.3 60.593 0.9
    endloop
  endfacet
  facet normal -0.575844 0.580346 -0.575848
    outer loop
      vertex 99.3 69.6 9.97734
      vertex 98.4 59.7 0.9
      vertex 89.3226 59.7 9.97734
    endloop
  endfacet
  facet normal 0.578842 0.578842 -0.574356
    outer loop
      vertex 100.193 59.7 0.9
      vertex 99.3 69.6 9.97734
      vertex 109.2 59.7 9.97734
    endloop
  endfacet
  facet normal 0.578842 0.578842 -0.574356
    outer loop
      vertex 99.3 69.6 9.97734
      vertex 100.193 59.7 0.9
      vertex 99.3 60.593 0.9
    endloop
  endfacet
  facet normal -0.707096 -0.707117 0
    outer loop
      vertex -19.5 -108.677 9.97734
      vertex -29.4773 -98.7 29.7773
      vertex -29.4773 -98.7 9.97734
    endloop
  endfacet
  facet normal -0.707096 -0.707117 0
    outer loop
      vertex -29.4773 -98.7 29.7773
      vertex -19.5 -108.677 9.97734
      vertex -19.5 -108.677 29.7773
    endloop
  endfacet
  facet normal 0.709841 -0.704362 0
    outer loop
      vertex 99.3 -108.677 108.977
      vertex 109.2 -98.7 9.97734
      vertex 109.2 -98.7 108.977
    endloop
  endfacet
  facet normal 0.709841 -0.704362 0
    outer loop
      vertex 109.2 -98.7 9.97734
      vertex 99.3 -108.677 108.977
      vertex 99.3 -108.677 9.97734
    endloop
  endfacet
  facet normal -1 0 0
    outer loop
      vertex -29.4773 -98.7 29.7773
      vertex -29.4773 -78.9 9.97734
      vertex -29.4773 -98.7 9.97734
    endloop
  endfacet
  facet normal -1 0 0
    outer loop
      vertex -29.4773 -78.9 9.97734
      vertex -29.4773 -98.7 29.7773
      vertex -29.4773 -78.9 49.5773
    endloop
  endfacet
  facet normal 1 -0 0
    outer loop
      vertex 109.2 -98.7 108.977
      vertex 109.2 59.7 9.97734
      vertex 109.2 59.7 108.977
    endloop
  endfacet
  facet normal 1 0 0
    outer loop
      vertex 109.2 59.7 9.97734
      vertex 109.2 -98.7 108.977
      vertex 109.2 -98.7 9.97734
    endloop
  endfacet
  facet normal -0.575847 -0.575847 0.580345
    outer loop
      vertex -59.1 -69.0773 9.97734
      vertex -59.1 -59.1 19.8773
      vertex -69.0773 -59.1 9.97734
    endloop
  endfacet
  facet normal 0 -0.70435 0.709853
    outer loop
      vertex -59.1 -59.1 19.8773
      vertex -39.3 -69.0773 9.97734
      vertex -39.3 -59.1 19.8773
    endloop
  endfacet
  facet normal 0 -0.70435 0.709853
    outer loop
      vertex -39.3 -69.0773 9.97734
      vertex -59.1 -59.1 19.8773
      vertex -59.1 -69.0773 9.97734
    endloop
  endfacet
  facet normal -0.704352 0.709851 0
    outer loop
      vertex -19.5 -69 29.7773
      vertex -29.4773 -78.9 49.5773
      vertex -19.5 -69 49.5773
    endloop
  endfacet
  facet normal -0.704352 0.709851 0
    outer loop
      vertex -29.4773 -78.9 49.5773
      vertex -19.5 -69 29.7773
      vertex -29.4773 -78.9 9.97734
    endloop
  endfacet
  facet normal -0.577349 -0.575846 0.578852
    outer loop
      vertex -29.4773 -78.9 9.97734
      vertex -19.5 -69 29.7773
      vertex -39.3 -59.1 19.8773
    endloop
  endfacet
  facet normal 0 0.707107 0.707107
    outer loop
      vertex -19.5 -69 29.7773
      vertex -19.5 -59.1 19.8773
      vertex -39.3 -59.1 19.8773
    endloop
  endfacet
  facet normal -0.575847 -0.575847 0.580345
    outer loop
      vertex -29.4773 -78.9 9.97734
      vertex -39.3 -59.1 19.8773
      vertex -39.3 -69.0773 9.97734
    endloop
  endfacet
  facet normal -0.580369 0.575835 0.575835
    outer loop
      vertex -9.67734 -59.1 29.7773
      vertex -19.5 -59.1 19.8773
      vertex -19.5 -69 29.7773
    endloop
  endfacet
  facet normal -0.70435 0 0.709853
    outer loop
      vertex -69.0773 59.7 9.97734
      vertex -59.1 39.9 19.8773
      vertex -59.1 59.7 19.8773
    endloop
  endfacet
  facet normal -0.70435 0 0.709853
    outer loop
      vertex -59.1 39.9 19.8773
      vertex -69.0773 59.7 9.97734
      vertex -59.1 -39.3 19.8773
    endloop
  endfacet
  facet normal -0.70435 0 0.709853
    outer loop
      vertex -69.0773 -59.1 9.97734
      vertex -59.1 -39.3 19.8773
      vertex -69.0773 59.7 9.97734
    endloop
  endfacet
  facet normal -0.70435 0 0.709853
    outer loop
      vertex -59.1 -39.3 19.8773
      vertex -69.0773 -59.1 9.97734
      vertex -59.1 -59.1 19.8773
    endloop
  endfacet
  facet normal 0.57735 0.57735 0.57735
    outer loop
      vertex -39.3 -59.1 19.8773
      vertex -39.3 -50 10.7773
      vertex -48.4 -50 19.8773
    endloop
  endfacet
  facet normal 0.57735 0.57735 0.57735
    outer loop
      vertex -50 -48.4 19.8773
      vertex -50 -39.3 10.7773
      vertex -59.1 -39.3 19.8773
    endloop
  endfacet
  facet normal 0 0 1
    outer loop
      vertex -50 -48.4 19.8773
      vertex -59.1 -39.3 19.8773
      vertex -50 -50 19.8773
    endloop
  endfacet
  facet normal -0 0 1
    outer loop
      vertex -50 -50 19.8773
      vertex -39.3 -59.1 19.8773
      vertex -48.4 -50 19.8773
    endloop
  endfacet
  facet normal 0 0 1
    outer loop
      vertex -50 -50 19.8773
      vertex -59.1 -59.1 19.8773
      vertex -39.3 -59.1 19.8773
    endloop
  endfacet
  facet normal 0 0 1
    outer loop
      vertex -59.1 -59.1 19.8773
      vertex -50 -50 19.8773
      vertex -59.1 -39.3 19.8773
    endloop
  endfacet
  facet normal 0 0.707107 0.707107
    outer loop
      vertex -19.5 -50 10.7773
      vertex -39.3 -59.1 19.8773
      vertex -19.5 -59.1 19.8773
    endloop
  endfacet
  facet normal 0 0.707107 0.707107
    outer loop
      vertex -39.3 -59.1 19.8773
      vertex -19.5 -50 10.7773
      vertex -39.3 -50 10.7773
    endloop
  endfacet
  facet normal -0.57734 0.581851 0.572825
    outer loop
      vertex -1.29999 -50 28.9773
      vertex -9.67734 -59.1 29.7773
      vertex -0.506247 -50 29.7773
    endloop
  endfacet
  facet normal -0.577338 0.581849 0.572828
    outer loop
      vertex -9.67734 -59.1 29.7773
      vertex -1.29999 -50 28.9773
      vertex -19.5 -59.1 19.8773
    endloop
  endfacet
  facet normal -0.57735 0.57735 0.57735
    outer loop
      vertex -1.29999 -50 28.9773
      vertex -19.5 -50 10.7773
      vertex -19.5 -59.1 19.8773
    endloop
  endfacet
  facet normal 0.707107 -0 0.707107
    outer loop
      vertex -59.1 -39.3 19.8773
      vertex -50 39.9 10.7773
      vertex -59.1 39.9 19.8773
    endloop
  endfacet
  facet normal 0.707107 0 0.707107
    outer loop
      vertex -50 39.9 10.7773
      vertex -59.1 -39.3 19.8773
      vertex -50 -39.3 10.7773
    endloop
  endfacet
  facet normal -0.574355 0.578842 0.578842
    outer loop
      vertex 59.7 39.9 19.8773
      vertex 50 39.6248 10.5277
      vertex 59.7 30 29.7773
    endloop
  endfacet
  facet normal -0.574355 0.578842 0.578842
    outer loop
      vertex 50 39.6248 10.5277
      vertex 59.7 39.9 19.8773
      vertex 50 39.9 10.2525
    endloop
  endfacet
  facet normal -0.574355 0.578842 0.578842
    outer loop
      vertex 59.7 30 29.7773
      vertex 50 39.6248 10.5277
      vertex 50 20.3752 29.7773
    endloop
  endfacet
  facet normal -0.580367 0.575836 0.575836
    outer loop
      vertex 69.5227 39.9 29.7773
      vertex 59.7 39.9 19.8773
      vertex 59.7 30 29.7773
    endloop
  endfacet
  facet normal 0.572828 -0.577339 0.581849
    outer loop
      vertex -39.3 50 10.2525
      vertex -39.3 59.7 19.8773
      vertex -44.15 50 15.0273
    endloop
  endfacet
  facet normal 0.57735 -0.57735 0.57735
    outer loop
      vertex -50 39.9 10.7773
      vertex -50 49 19.8773
      vertex -59.1 39.9 19.8773
    endloop
  endfacet
  facet normal 0.57735 -0.57735 0.57735
    outer loop
      vertex -44.15 50 15.0273
      vertex -39.3 59.7 19.8773
      vertex -49 50 19.8773
    endloop
  endfacet
  facet normal -0 0 1
    outer loop
      vertex -59.1 59.7 19.8773
      vertex -49 50 19.8773
      vertex -39.3 59.7 19.8773
    endloop
  endfacet
  facet normal 0 0 1
    outer loop
      vertex -49 50 19.8773
      vertex -59.1 59.7 19.8773
      vertex -50 50 19.8773
    endloop
  endfacet
  facet normal 0 0 1
    outer loop
      vertex -59.1 39.9 19.8773
      vertex -50 50 19.8773
      vertex -59.1 59.7 19.8773
    endloop
  endfacet
  facet normal 0 0 1
    outer loop
      vertex -50 50 19.8773
      vertex -59.1 39.9 19.8773
      vertex -50 49 19.8773
    endloop
  endfacet
  facet normal 0 -0.70435 0.709853
    outer loop
      vertex -39.3 59.7 19.8773
      vertex 39.9 50 10.2525
      vertex 39.9 59.7 19.8773
    endloop
  endfacet
  facet normal 0 -0.70435 0.709853
    outer loop
      vertex 39.9 50 10.2525
      vertex -39.3 59.7 19.8773
      vertex -39.3 50 10.2525
    endloop
  endfacet
  facet normal -0.575847 -0.575847 0.580346
    outer loop
      vertex 59.7 39.9 19.8773
      vertex 50 49.6 19.8773
      vertex 50 39.9 10.2525
    endloop
  endfacet
  facet normal -0.575847 -0.575847 0.580346
    outer loop
      vertex 49.6 50 19.8773
      vertex 39.9 59.7 19.8773
      vertex 39.9 50 10.2525
    endloop
  endfacet
  facet normal 0 0 1
    outer loop
      vertex 59.7 59.7 19.8773
      vertex 50 50 19.8773
      vertex 59.7 39.9 19.8773
    endloop
  endfacet
  facet normal 0 0 1
    outer loop
      vertex 59.7 59.7 19.8773
      vertex 49.6 50 19.8773
      vertex 50 50 19.8773
    endloop
  endfacet
  facet normal 0 -0 1
    outer loop
      vertex 49.6 50 19.8773
      vertex 59.7 59.7 19.8773
      vertex 39.9 59.7 19.8773
    endloop
  endfacet
  facet normal 0 0 1
    outer loop
      vertex 59.7 39.9 19.8773
      vertex 50 50 19.8773
      vertex 50 49.6 19.8773
    endloop
  endfacet
  facet normal 0.707107 0.707107 0
    outer loop
      vertex 79.5 49.8 29.7773
      vertex 79.5 49.8 9.97734
      vertex 69.6 59.7 9.97734
    endloop
  endfacet
  facet normal -0.57735 0.577349 0.577351
    outer loop
      vertex 79.5 49.8 29.7773
      vertex 69.6 59.7 9.97734
      vertex 59.7 39.9 19.8773
    endloop
  endfacet
  facet normal 0.707105 0 0.707108
    outer loop
      vertex 69.6 59.7 9.97734
      vertex 59.7 59.7 19.8773
      vertex 59.7 39.9 19.8773
    endloop
  endfacet
  facet normal -0.577339 0.581846 0.572831
    outer loop
      vertex 69.5227 39.9 29.7773
      vertex 79.5 49.8 29.7773
      vertex 59.7 39.9 19.8773
    endloop
  endfacet
  facet normal -0.709876 0.704326 0
    outer loop
      vertex 79.5 49.8 29.7773
      vertex 89.3226 59.7 9.97734
      vertex 79.5 49.8 9.97734
    endloop
  endfacet
  facet normal -0.709876 0.704326 0
    outer loop
      vertex 89.3226 59.7 9.97734
      vertex 79.5 49.8 29.7773
      vertex 89.3226 59.7 69.3773
    endloop
  endfacet
  facet normal -0.709876 0.704326 0
    outer loop
      vertex 79.5 49.8 49.5773
      vertex 89.3226 59.7 69.3773
      vertex 79.5 49.8 29.7773
    endloop
  endfacet
  facet normal -0.709876 0.704326 0
    outer loop
      vertex 89.3226 59.7 69.3773
      vertex 79.5 49.8 49.5773
      vertex 79.5 49.8 69.3773
    endloop
  endfacet
  facet normal -0.574356 0.57884 0.578843
    outer loop
      vertex -59.1 59.7 19.8773
      vertex -59.1 69.6 9.97734
      vertex -69.0773 59.7 9.97734
    endloop
  endfacet
  facet normal 0 0.707105 0.707108
    outer loop
      vertex 59.7 69.6 9.97734
      vertex 39.9 59.7 19.8773
      vertex 59.7 59.7 19.8773
    endloop
  endfacet
  facet normal 0 0.707105 0.707108
    outer loop
      vertex 39.9 59.7 19.8773
      vertex 59.7 69.6 9.97734
      vertex -39.3 59.7 19.8773
    endloop
  endfacet
  facet normal -0 0.707105 0.707108
    outer loop
      vertex -59.1 69.6 9.97734
      vertex -39.3 59.7 19.8773
      vertex 59.7 69.6 9.97734
    endloop
  endfacet
  facet normal 0 0.707105 0.707108
    outer loop
      vertex -39.3 59.7 19.8773
      vertex -59.1 69.6 9.97734
      vertex -59.1 59.7 19.8773
    endloop
  endfacet
  facet normal 0.577349 0.577349 0.577352
    outer loop
      vertex 69.6 59.7 9.97734
      vertex 59.7 69.6 9.97734
      vertex 59.7 59.7 19.8773
    endloop
  endfacet
  facet normal -0.704348 0.709855 0
    outer loop
      vertex 99.3 69.6 9.97734
      vertex 89.3226 59.7 69.3773
      vertex 99.3 69.6 69.3773
    endloop
  endfacet
  facet normal -0.704348 0.709855 0
    outer loop
      vertex 89.3226 59.7 69.3773
      vertex 99.3 69.6 9.97734
      vertex 89.3226 59.7 9.97734
    endloop
  endfacet
  facet normal 0.707107 0.707107 0
    outer loop
      vertex 109.2 59.7 108.977
      vertex 99.3 69.6 69.3773
      vertex 99.3 69.6 108.977
    endloop
  endfacet
  facet normal 0.707107 0.707107 -0
    outer loop
      vertex 109.2 59.7 9.97734
      vertex 99.3 69.6 69.3773
      vertex 109.2 59.7 108.977
    endloop
  endfacet
  facet normal 0.707107 0.707107 0
    outer loop
      vertex 99.3 69.6 69.3773
      vertex 109.2 59.7 9.97734
      vertex 99.3 69.6 9.97734
    endloop
  endfacet
  facet normal -0.577344 -0.577362 -0.577344
    outer loop
      vertex -39.3 -98.7 39.6
      vertex -39.3 -108.677 49.5773
      vertex -49.2773 -98.7 49.5773
    endloop
  endfacet
  facet normal -0.577344 -0.577362 -0.577344
    outer loop
      vertex -29.4773 -98.7 29.7773
      vertex -19.5 -108.677 29.7773
      vertex -39.3 -98.7 39.6
    endloop
  endfacet
  facet normal -0.577344 -0.577362 -0.577344
    outer loop
      vertex -39.3 -98.7 39.6
      vertex -19.5 -108.677 29.7773
      vertex -39.3 -108.677 49.5773
    endloop
  endfacet
  facet normal 0 -1 0
    outer loop
      vertex -19.5 -108.677 29.7773
      vertex -39.3 -108.677 108.977
      vertex -39.3 -108.677 49.5773
    endloop
  endfacet
  facet normal 0 -1 0
    outer loop
      vertex -39.3 -108.677 108.977
      vertex -19.5 -108.677 29.7773
      vertex 99.3 -108.677 108.977
    endloop
  endfacet
  facet normal 0 -1 0
    outer loop
      vertex 99.3 -108.677 9.97734
      vertex -19.5 -108.677 29.7773
      vertex -19.5 -108.677 9.97734
    endloop
  endfacet
  facet normal 0 -1 0
    outer loop
      vertex -19.5 -108.677 29.7773
      vertex 99.3 -108.677 9.97734
      vertex 99.3 -108.677 108.977
    endloop
  endfacet
  facet normal -0.575848 0.580344 -0.575848
    outer loop
      vertex -39.3 -88.8 49.5773
      vertex -39.3 -98.7 39.6
      vertex -49.2773 -98.7 49.5773
    endloop
  endfacet
  facet normal -0.575848 0.580344 -0.575848
    outer loop
      vertex -39.3 -88.8 49.5773
      vertex -29.4773 -98.7 29.7773
      vertex -39.3 -98.7 39.6
    endloop
  endfacet
  facet normal -0.580367 0.575836 -0.575836
    outer loop
      vertex -29.4773 -78.9 49.5773
      vertex -29.4773 -98.7 29.7773
      vertex -39.3 -88.8 49.5773
    endloop
  endfacet
  facet normal -0.709874 0.704329 0
    outer loop
      vertex -19.5 -69 29.7773
      vertex -9.67734 -59.1 49.5773
      vertex -9.67734 -59.1 29.7773
    endloop
  endfacet
  facet normal -0.709874 0.704329 0
    outer loop
      vertex -9.67734 -59.1 49.5773
      vertex -19.5 -69 29.7773
      vertex -19.5 -69 49.5773
    endloop
  endfacet
  facet normal -0.70435 0.709853 0
    outer loop
      vertex -0.506247 -50 29.7773
      vertex -9.67734 -59.1 49.5773
      vertex -0.506247 -50 49.5773
    endloop
  endfacet
  facet normal -0.70435 0.709853 0
    outer loop
      vertex -9.67734 -59.1 49.5773
      vertex -0.506247 -50 29.7773
      vertex -9.67734 -59.1 29.7773
    endloop
  endfacet
  facet normal -0.70435 0.709853 0
    outer loop
      vertex 59.7 30 29.7773
      vertex 50 20.3752 49.5773
      vertex 59.7 30 49.5773
    endloop
  endfacet
  facet normal -0.70435 0.709853 0
    outer loop
      vertex 50 20.3752 49.5773
      vertex 59.7 30 29.7773
      vertex 50 20.3752 29.7773
    endloop
  endfacet
  facet normal -0.709873 0.70433 0
    outer loop
      vertex 59.7 30 29.7773
      vertex 69.5227 39.9 49.5773
      vertex 69.5227 39.9 29.7773
    endloop
  endfacet
  facet normal -0.709873 0.70433 0
    outer loop
      vertex 69.5227 39.9 49.5773
      vertex 59.7 30 29.7773
      vertex 59.7 30 49.5773
    endloop
  endfacet
  facet normal -0.704352 0.709851 0
    outer loop
      vertex 79.5 49.8 29.7773
      vertex 69.5227 39.9 49.5773
      vertex 79.5 49.8 49.5773
    endloop
  endfacet
  facet normal -0.704352 0.709851 0
    outer loop
      vertex 69.5227 39.9 49.5773
      vertex 79.5 49.8 29.7773
      vertex 69.5227 39.9 29.7773
    endloop
  endfacet
  facet normal -0.707096 -0.707117 0
    outer loop
      vertex -39.3 -108.677 49.5773
      vertex -49.2773 -98.7 108.977
      vertex -49.2773 -98.7 49.5773
    endloop
  endfacet
  facet normal -0.707096 -0.707117 0
    outer loop
      vertex -49.2773 -98.7 108.977
      vertex -39.3 -108.677 49.5773
      vertex -39.3 -108.677 108.977
    endloop
  endfacet
  facet normal -0.704352 0.709851 0
    outer loop
      vertex -39.3 -88.8 49.5773
      vertex -49.2773 -98.7 108.977
      vertex -39.3 -88.8 108.977
    endloop
  endfacet
  facet normal -0.704352 0.709851 0
    outer loop
      vertex -49.2773 -98.7 108.977
      vertex -39.3 -88.8 49.5773
      vertex -49.2773 -98.7 49.5773
    endloop
  endfacet
  facet normal -0.709873 0.70433 0
    outer loop
      vertex -39.3 -88.8 49.5773
      vertex -29.4773 -78.9 108.977
      vertex -29.4773 -78.9 49.5773
    endloop
  endfacet
  facet normal -0.709873 0.70433 0
    outer loop
      vertex -29.4773 -78.9 108.977
      vertex -39.3 -88.8 49.5773
      vertex -39.3 -88.8 108.977
    endloop
  endfacet
  facet normal -0.572842 0.577315 -0.581858
    outer loop
      vertex -19.5 -59.1 59.4
      vertex -19.5 -69 49.5773
      vertex -29.4773 -78.9 49.5773
    endloop
  endfacet
  facet normal -0.57735 0.57735 -0.57735
    outer loop
      vertex -29.4773 -59.1 69.3773
      vertex -19.5 -59.1 59.4
      vertex -29.4773 -78.9 49.5773
    endloop
  endfacet
  facet normal -1 0 0
    outer loop
      vertex -29.4773 -78.9 108.977
      vertex -29.4773 -59.1 69.3773
      vertex -29.4773 -78.9 49.5773
    endloop
  endfacet
  facet normal -1 0 0
    outer loop
      vertex -29.4773 -59.1 69.3773
      vertex -29.4773 -78.9 108.977
      vertex -29.4773 -59.1 108.977
    endloop
  endfacet
  facet normal -0.578854 0.574332 -0.578852
    outer loop
      vertex -19.5 -59.1 59.4
      vertex -9.67734 -59.1 49.5773
      vertex -19.5 -69 49.5773
    endloop
  endfacet
  facet normal -0.575847 0.580346 -0.575847
    outer loop
      vertex -19.5 -50 68.5711
      vertex -29.4773 -59.1 69.3773
      vertex -20.3062 -50 69.3773
    endloop
  endfacet
  facet normal -0.575847 0.580346 -0.575847
    outer loop
      vertex -29.4773 -59.1 69.3773
      vertex -19.5 -50 68.5711
      vertex -19.5 -59.1 59.4
    endloop
  endfacet
  facet normal -0.575847 0.580346 -0.575847
    outer loop
      vertex -18.7063 -50 67.7774
      vertex -19.5 -59.1 59.4
      vertex -19.5 -50 68.5711
    endloop
  endfacet
  facet normal -0.575848 0.580345 -0.575846
    outer loop
      vertex -19.5 -59.1 59.4
      vertex -18.7063 -50 67.7774
      vertex -9.67734 -59.1 49.5773
    endloop
  endfacet
  facet normal -0.575847 0.580346 -0.575846
    outer loop
      vertex -0.506247 -50 49.5773
      vertex -9.67734 -59.1 49.5773
      vertex -18.7063 -50 67.7774
    endloop
  endfacet
  facet normal -0.572875 0.577351 -0.58179
    outer loop
      vertex 50 20.6504 49.8504
      vertex 59.7 30 49.5773
      vertex 50 20.3752 49.5773
    endloop
  endfacet
  facet normal -0.572842 0.577315 -0.581858
    outer loop
      vertex 59.7 30 49.5773
      vertex 50 20.6504 49.8504
      vertex 59.7 39.9 59.4
    endloop
  endfacet
  facet normal -0.57735 0.57735 -0.57735
    outer loop
      vertex 50 39.9 69.1
      vertex 59.7 39.9 59.4
      vertex 50 20.6504 49.8504
    endloop
  endfacet
  facet normal -0.578853 0.574333 -0.578853
    outer loop
      vertex 59.7 39.9 59.4
      vertex 69.5227 39.9 49.5773
      vertex 59.7 30 49.5773
    endloop
  endfacet
  facet normal -0.575812 0.580311 -0.575916
    outer loop
      vertex 59.7 49.8 69.3773
      vertex 50 39.9 69.1
      vertex 50 40.1752 69.3773
    endloop
  endfacet
  facet normal -0.575848 0.580344 -0.575848
    outer loop
      vertex 50 39.9 69.1
      vertex 59.7 49.8 69.3773
      vertex 59.7 39.9 59.4
    endloop
  endfacet
  facet normal -0.575848 0.580344 -0.575848
    outer loop
      vertex 59.7 49.8 69.3773
      vertex 69.5227 39.9 49.5773
      vertex 59.7 39.9 59.4
    endloop
  endfacet
  facet normal -0.575848 0.580344 -0.575848
    outer loop
      vertex 79.5 49.8 49.5773
      vertex 69.5227 39.9 49.5773
      vertex 59.7 49.8 69.3773
    endloop
  endfacet
  facet normal -0.70435 0.709853 0
    outer loop
      vertex -20.3062 -50 69.3773
      vertex -29.4773 -59.1 108.977
      vertex -20.3062 -50 108.977
    endloop
  endfacet
  facet normal -0.70435 0.709853 0
    outer loop
      vertex -29.4773 -59.1 108.977
      vertex -20.3062 -50 69.3773
      vertex -29.4773 -59.1 69.3773
    endloop
  endfacet
  facet normal -0.70435 0.709853 0
    outer loop
      vertex 59.7 49.8 89.1773
      vertex 50 40.1752 108.977
      vertex 59.7 49.8 108.977
    endloop
  endfacet
  facet normal -0.70435 0.709853 0
    outer loop
      vertex 50 40.1752 69.3773
      vertex 59.7 49.8 89.1773
      vertex 59.7 49.8 69.3773
    endloop
  endfacet
  facet normal -0.70435 0.709853 0
    outer loop
      vertex 59.7 49.8 89.1773
      vertex 50 40.1752 69.3773
      vertex 50 40.1752 108.977
    endloop
  endfacet
  facet normal -0.578853 0.574333 -0.578853
    outer loop
      vertex 69.5227 59.7 89.1773
      vertex 79.5 59.7 79.2
      vertex 59.7 49.8 89.1773
    endloop
  endfacet
  facet normal -0.578853 0.574333 -0.578853
    outer loop
      vertex 79.5 59.7 79.2
      vertex 79.5 49.8 69.3773
      vertex 59.7 49.8 89.1773
    endloop
  endfacet
  facet normal 0 1 0
    outer loop
      vertex 79.5 49.8 69.3773
      vertex 59.7 49.8 69.3773
      vertex 59.7 49.8 89.1773
    endloop
  endfacet
  facet normal -0 1 0
    outer loop
      vertex 59.7 49.8 69.3773
      vertex 79.5 49.8 69.3773
      vertex 79.5 49.8 49.5773
    endloop
  endfacet
  facet normal -0.578857 0.574331 -0.578851
    outer loop
      vertex 79.5 59.7 79.2
      vertex 89.3226 59.7 69.3773
      vertex 79.5 49.8 69.3773
    endloop
  endfacet
  facet normal -0.575848 0.580344 -0.575848
    outer loop
      vertex 79.5 69.6 89.1773
      vertex 79.5 59.7 79.2
      vertex 69.5227 59.7 89.1773
    endloop
  endfacet
  facet normal -0.575852 0.580342 -0.575846
    outer loop
      vertex 79.5 69.6 89.1773
      vertex 89.3226 59.7 69.3773
      vertex 79.5 59.7 79.2
    endloop
  endfacet
  facet normal -0.575846 0.580348 -0.575846
    outer loop
      vertex 99.3 69.6 69.3773
      vertex 89.3226 59.7 69.3773
      vertex 79.5 69.6 89.1773
    endloop
  endfacet
  facet normal -0.709873 0.70433 0
    outer loop
      vertex 59.7 49.8 89.1773
      vertex 69.5227 59.7 108.977
      vertex 69.5227 59.7 89.1773
    endloop
  endfacet
  facet normal -0.709873 0.70433 0
    outer loop
      vertex 69.5227 59.7 108.977
      vertex 59.7 49.8 89.1773
      vertex 59.7 49.8 108.977
    endloop
  endfacet
  facet normal -0.704352 0.709851 0
    outer loop
      vertex 79.5 69.6 89.1773
      vertex 69.5227 59.7 108.977
      vertex 79.5 69.6 108.977
    endloop
  endfacet
  facet normal -0.704352 0.709851 0
    outer loop
      vertex 69.5227 59.7 108.977
      vertex 79.5 69.6 89.1773
      vertex 69.5227 59.7 89.1773
    endloop
  endfacet
  facet normal 0 1 0
    outer loop
      vertex 99.3 69.6 108.977
      vertex 79.5 69.6 89.1773
      vertex 79.5 69.6 108.977
    endloop
  endfacet
  facet normal -0 1 0
    outer loop
      vertex 79.5 69.6 89.1773
      vertex 99.3 69.6 108.977
      vertex 99.3 69.6 69.3773
    endloop
  endfacet
  facet normal -0.575842 -0.575859 0.580338
    outer loop
      vertex -39.3 -108.677 108.977
      vertex -39.3 -98.7 118.877
      vertex -49.2773 -98.7 108.977
    endloop
  endfacet
  facet normal 0 -0.704362 0.709841
    outer loop
      vertex -39.3 -98.7 118.877
      vertex 99.3 -108.677 108.977
      vertex 99.3 -98.7 118.877
    endloop
  endfacet
  facet normal 0 -0.704362 0.709841
    outer loop
      vertex 99.3 -108.677 108.977
      vertex -39.3 -98.7 118.877
      vertex -39.3 -108.677 108.977
    endloop
  endfacet
  facet normal 0.578836 -0.574368 0.578836
    outer loop
      vertex 109.2 -98.7 108.977
      vertex 99.3 -98.7 118.877
      vertex 99.3 -108.677 108.977
    endloop
  endfacet
  facet normal -0.574357 0.578841 0.578841
    outer loop
      vertex -39.3 -98.7 118.877
      vertex -39.3 -88.8 108.977
      vertex -49.2773 -98.7 108.977
    endloop
  endfacet
  facet normal -0.580367 0.575836 0.575836
    outer loop
      vertex -29.4773 -78.9 108.977
      vertex -39.3 -88.8 108.977
      vertex -39.3 -98.7 118.877
    endloop
  endfacet
  facet normal -0.575848 0.575848 0.580344
    outer loop
      vertex -19.5 -78.9 118.877
      vertex -29.4773 -78.9 108.977
      vertex -39.3 -98.7 118.877
    endloop
  endfacet
  facet normal 0 0 1
    outer loop
      vertex 59.7 39.9 118.877
      vertex 99.3 59.7 118.877
      vertex 79.5 59.7 118.877
    endloop
  endfacet
  facet normal 0 0 1
    outer loop
      vertex 99.3 59.7 118.877
      vertex 59.7 39.9 118.877
      vertex 59.7 -39.3 118.877
    endloop
  endfacet
  facet normal 0 0 1
    outer loop
      vertex 99.3 59.7 118.877
      vertex 59.7 -39.3 118.877
      vertex 99.3 -98.7 118.877
    endloop
  endfacet
  facet normal 0 0 1
    outer loop
      vertex 50 -50 118.877
      vertex 59.7 -39.3 118.877
      vertex 50 -49 118.877
    endloop
  endfacet
  facet normal 0 0 1
    outer loop
      vertex 59.7 -39.3 118.877
      vertex 50 -50 118.877
      vertex 99.3 -98.7 118.877
    endloop
  endfacet
  facet normal 0 0 1
    outer loop
      vertex 39.9 -59.1 118.877
      vertex 50 -50 118.877
      vertex 49 -50 118.877
    endloop
  endfacet
  facet normal 0 0 1
    outer loop
      vertex 50 -50 118.877
      vertex 39.9 -59.1 118.877
      vertex 99.3 -98.7 118.877
    endloop
  endfacet
  facet normal 0 0 1
    outer loop
      vertex -19.5 -78.9 118.877
      vertex 39.9 -59.1 118.877
      vertex -19.5 -59.1 118.877
    endloop
  endfacet
  facet normal 0 0 1
    outer loop
      vertex 39.9 -59.1 118.877
      vertex -19.5 -78.9 118.877
      vertex 99.3 -98.7 118.877
    endloop
  endfacet
  facet normal 0 0 1
    outer loop
      vertex 99.3 -98.7 118.877
      vertex -19.5 -78.9 118.877
      vertex -39.3 -98.7 118.877
    endloop
  endfacet
  facet normal 0.707107 -0 0.707107
    outer loop
      vertex 99.3 -98.7 118.877
      vertex 109.2 59.7 108.977
      vertex 99.3 59.7 118.877
    endloop
  endfacet
  facet normal 0.707107 0 0.707107
    outer loop
      vertex 109.2 59.7 108.977
      vertex 99.3 -98.7 118.877
      vertex 109.2 -98.7 108.977
    endloop
  endfacet
  facet normal -0.704352 0 0.709851
    outer loop
      vertex -29.4773 -59.1 108.977
      vertex -19.5 -78.9 118.877
      vertex -19.5 -59.1 118.877
    endloop
  endfacet
  facet normal -0.704352 0 0.709851
    outer loop
      vertex -19.5 -78.9 118.877
      vertex -29.4773 -59.1 108.977
      vertex -29.4773 -78.9 108.977
    endloop
  endfacet
  facet normal -0.574379 0.57883 0.57883
    outer loop
      vertex -20.3062 -50 108.977
      vertex -19.5 -59.1 118.877
      vertex -19.5 -50 109.777
    endloop
  endfacet
  facet normal -0.574356 0.578843 0.57884
    outer loop
      vertex -19.5 -59.1 118.877
      vertex -20.3062 -50 108.977
      vertex -29.4773 -59.1 108.977
    endloop
  endfacet
  facet normal 0 0.707107 0.707107
    outer loop
      vertex 39.9 -50 109.777
      vertex -19.5 -59.1 118.877
      vertex 39.9 -59.1 118.877
    endloop
  endfacet
  facet normal 0 0.707107 0.707107
    outer loop
      vertex -19.5 -59.1 118.877
      vertex 39.9 -50 109.777
      vertex -19.5 -50 109.777
    endloop
  endfacet
  facet normal -0.580374 0.575833 0.575833
    outer loop
      vertex 44.4144 -50 114.327
      vertex 39.9 -50 109.777
      vertex 39.9 -59.1 118.877
    endloop
  endfacet
  facet normal -0.575845 0.575845 0.58035
    outer loop
      vertex 49 -50 118.877
      vertex 44.4144 -50 114.327
      vertex 39.9 -59.1 118.877
    endloop
  endfacet
  facet normal -0.575831 0.575831 0.580378
    outer loop
      vertex 59.7 -39.3 118.877
      vertex 50 -39.3 109.253
      vertex 50 -49 118.877
    endloop
  endfacet
  facet normal -0.70432 0 0.709882
    outer loop
      vertex 50 39.9 109.253
      vertex 59.7 -39.3 118.877
      vertex 59.7 39.9 118.877
    endloop
  endfacet
  facet normal -0.70432 0 0.709882
    outer loop
      vertex 59.7 -39.3 118.877
      vertex 50 39.9 109.253
      vertex 50 -39.3 109.253
    endloop
  endfacet
  facet normal -0.574323 0.578858 0.578858
    outer loop
      vertex 59.7 49.8 108.977
      vertex 50 39.9 109.253
      vertex 59.7 39.9 118.877
    endloop
  endfacet
  facet normal -0.574913 0.579404 0.577725
    outer loop
      vertex 50 39.9 109.253
      vertex 59.7 49.8 108.977
      vertex 50 40.1752 108.977
    endloop
  endfacet
  facet normal -0.580367 0.575836 0.575836
    outer loop
      vertex 69.5227 59.7 108.977
      vertex 59.7 49.8 108.977
      vertex 59.7 39.9 118.877
    endloop
  endfacet
  facet normal -0.575848 0.575848 0.580344
    outer loop
      vertex 79.5 59.7 118.877
      vertex 69.5227 59.7 108.977
      vertex 59.7 39.9 118.877
    endloop
  endfacet
  facet normal -0.574357 0.578841 0.578841
    outer loop
      vertex 79.5 59.7 118.877
      vertex 79.5 69.6 108.977
      vertex 69.5227 59.7 108.977
    endloop
  endfacet
  facet normal 0 0.707107 0.707107
    outer loop
      vertex 99.3 69.6 108.977
      vertex 79.5 59.7 118.877
      vertex 99.3 59.7 118.877
    endloop
  endfacet
  facet normal 0 0.707107 0.707107
    outer loop
      vertex 79.5 59.7 118.877
      vertex 99.3 69.6 108.977
      vertex 79.5 69.6 108.977
    endloop
  endfacet
  facet normal 0.57735 0.57735 0.57735
    outer loop
      vertex 109.2 59.7 108.977
      vertex 99.3 69.6 108.977
      vertex 99.3 59.7 118.877
    endloop
  endfacet
  facet normal -1 0 0
    outer loop
      vertex 50 50 0.9
      vertex 50 49.6 19.8773
      vertex 50 50 19.8773
    endloop
  endfacet
  facet normal -1 0 0
    outer loop
      vertex 50 48.7 0.9
      vertex 50 49.6 19.8773
      vertex 50 50 0.9
    endloop
  endfacet
  facet normal -1 0 0
    outer loop
      vertex 50 39.9 10.2525
      vertex 50 48.7 0.9
      vertex 50 39.9 9.69999
    endloop
  endfacet
  facet normal -1 0 0
    outer loop
      vertex 50 48.7 0.9
      vertex 50 39.9 10.2525
      vertex 50 49.6 19.8773
    endloop
  endfacet
  facet normal -1 0 0
    outer loop
      vertex 50 39.9 9.69999
      vertex 50 39.6248 10.5277
      vertex 50 39.9 10.2525
    endloop
  endfacet
  facet normal -1 0 0
    outer loop
      vertex 50 39.9 9.69999
      vertex 50 20.3752 29.7773
      vertex 50 39.6248 10.5277
    endloop
  endfacet
  facet normal -1 -0 0
    outer loop
      vertex 50 20.3752 29.7773
      vertex 50 -39.3 9.69999
      vertex 50 20.3752 49.5773
    endloop
  endfacet
  facet normal -1 0 0
    outer loop
      vertex 50 -39.3 9.69999
      vertex 50 20.3752 29.7773
      vertex 50 39.9 9.69999
    endloop
  endfacet
  facet normal -1 0 0
    outer loop
      vertex 50 39.9 69.1
      vertex 50 40.1752 108.977
      vertex 50 40.1752 69.3773
    endloop
  endfacet
  facet normal -1 0 0
    outer loop
      vertex 50 39.9 69.1
      vertex 50 39.9 109.253
      vertex 50 40.1752 108.977
    endloop
  endfacet
  facet normal -1 0 0
    outer loop
      vertex 50 20.6504 49.8504
      vertex 50 39.9 109.253
      vertex 50 39.9 69.1
    endloop
  endfacet
  facet normal -1 0 0
    outer loop
      vertex 50 -39.3 109.253
      vertex 50 20.6504 49.8504
      vertex 50 20.3752 49.5773
    endloop
  endfacet
  facet normal -1 0 0
    outer loop
      vertex 50 -39.3 109.253
      vertex 50 20.3752 49.5773
      vertex 50 -39.3 9.69999
    endloop
  endfacet
  facet normal -1 0 0
    outer loop
      vertex 50 20.6504 49.8504
      vertex 50 -39.3 109.253
      vertex 50 39.9 109.253
    endloop
  endfacet
  facet normal -1 0 0
    outer loop
      vertex 50 -50 0.9
      vertex 50 -39.3 9.69999
      vertex 50 -44.15 4.88789
    endloop
  endfacet
  facet normal -1 0 0
    outer loop
      vertex 50 -50 0.9
      vertex 50 -44.15 4.88789
      vertex 50 -48.107 0.9
    endloop
  endfacet
  facet normal -1 -0 0
    outer loop
      vertex 50 -39.3 9.69999
      vertex 50 -50 0.9
      vertex 50 -39.3 109.253
    endloop
  endfacet
  facet normal -1 0 0
    outer loop
      vertex 50 -50 118.877
      vertex 50 -39.3 109.253
      vertex 50 -50 0.9
    endloop
  endfacet
  facet normal -1 0 0
    outer loop
      vertex 50 -39.3 109.253
      vertex 50 -50 118.877
      vertex 50 -49 118.877
    endloop
  endfacet
  facet normal 1 0 0
    outer loop
      vertex -50 44.4144 4.58555
      vertex -50 50 19.8773
      vertex -50 49 19.8773
    endloop
  endfacet
  facet normal 1 0 0
    outer loop
      vertex -50 50 19.8773
      vertex -50 44.4144 4.58555
      vertex -50 50 0.9
    endloop
  endfacet
  facet normal 1 0 0
    outer loop
      vertex -50 50 0.9
      vertex -50 44.4144 4.58555
      vertex -50 48.1 0.9
    endloop
  endfacet
  facet normal 1 -0 0
    outer loop
      vertex -50 39.9 10.7773
      vertex -50 44.4144 4.58555
      vertex -50 49 19.8773
    endloop
  endfacet
  facet normal 1 0 0
    outer loop
      vertex -50 39.9 10.7773
      vertex -50 39.9 9.1711
      vertex -50 44.4144 4.58555
    endloop
  endfacet
  facet normal 1 -0 0
    outer loop
      vertex -50 -39.3 10.7773
      vertex -50 39.9 9.1711
      vertex -50 39.9 10.7773
    endloop
  endfacet
  facet normal 1 0 0
    outer loop
      vertex -50 -39.3 10.7773
      vertex -50 -39.3 9.1711
      vertex -50 39.9 9.1711
    endloop
  endfacet
  facet normal 1 0 0
    outer loop
      vertex -50 -39.3 10.7773
      vertex -50 -47.507 0.9
      vertex -50 -39.3 9.1711
    endloop
  endfacet
  facet normal 1 0 0
    outer loop
      vertex -50 -48.4 19.8773
      vertex -50 -47.507 0.9
      vertex -50 -39.3 10.7773
    endloop
  endfacet
  facet normal 1 0 0
    outer loop
      vertex -50 -50 0.9
      vertex -50 -48.4 19.8773
      vertex -50 -50 19.8773
    endloop
  endfacet
  facet normal 1 0 0
    outer loop
      vertex -50 -48.4 19.8773
      vertex -50 -50 0.9
      vertex -50 -47.507 0.9
    endloop
  endfacet
  facet normal 0 -1 0
    outer loop
      vertex -50 50 19.8773
      vertex -44.15 50 15.0273
      vertex -49 50 19.8773
    endloop
  endfacet
  facet normal 0 -1 0
    outer loop
      vertex -50 50 0.9
      vertex -44.15 50 15.0273
      vertex -50 50 19.8773
    endloop
  endfacet
  facet normal 0 -1 0
    outer loop
      vertex -39.3 50 10.2525
      vertex -39.3 50 9.69999
      vertex 39.9 50 10.2525
    endloop
  endfacet
  facet normal -0 -1 0
    outer loop
      vertex -39.3 50 9.69999
      vertex -44.15 50 15.0273
      vertex -48.1 50 0.9
    endloop
  endfacet
  facet normal 0 -1 0
    outer loop
      vertex -44.15 50 15.0273
      vertex -50 50 0.9
      vertex -48.1 50 0.9
    endloop
  endfacet
  facet normal 0 -1 0
    outer loop
      vertex -44.15 50 15.0273
      vertex -39.3 50 9.69999
      vertex -39.3 50 10.2525
    endloop
  endfacet
  facet normal 0 -1 0
    outer loop
      vertex 48.7 50 0.9
      vertex 49.6 50 19.8773
      vertex 39.9 50 10.2525
    endloop
  endfacet
  facet normal 0 -1 0
    outer loop
      vertex 39.9 50 9.69999
      vertex 39.9 50 10.2525
      vertex -39.3 50 9.69999
    endloop
  endfacet
  facet normal 0 -1 0
    outer loop
      vertex 48.7 50 0.9
      vertex 39.9 50 10.2525
      vertex 39.9 50 9.69999
    endloop
  endfacet
  facet normal 0 -1 0
    outer loop
      vertex 50 50 0.9
      vertex 49.6 50 19.8773
      vertex 48.7 50 0.9
    endloop
  endfacet
  facet normal 0 -1 0
    outer loop
      vertex 49.6 50 19.8773
      vertex 50 50 0.9
      vertex 50 50 19.8773
    endloop
  endfacet
  facet normal 0 1 0
    outer loop
      vertex 50 -50 118.877
      vertex 44.4144 -50 114.327
      vertex 49 -50 118.877
    endloop
  endfacet
  facet normal 0 1 0
    outer loop
      vertex 50 -50 118.877
      vertex 39.9 -50 109.777
      vertex 44.4144 -50 114.327
    endloop
  endfacet
  facet normal 0 1 -0
    outer loop
      vertex -18.7063 -50 67.7774
      vertex -19.5 -50 109.777
      vertex 39.9 -50 109.777
    endloop
  endfacet
  facet normal -0 1 0
    outer loop
      vertex -19.5 -50 68.5711
      vertex -19.5 -50 109.777
      vertex -18.7063 -50 67.7774
    endloop
  endfacet
  facet normal 0 1 0
    outer loop
      vertex -20.3062 -50 108.977
      vertex -19.5 -50 68.5711
      vertex -20.3062 -50 69.3773
    endloop
  endfacet
  facet normal 0 1 0
    outer loop
      vertex -19.5 -50 109.777
      vertex -19.5 -50 68.5711
      vertex -20.3062 -50 108.977
    endloop
  endfacet
  facet normal 0 1 0
    outer loop
      vertex 39.9 -50 109.777
      vertex -0.506247 -50 49.5773
      vertex -18.7063 -50 67.7774
    endloop
  endfacet
  facet normal 0 1 -0
    outer loop
      vertex 50 -50 0.9
      vertex 39.9 -50 109.777
      vertex 50 -50 118.877
    endloop
  endfacet
  facet normal 0 1 0
    outer loop
      vertex 39.9 -50 109.777
      vertex 39.9 -50 9.1711
      vertex -0.506247 -50 49.5773
    endloop
  endfacet
  facet normal 0 1 0
    outer loop
      vertex -39.3 -50 9.1711
      vertex -19.5 -50 10.7773
      vertex 39.9 -50 9.1711
    endloop
  endfacet
  facet normal 0 1 0
    outer loop
      vertex -1.29999 -50 28.9773
      vertex 39.9 -50 9.1711
      vertex -19.5 -50 10.7773
    endloop
  endfacet
  facet normal 0 1 0
    outer loop
      vertex -0.506247 -50 29.7773
      vertex 39.9 -50 9.1711
      vertex -1.29999 -50 28.9773
    endloop
  endfacet
  facet normal 0 1 0
    outer loop
      vertex -0.506247 -50 49.5773
      vertex 39.9 -50 9.1711
      vertex -0.506247 -50 29.7773
    endloop
  endfacet
  facet normal 0 1 0
    outer loop
      vertex 39.9 -50 109.777
      vertex 50 -50 0.9
      vertex 39.9 -50 9.1711
    endloop
  endfacet
  facet normal 0 1 0
    outer loop
      vertex 39.9 -50 9.1711
      vertex 50 -50 0.9
      vertex 48.107 -50 0.9
    endloop
  endfacet
  facet normal 0 1 0
    outer loop
      vertex -50 -50 0.9
      vertex -48.4 -50 19.8773
      vertex -39.3 -50 10.7773
    endloop
  endfacet
  facet normal 0 1 0
    outer loop
      vertex -19.5 -50 10.7773
      vertex -39.3 -50 9.1711
      vertex -39.3 -50 10.7773
    endloop
  endfacet
  facet normal 0 1 0
    outer loop
      vertex -47.507 -50 0.9
      vertex -39.3 -50 10.7773
      vertex -39.3 -50 9.1711
    endloop
  endfacet
  facet normal 0 1 0
    outer loop
      vertex -50 -50 0.9
      vertex -39.3 -50 10.7773
      vertex -47.507 -50 0.9
    endloop
  endfacet
  facet normal 0 1 0
    outer loop
      vertex -48.4 -50 19.8773
      vertex -50 -50 0.9
      vertex -50 -50 19.8773
    endloop
  endfacet
endsolid OpenSCAD_Model
