solid OpenSCAD_Model
  facet normal -0 0 -1
    outer loop
      vertex -50 48.1 0.9
      vertex -57.314 40.786 0.9
      vertex -50 50 0.9
    endloop
  endfacet
  facet normal 0 0 -1
    outer loop
      vertex 50 -50 0.9
      vertex 60.593 -59.1 0.9
      vertex 59.7 -60 0.9
    endloop
  endfacet
  facet normal 0 0 -1
    outer loop
      vertex 60.593 -59.1 0.9
      vertex 58.8 -39.3 0.9
      vertex 60.593 59.7 0.9
    endloop
  endfacet
  facet normal 0 0 -1
    outer loop
      vertex 58.8 39.9 0.9
      vertex 60.593 59.7 0.9
      vertex 58.8 -39.3 0.9
    endloop
  endfacet
  facet normal 0 0 -1
    outer loop
      vertex 60.593 -59.1 0.9
      vertex 57.914 -40.193 0.9
      vertex 58.8 -39.3 0.9
    endloop
  endfacet
  facet normal 0 0 -1
    outer loop
      vertex 60.593 -59.1 0.9
      vertex 50 -50 0.9
      vertex 57.914 -40.193 0.9
    endloop
  endfacet
  facet normal 0 0 -1
    outer loop
      vertex 39.9 -58.207 0.9
      vertex 50 -50 0.9
      vertex 59.7 -60 0.9
    endloop
  endfacet
  facet normal -0 0 -1
    outer loop
      vertex 50 -50 0.9
      vertex 39.9 -58.207 0.9
      vertex 48.107 -50 0.9
    endloop
  endfacet
  facet normal 0 0 -1
    outer loop
      vertex 59.7 -60 0.9
      vertex -39.3 -58.207 0.9
      vertex 39.9 -58.207 0.9
    endloop
  endfacet
  facet normal 0 0 -1
    outer loop
      vertex -39.3 -58.207 0.9
      vertex -50 -50 0.9
      vertex -47.507 -50 0.9
    endloop
  endfacet
  facet normal 0 0 -1
    outer loop
      vertex -50 -50 0.9
      vertex -58.207 -39.3 0.9
      vertex -50 -47.507 0.9
    endloop
  endfacet
  facet normal -0 0 -1
    outer loop
      vertex -50 -50 0.9
      vertex -60 -59.1 0.9
      vertex -58.207 -39.3 0.9
    endloop
  endfacet
  facet normal 0 0 -1
    outer loop
      vertex -60 -59.1 0.9
      vertex -50 -50 0.9
      vertex -59.1 -60 0.9
    endloop
  endfacet
  facet normal -0 0 -1
    outer loop
      vertex -39.3 -58.207 0.9
      vertex -59.1 -60 0.9
      vertex -50 -50 0.9
    endloop
  endfacet
  facet normal 0 0 -1
    outer loop
      vertex -59.1 -60 0.9
      vertex -39.3 -58.207 0.9
      vertex 59.7 -60 0.9
    endloop
  endfacet
  facet normal 0 0 -1
    outer loop
      vertex 50 50 0.9
      vertex 60.593 59.7 0.9
      vertex 58.8 39.9 0.9
    endloop
  endfacet
  facet normal 0 0 -1
    outer loop
      vertex 50 50 0.9
      vertex 58.8 39.9 0.9
      vertex 50 48.7 0.9
    endloop
  endfacet
  facet normal -0 0 -1
    outer loop
      vertex 60.593 59.7 0.9
      vertex 50 50 0.9
      vertex 59.7 60.593 0.9
    endloop
  endfacet
  facet normal 0 0 -1
    outer loop
      vertex 39.9 58.8 0.9
      vertex 50 50 0.9
      vertex 48.7 50 0.9
    endloop
  endfacet
  facet normal 0 0 -1
    outer loop
      vertex 50 50 0.9
      vertex 39.9 58.8 0.9
      vertex 59.7 60.593 0.9
    endloop
  endfacet
  facet normal 0 0 -1
    outer loop
      vertex -39.3 58.8 0.9
      vertex 59.7 60.593 0.9
      vertex 39.9 58.8 0.9
    endloop
  endfacet
  facet normal 0 0 -1
    outer loop
      vertex -50 50 0.9
      vertex -39.3 58.8 0.9
      vertex -48.1 50 0.9
    endloop
  endfacet
  facet normal 0 0 -1
    outer loop
      vertex -60 59.7 0.9
      vertex -57.314 40.786 0.9
      vertex -58.207 39.9 0.9
    endloop
  endfacet
  facet normal 0 0 -1
    outer loop
      vertex -39.3 58.8 0.9
      vertex -59.1 60.593 0.9
      vertex 59.7 60.593 0.9
    endloop
  endfacet
  facet normal 0 0 -1
    outer loop
      vertex -50 50 0.9
      vertex -59.1 60.593 0.9
      vertex -39.3 58.8 0.9
    endloop
  endfacet
  facet normal 0 0 -1
    outer loop
      vertex -57.314 40.786 0.9
      vertex -60 59.7 0.9
      vertex -50 50 0.9
    endloop
  endfacet
  facet normal -0 0 -1
    outer loop
      vertex -58.207 -39.3 0.9
      vertex -60 -59.1 0.9
      vertex -58.207 39.9 0.9
    endloop
  endfacet
  facet normal 0 0 -1
    outer loop
      vertex -60 59.7 0.9
      vertex -58.207 39.9 0.9
      vertex -60 -59.1 0.9
    endloop
  endfacet
  facet normal 0 0 -1
    outer loop
      vertex -50 50 0.9
      vertex -60 59.7 0.9
      vertex -59.1 60.593 0.9
    endloop
  endfacet
  facet normal 0 0 -1
    outer loop
      vertex 57.914 -40.193 0.9
      vertex 50 -50 0.9
      vertex 50 -48.107 0.9
    endloop
  endfacet
  facet normal -0.577351 -0.577351 -0.577349
    outer loop
      vertex -59.1 -69.0773 9.97734
      vertex -60 -59.1 0.9
      vertex -59.1 -60 0.9
    endloop
  endfacet
  facet normal -0.577351 -0.577351 -0.577349
    outer loop
      vertex -60 -59.1 0.9
      vertex -59.1 -69.0773 9.97734
      vertex -69.0773 -59.1 9.97734
    endloop
  endfacet
  facet normal 0 -0.707108 -0.707105
    outer loop
      vertex -59.1 -69.0773 9.97734
      vertex 59.7 -60 0.9
      vertex 59.7 -69.0773 9.97734
    endloop
  endfacet
  facet normal -0 -0.707108 -0.707105
    outer loop
      vertex 59.7 -60 0.9
      vertex -59.1 -69.0773 9.97734
      vertex -59.1 -60 0.9
    endloop
  endfacet
  facet normal 0.58035 -0.575836 -0.575853
    outer loop
      vertex 69.6 -59.1 9.97734
      vertex 59.7 -60 0.9
      vertex 60.593 -59.1 0.9
    endloop
  endfacet
  facet normal 0.580345 -0.575848 -0.575846
    outer loop
      vertex 59.7 -60 0.9
      vertex 69.6 -59.1 9.97734
      vertex 59.7 -69.0773 9.97734
    endloop
  endfacet
  facet normal -0.707108 0 -0.707105
    outer loop
      vertex -69.0773 -59.1 9.97734
      vertex -60 59.7 0.9
      vertex -60 -59.1 0.9
    endloop
  endfacet
  facet normal -0.707108 0 -0.707105
    outer loop
      vertex -60 59.7 0.9
      vertex -69.0773 -59.1 9.97734
      vertex -69.0773 59.7 9.97734
    endloop
  endfacet
  facet normal 0.578842 0.578842 -0.574356
    outer loop
      vertex -50 -39.3 9.1711
      vertex -50 -47.507 0.9
      vertex -58.207 -39.3 0.9
    endloop
  endfacet
  facet normal 0.578842 0.578842 -0.574356
    outer loop
      vertex -39.3 -50 9.1711
      vertex -39.3 -58.207 0.9
      vertex -47.507 -50 0.9
    endloop
  endfacet
  facet normal 0 0.709852 -0.704351
    outer loop
      vertex 39.9 -58.207 0.9
      vertex -39.3 -50 9.1711
      vertex 39.9 -50 9.1711
    endloop
  endfacet
  facet normal 0 0.709852 -0.704351
    outer loop
      vertex -39.3 -50 9.1711
      vertex 39.9 -58.207 0.9
      vertex -39.3 -58.207 0.9
    endloop
  endfacet
  facet normal -0.578853 0.574331 -0.578855
    outer loop
      vertex 50 -39.3 9.69999
      vertex 57.914 -40.193 0.9
      vertex 50 -44.15 4.88789
    endloop
  endfacet
  facet normal -0.578859 0.574321 -0.578859
    outer loop
      vertex 57.914 -40.193 0.9
      vertex 50 -39.3 9.69999
      vertex 58.8 -39.3 0.9
    endloop
  endfacet
  facet normal -0.578842 0.578842 -0.574356
    outer loop
      vertex 39.9 -50 9.1711
      vertex 48.107 -50 0.9
      vertex 39.9 -58.207 0.9
    endloop
  endfacet
  facet normal -0.578841 0.578841 -0.574357
    outer loop
      vertex 50 -44.15 4.88789
      vertex 57.914 -40.193 0.9
      vertex 50 -48.107 0.9
    endloop
  endfacet
  facet normal 0.709852 0 -0.704351
    outer loop
      vertex 69.6 -59.1 9.97734
      vertex 60.593 59.7 0.9
      vertex 69.6 59.7 9.97734
    endloop
  endfacet
  facet normal 0.709852 0 -0.704351
    outer loop
      vertex 60.593 59.7 0.9
      vertex 69.6 -59.1 9.97734
      vertex 60.593 -59.1 0.9
    endloop
  endfacet
  facet normal 0.709852 0 -0.704351
    outer loop
      vertex -50 -39.3 9.1711
      vertex -58.207 39.9 0.9
      vertex -50 39.9 9.1711
    endloop
  endfacet
  facet normal 0.709852 0 -0.704351
    outer loop
      vertex -58.207 39.9 0.9
      vertex -50 -39.3 9.1711
      vertex -58.207 -39.3 0.9
    endloop
  endfacet
  facet normal -0.707106 0 -0.707107
    outer loop
      vertex 50 -39.3 9.69999
      vertex 58.8 39.9 0.9
      vertex 58.8 -39.3 0.9
    endloop
  endfacet
  facet normal -0.707106 0 -0.707107
    outer loop
      vertex 58.8 39.9 0.9
      vertex 50 -39.3 9.69999
      vertex 50 39.9 9.69999
    endloop
  endfacet
  facet normal 0.577309 -0.581871 -0.572835
    outer loop
      vertex -57.314 40.786 0.9
      vertex -50 39.9 9.1711
      vertex -58.207 39.9 0.9
    endloop
  endfacet
  facet normal 0.577312 -0.581866 -0.572837
    outer loop
      vertex -50 39.9 9.1711
      vertex -57.314 40.786 0.9
      vertex -50 44.4144 4.58555
    endloop
  endfacet
  facet normal 0.577348 -0.577348 -0.577355
    outer loop
      vertex -50 48.1 0.9
      vertex -50 44.4144 4.58555
      vertex -57.314 40.786 0.9
    endloop
  endfacet
  facet normal 0.57735 -0.57735 -0.577351
    outer loop
      vertex -39.3 58.8 0.9
      vertex -39.3 50 9.69999
      vertex -48.1 50 0.9
    endloop
  endfacet
  facet normal 0 -0.707106 -0.707107
    outer loop
      vertex -39.3 50 9.69999
      vertex 39.9 58.8 0.9
      vertex 39.9 50 9.69999
    endloop
  endfacet
  facet normal -0 -0.707106 -0.707107
    outer loop
      vertex 39.9 58.8 0.9
      vertex -39.3 50 9.69999
      vertex -39.3 58.8 0.9
    endloop
  endfacet
  facet normal -0.57735 -0.57735 -0.577351
    outer loop
      vertex 39.9 58.8 0.9
      vertex 48.7 50 0.9
      vertex 39.9 50 9.69999
    endloop
  endfacet
  facet normal -0.57735 -0.57735 -0.577351
    outer loop
      vertex 50 48.7 0.9
      vertex 58.8 39.9 0.9
      vertex 50 39.9 9.69999
    endloop
  endfacet
  facet normal -0.575836 0.58035 -0.575853
    outer loop
      vertex -60 59.7 0.9
      vertex -59.1 69.6 9.97734
      vertex -59.1 60.593 0.9
    endloop
  endfacet
  facet normal -0.575848 0.580345 -0.575846
    outer loop
      vertex -59.1 69.6 9.97734
      vertex -60 59.7 0.9
      vertex -69.0773 59.7 9.97734
    endloop
  endfacet
  facet normal 0 0.709852 -0.704351
    outer loop
      vertex 59.7 60.593 0.9
      vertex -59.1 69.6 9.97734
      vertex 59.7 69.6 9.97734
    endloop
  endfacet
  facet normal 0 0.709852 -0.704351
    outer loop
      vertex -59.1 69.6 9.97734
      vertex 59.7 60.593 0.9
      vertex -59.1 60.593 0.9
    endloop
  endfacet
  facet normal 0.578842 0.578842 -0.574356
    outer loop
      vertex 69.6 59.7 9.97734
      vertex 59.7 60.593 0.9
      vertex 59.7 69.6 9.97734
    endloop
  endfacet
  facet normal 0.578842 0.578842 -0.574356
    outer loop
      vertex 59.7 60.593 0.9
      vertex 69.6 59.7 9.97734
      vertex 60.593 59.7 0.9
    endloop
  endfacet
  facet normal -0.575847 -0.575847 0.580345
    outer loop
      vertex -59.1 -69.0773 9.97734
      vertex -59.1 -59.1 19.8773
      vertex -69.0773 -59.1 9.97734
    endloop
  endfacet
  facet normal 0 -0.70435 0.709853
    outer loop
      vertex 39.9 -59.1 19.8773
      vertex 59.7 -69.0773 9.97734
      vertex 59.7 -59.1 19.8773
    endloop
  endfacet
  facet normal 0 -0.70435 0.709853
    outer loop
      vertex -39.3 -59.1 19.8773
      vertex 59.7 -69.0773 9.97734
      vertex 39.9 -59.1 19.8773
    endloop
  endfacet
  facet normal 0 -0.70435 0.709853
    outer loop
      vertex -59.1 -69.0773 9.97734
      vertex -39.3 -59.1 19.8773
      vertex -59.1 -59.1 19.8773
    endloop
  endfacet
  facet normal 0 -0.70435 0.709853
    outer loop
      vertex -39.3 -59.1 19.8773
      vertex -59.1 -69.0773 9.97734
      vertex 59.7 -69.0773 9.97734
    endloop
  endfacet
  facet normal 0.57884 -0.574356 0.578843
    outer loop
      vertex 69.6 -59.1 9.97734
      vertex 59.7 -59.1 19.8773
      vertex 59.7 -69.0773 9.97734
    endloop
  endfacet
  facet normal -0.70435 0 0.709853
    outer loop
      vertex -69.0773 59.7 9.97734
      vertex -59.1 39.9 19.8773
      vertex -59.1 59.7 19.8773
    endloop
  endfacet
  facet normal -0.70435 0 0.709853
    outer loop
      vertex -59.1 39.9 19.8773
      vertex -69.0773 59.7 9.97734
      vertex -59.1 -39.3 19.8773
    endloop
  endfacet
  facet normal -0.70435 0 0.709853
    outer loop
      vertex -69.0773 -59.1 9.97734
      vertex -59.1 -39.3 19.8773
      vertex -69.0773 59.7 9.97734
    endloop
  endfacet
  facet normal -0.70435 0 0.709853
    outer loop
      vertex -59.1 -39.3 19.8773
      vertex -69.0773 -59.1 9.97734
      vertex -59.1 -59.1 19.8773
    endloop
  endfacet
  facet normal 0.57735 0.57735 0.57735
    outer loop
      vertex -39.3 -59.1 19.8773
      vertex -39.3 -50 10.7773
      vertex -48.4 -50 19.8773
    endloop
  endfacet
  facet normal 0.57735 0.57735 0.57735
    outer loop
      vertex -50 -48.4 19.8773
      vertex -50 -39.3 10.7773
      vertex -59.1 -39.3 19.8773
    endloop
  endfacet
  facet normal 0 0 1
    outer loop
      vertex -50 -48.4 19.8773
      vertex -59.1 -39.3 19.8773
      vertex -50 -50 19.8773
    endloop
  endfacet
  facet normal -0 0 1
    outer loop
      vertex -50 -50 19.8773
      vertex -39.3 -59.1 19.8773
      vertex -48.4 -50 19.8773
    endloop
  endfacet
  facet normal 0 0 1
    outer loop
      vertex -50 -50 19.8773
      vertex -59.1 -59.1 19.8773
      vertex -39.3 -59.1 19.8773
    endloop
  endfacet
  facet normal 0 0 1
    outer loop
      vertex -59.1 -59.1 19.8773
      vertex -50 -50 19.8773
      vertex -59.1 -39.3 19.8773
    endloop
  endfacet
  facet normal 0 0.707107 0.707107
    outer loop
      vertex 39.9 -50 10.7773
      vertex -39.3 -59.1 19.8773
      vertex 39.9 -59.1 19.8773
    endloop
  endfacet
  facet normal 0 0.707107 0.707107
    outer loop
      vertex -39.3 -59.1 19.8773
      vertex 39.9 -50 10.7773
      vertex -39.3 -50 10.7773
    endloop
  endfacet
  facet normal -0.580374 0.575833 0.575833
    outer loop
      vertex 44.4144 -50 15.3273
      vertex 39.9 -50 10.7773
      vertex 39.9 -59.1 19.8773
    endloop
  endfacet
  facet normal -0.575845 0.575845 0.58035
    outer loop
      vertex 49 -50 19.8773
      vertex 44.4144 -50 15.3273
      vertex 39.9 -59.1 19.8773
    endloop
  endfacet
  facet normal -0.575847 0.575847 0.580346
    outer loop
      vertex 59.7 -39.3 19.8773
      vertex 50 -39.3 10.2525
      vertex 50 -49 19.8773
    endloop
  endfacet
  facet normal -0 0 1
    outer loop
      vertex 50 -49 19.8773
      vertex 59.7 -59.1 19.8773
      vertex 59.7 -39.3 19.8773
    endloop
  endfacet
  facet normal -0 0 1
    outer loop
      vertex 50 -50 19.8773
      vertex 59.7 -59.1 19.8773
      vertex 50 -49 19.8773
    endloop
  endfacet
  facet normal 0 0 1
    outer loop
      vertex 39.9 -59.1 19.8773
      vertex 50 -50 19.8773
      vertex 49 -50 19.8773
    endloop
  endfacet
  facet normal 0 0 1
    outer loop
      vertex 50 -50 19.8773
      vertex 39.9 -59.1 19.8773
      vertex 59.7 -59.1 19.8773
    endloop
  endfacet
  facet normal 0.707105 -0 0.707108
    outer loop
      vertex 59.7 39.9 19.8773
      vertex 69.6 59.7 9.97734
      vertex 59.7 59.7 19.8773
    endloop
  endfacet
  facet normal 0.707105 -0 0.707108
    outer loop
      vertex 59.7 -39.3 19.8773
      vertex 69.6 59.7 9.97734
      vertex 59.7 39.9 19.8773
    endloop
  endfacet
  facet normal 0.707105 0 0.707108
    outer loop
      vertex 69.6 -59.1 9.97734
      vertex 59.7 -39.3 19.8773
      vertex 59.7 -59.1 19.8773
    endloop
  endfacet
  facet normal 0.707105 0 0.707108
    outer loop
      vertex 59.7 -39.3 19.8773
      vertex 69.6 -59.1 9.97734
      vertex 69.6 59.7 9.97734
    endloop
  endfacet
  facet normal 0.707107 -0 0.707107
    outer loop
      vertex -59.1 -39.3 19.8773
      vertex -50 39.9 10.7773
      vertex -59.1 39.9 19.8773
    endloop
  endfacet
  facet normal 0.707107 0 0.707107
    outer loop
      vertex -50 39.9 10.7773
      vertex -59.1 -39.3 19.8773
      vertex -50 -39.3 10.7773
    endloop
  endfacet
  facet normal -0.70435 0 0.709853
    outer loop
      vertex 50 39.9 10.2525
      vertex 59.7 -39.3 19.8773
      vertex 59.7 39.9 19.8773
    endloop
  endfacet
  facet normal -0.70435 0 0.709853
    outer loop
      vertex 59.7 -39.3 19.8773
      vertex 50 39.9 10.2525
      vertex 50 -39.3 10.2525
    endloop
  endfacet
  facet normal 0.572828 -0.577339 0.581849
    outer loop
      vertex -39.3 50 10.2525
      vertex -39.3 59.7 19.8773
      vertex -44.15 50 15.0273
    endloop
  endfacet
  facet normal 0.57735 -0.57735 0.57735
    outer loop
      vertex -50 39.9 10.7773
      vertex -50 49 19.8773
      vertex -59.1 39.9 19.8773
    endloop
  endfacet
  facet normal 0.57735 -0.57735 0.57735
    outer loop
      vertex -44.15 50 15.0273
      vertex -39.3 59.7 19.8773
      vertex -49 50 19.8773
    endloop
  endfacet
  facet normal -0 0 1
    outer loop
      vertex -59.1 59.7 19.8773
      vertex -49 50 19.8773
      vertex -39.3 59.7 19.8773
    endloop
  endfacet
  facet normal 0 0 1
    outer loop
      vertex -49 50 19.8773
      vertex -59.1 59.7 19.8773
      vertex -50 50 19.8773
    endloop
  endfacet
  facet normal 0 0 1
    outer loop
      vertex -59.1 39.9 19.8773
      vertex -50 50 19.8773
      vertex -59.1 59.7 19.8773
    endloop
  endfacet
  facet normal 0 0 1
    outer loop
      vertex -50 50 19.8773
      vertex -59.1 39.9 19.8773
      vertex -50 49 19.8773
    endloop
  endfacet
  facet normal 0 -0.70435 0.709853
    outer loop
      vertex -39.3 59.7 19.8773
      vertex 39.9 50 10.2525
      vertex 39.9 59.7 19.8773
    endloop
  endfacet
  facet normal 0 -0.70435 0.709853
    outer loop
      vertex 39.9 50 10.2525
      vertex -39.3 59.7 19.8773
      vertex -39.3 50 10.2525
    endloop
  endfacet
  facet normal -0.575847 -0.575847 0.580346
    outer loop
      vertex 59.7 39.9 19.8773
      vertex 50 49.6 19.8773
      vertex 50 39.9 10.2525
    endloop
  endfacet
  facet normal -0.575847 -0.575847 0.580346
    outer loop
      vertex 49.6 50 19.8773
      vertex 39.9 59.7 19.8773
      vertex 39.9 50 10.2525
    endloop
  endfacet
  facet normal 0 0 1
    outer loop
      vertex 59.7 59.7 19.8773
      vertex 50 50 19.8773
      vertex 59.7 39.9 19.8773
    endloop
  endfacet
  facet normal 0 0 1
    outer loop
      vertex 59.7 59.7 19.8773
      vertex 49.6 50 19.8773
      vertex 50 50 19.8773
    endloop
  endfacet
  facet normal 0 -0 1
    outer loop
      vertex 49.6 50 19.8773
      vertex 59.7 59.7 19.8773
      vertex 39.9 59.7 19.8773
    endloop
  endfacet
  facet normal 0 0 1
    outer loop
      vertex 59.7 39.9 19.8773
      vertex 50 50 19.8773
      vertex 50 49.6 19.8773
    endloop
  endfacet
  facet normal -0.574356 0.57884 0.578843
    outer loop
      vertex -59.1 59.7 19.8773
      vertex -59.1 69.6 9.97734
      vertex -69.0773 59.7 9.97734
    endloop
  endfacet
  facet normal 0 0.707105 0.707108
    outer loop
      vertex 59.7 69.6 9.97734
      vertex 39.9 59.7 19.8773
      vertex 59.7 59.7 19.8773
    endloop
  endfacet
  facet normal 0 0.707105 0.707108
    outer loop
      vertex 39.9 59.7 19.8773
      vertex 59.7 69.6 9.97734
      vertex -39.3 59.7 19.8773
    endloop
  endfacet
  facet normal -0 0.707105 0.707108
    outer loop
      vertex -59.1 69.6 9.97734
      vertex -39.3 59.7 19.8773
      vertex 59.7 69.6 9.97734
    endloop
  endfacet
  facet normal 0 0.707105 0.707108
    outer loop
      vertex -39.3 59.7 19.8773
      vertex -59.1 69.6 9.97734
      vertex -59.1 59.7 19.8773
    endloop
  endfacet
  facet normal 0.577349 0.577349 0.577352
    outer loop
      vertex 69.6 59.7 9.97734
      vertex 59.7 69.6 9.97734
      vertex 59.7 59.7 19.8773
    endloop
  endfacet
  facet normal -1 0 0
    outer loop
      vertex 50 50 0.9
      vertex 50 49.6 19.8773
      vertex 50 50 19.8773
    endloop
  endfacet
  facet normal -1 0 0
    outer loop
      vertex 50 48.7 0.9
      vertex 50 49.6 19.8773
      vertex 50 50 0.9
    endloop
  endfacet
  facet normal -1 0 0
    outer loop
      vertex 50 39.9 10.2525
      vertex 50 48.7 0.9
      vertex 50 39.9 9.69999
    endloop
  endfacet
  facet normal -1 0 0
    outer loop
      vertex 50 48.7 0.9
      vertex 50 39.9 10.2525
      vertex 50 49.6 19.8773
    endloop
  endfacet
  facet normal -1 0 0
    outer loop
      vertex 50 -39.3 9.69999
      vertex 50 39.9 10.2525
      vertex 50 39.9 9.69999
    endloop
  endfacet
  facet normal -1 0 0
    outer loop
      vertex 50 -39.3 9.69999
      vertex 50 -39.3 10.2525
      vertex 50 39.9 10.2525
    endloop
  endfacet
  facet normal -1 0 0
    outer loop
      vertex 50 -44.15 4.88789
      vertex 50 -39.3 10.2525
      vertex 50 -39.3 9.69999
    endloop
  endfacet
  facet normal -1 0 0
    outer loop
      vertex 50 -50 0.9
      vertex 50 -44.15 4.88789
      vertex 50 -48.107 0.9
    endloop
  endfacet
  facet normal -1 0 0
    outer loop
      vertex 50 -44.15 4.88789
      vertex 50 -49 19.8773
      vertex 50 -39.3 10.2525
    endloop
  endfacet
  facet normal -1 0 0
    outer loop
      vertex 50 -50 19.8773
      vertex 50 -44.15 4.88789
      vertex 50 -50 0.9
    endloop
  endfacet
  facet normal -1 0 0
    outer loop
      vertex 50 -44.15 4.88789
      vertex 50 -50 19.8773
      vertex 50 -49 19.8773
    endloop
  endfacet
  facet normal 1 0 0
    outer loop
      vertex -50 44.4144 4.58555
      vertex -50 50 19.8773
      vertex -50 49 19.8773
    endloop
  endfacet
  facet normal 1 0 0
    outer loop
      vertex -50 50 19.8773
      vertex -50 44.4144 4.58555
      vertex -50 50 0.9
    endloop
  endfacet
  facet normal 1 0 0
    outer loop
      vertex -50 50 0.9
      vertex -50 44.4144 4.58555
      vertex -50 48.1 0.9
    endloop
  endfacet
  facet normal 1 -0 0
    outer loop
      vertex -50 39.9 10.7773
      vertex -50 44.4144 4.58555
      vertex -50 49 19.8773
    endloop
  endfacet
  facet normal 1 0 0
    outer loop
      vertex -50 39.9 10.7773
      vertex -50 39.9 9.1711
      vertex -50 44.4144 4.58555
    endloop
  endfacet
  facet normal 1 -0 0
    outer loop
      vertex -50 -39.3 10.7773
      vertex -50 39.9 9.1711
      vertex -50 39.9 10.7773
    endloop
  endfacet
  facet normal 1 0 0
    outer loop
      vertex -50 -39.3 10.7773
      vertex -50 -39.3 9.1711
      vertex -50 39.9 9.1711
    endloop
  endfacet
  facet normal 1 0 0
    outer loop
      vertex -50 -39.3 10.7773
      vertex -50 -47.507 0.9
      vertex -50 -39.3 9.1711
    endloop
  endfacet
  facet normal 1 0 0
    outer loop
      vertex -50 -48.4 19.8773
      vertex -50 -47.507 0.9
      vertex -50 -39.3 10.7773
    endloop
  endfacet
  facet normal 1 0 0
    outer loop
      vertex -50 -50 0.9
      vertex -50 -48.4 19.8773
      vertex -50 -50 19.8773
    endloop
  endfacet
  facet normal 1 0 0
    outer loop
      vertex -50 -48.4 19.8773
      vertex -50 -50 0.9
      vertex -50 -47.507 0.9
    endloop
  endfacet
  facet normal 0 -1 0
    outer loop
      vertex -50 50 19.8773
      vertex -44.15 50 15.0273
      vertex -49 50 19.8773
    endloop
  endfacet
  facet normal 0 -1 0
    outer loop
      vertex -50 50 0.9
      vertex -44.15 50 15.0273
      vertex -50 50 19.8773
    endloop
  endfacet
  facet normal 0 -1 0
    outer loop
      vertex -39.3 50 10.2525
      vertex -39.3 50 9.69999
      vertex 39.9 50 10.2525
    endloop
  endfacet
  facet normal -0 -1 0
    outer loop
      vertex -39.3 50 9.69999
      vertex -44.15 50 15.0273
      vertex -48.1 50 0.9
    endloop
  endfacet
  facet normal 0 -1 0
    outer loop
      vertex -44.15 50 15.0273
      vertex -50 50 0.9
      vertex -48.1 50 0.9
    endloop
  endfacet
  facet normal 0 -1 0
    outer loop
      vertex -44.15 50 15.0273
      vertex -39.3 50 9.69999
      vertex -39.3 50 10.2525
    endloop
  endfacet
  facet normal 0 -1 0
    outer loop
      vertex 48.7 50 0.9
      vertex 49.6 50 19.8773
      vertex 39.9 50 10.2525
    endloop
  endfacet
  facet normal 0 -1 0
    outer loop
      vertex 39.9 50 9.69999
      vertex 39.9 50 10.2525
      vertex -39.3 50 9.69999
    endloop
  endfacet
  facet normal 0 -1 0
    outer loop
      vertex 48.7 50 0.9
      vertex 39.9 50 10.2525
      vertex 39.9 50 9.69999
    endloop
  endfacet
  facet normal 0 -1 0
    outer loop
      vertex 50 50 0.9
      vertex 49.6 50 19.8773
      vertex 48.7 50 0.9
    endloop
  endfacet
  facet normal 0 -1 0
    outer loop
      vertex 49.6 50 19.8773
      vertex 50 50 0.9
      vertex 50 50 19.8773
    endloop
  endfacet
  facet normal 0 1 0
    outer loop
      vertex 50 -50 19.8773
      vertex 44.4144 -50 15.3273
      vertex 49 -50 19.8773
    endloop
  endfacet
  facet normal 0 1 -0
    outer loop
      vertex 50 -50 0.9
      vertex 44.4144 -50 15.3273
      vertex 50 -50 19.8773
    endloop
  endfacet
  facet normal 0 1 0
    outer loop
      vertex 39.9 -50 10.7773
      vertex 39.9 -50 9.1711
      vertex -39.3 -50 10.7773
    endloop
  endfacet
  facet normal 0 1 -0
    outer loop
      vertex 48.107 -50 0.9
      vertex 44.4144 -50 15.3273
      vertex 50 -50 0.9
    endloop
  endfacet
  facet normal 0 1 0
    outer loop
      vertex 44.4144 -50 15.3273
      vertex 39.9 -50 9.1711
      vertex 39.9 -50 10.7773
    endloop
  endfacet
  facet normal 0 1 0
    outer loop
      vertex 44.4144 -50 15.3273
      vertex 48.107 -50 0.9
      vertex 39.9 -50 9.1711
    endloop
  endfacet
  facet normal 0 1 0
    outer loop
      vertex -50 -50 0.9
      vertex -48.4 -50 19.8773
      vertex -39.3 -50 10.7773
    endloop
  endfacet
  facet normal 0 1 0
    outer loop
      vertex -39.3 -50 9.1711
      vertex -39.3 -50 10.7773
      vertex 39.9 -50 9.1711
    endloop
  endfacet
  facet normal 0 1 0
    outer loop
      vertex -47.507 -50 0.9
      vertex -39.3 -50 10.7773
      vertex -39.3 -50 9.1711
    endloop
  endfacet
  facet normal 0 1 0
    outer loop
      vertex -50 -50 0.9
      vertex -39.3 -50 10.7773
      vertex -47.507 -50 0.9
    endloop
  endfacet
  facet normal 0 1 0
    outer loop
      vertex -48.4 -50 19.8773
      vertex -50 -50 0.9
      vertex -50 -50 19.8773
    endloop
  endfacet
endsolid OpenSCAD_Model
