solid OpenSCAD_Model
  facet normal -0 0 -1
    outer loop
      vertex -50 48.1 0.9
      vertex -57.314 40.786 0.9
      vertex -50 50 0.9
    endloop
  endfacet
  facet normal 0 0 -1
    outer loop
      vertex 59.7 -99.6 0.9
      vertex 59.7 -97.807 0.9
      vertex 60.593 -98.7 0.9
    endloop
  endfacet
  facet normal 0 0 -1
    outer loop
      vertex 59.7 -99.6 0.9
      vertex 58.807 -96.914 0.9
      vertex 59.7 -97.807 0.9
    endloop
  endfacet
  facet normal 0 0 -1
    outer loop
      vertex 59.7 -99.6 0.9
      vertex 40.793 -78.9 0.9
      vertex 58.807 -96.914 0.9
    endloop
  endfacet
  facet normal 0 0 -1
    outer loop
      vertex 40.793 -78.9 0.9
      vertex -39.3 -58.207 0.9
      vertex 39.9 -58.207 0.9
    endloop
  endfacet
  facet normal 0 0 -1
    outer loop
      vertex -98.7 -99.6 0.9
      vertex 40.793 -78.9 0.9
      vertex 59.7 -99.6 0.9
    endloop
  endfacet
  facet normal 0 0 -1
    outer loop
      vertex -39.3 -58.207 0.9
      vertex -50 -50 0.9
      vertex -47.507 -50 0.9
    endloop
  endfacet
  facet normal 0 0 -1
    outer loop
      vertex -50 -50 0.9
      vertex -58.207 -39.3 0.9
      vertex -50 -47.507 0.9
    endloop
  endfacet
  facet normal 0 0 -1
    outer loop
      vertex -78.9 40.793 0.9
      vertex -58.207 39.9 0.9
      vertex -58.207 -39.3 0.9
    endloop
  endfacet
  facet normal 0 0 -1
    outer loop
      vertex -58.207 39.9 0.9
      vertex -60 59.7 0.9
      vertex -59.1 60.593 0.9
    endloop
  endfacet
  facet normal 0 0 -1
    outer loop
      vertex -58.207 39.9 0.9
      vertex -60.886 58.807 0.9
      vertex -60 59.7 0.9
    endloop
  endfacet
  facet normal 0 0 -1
    outer loop
      vertex -58.207 39.9 0.9
      vertex -78.9 40.793 0.9
      vertex -60.886 58.807 0.9
    endloop
  endfacet
  facet normal 0 0 -1
    outer loop
      vertex -58.207 -39.3 0.9
      vertex -79.793 41.686 0.9
      vertex -78.9 40.793 0.9
    endloop
  endfacet
  facet normal 0 0 -1
    outer loop
      vertex -99.6 -98.7 0.9
      vertex -79.793 41.686 0.9
      vertex -58.207 -39.3 0.9
    endloop
  endfacet
  facet normal -0 0 -1
    outer loop
      vertex 40.793 -78.9 0.9
      vertex -98.7 -99.6 0.9
      vertex -39.3 -58.207 0.9
    endloop
  endfacet
  facet normal 0 0 -1
    outer loop
      vertex -98.7 -99.6 0.9
      vertex -50 -50 0.9
      vertex -39.3 -58.207 0.9
    endloop
  endfacet
  facet normal 0 0 -1
    outer loop
      vertex -99.6 -98.7 0.9
      vertex -50 -50 0.9
      vertex -98.7 -99.6 0.9
    endloop
  endfacet
  facet normal -0 0 -1
    outer loop
      vertex -50 -50 0.9
      vertex -99.6 -98.7 0.9
      vertex -58.207 -39.3 0.9
    endloop
  endfacet
  facet normal -0 0 -1
    outer loop
      vertex -79.793 41.686 0.9
      vertex -99.6 -98.7 0.9
      vertex -99.6 59.7 0.9
    endloop
  endfacet
  facet normal 0 0 -1
    outer loop
      vertex -79.793 41.686 0.9
      vertex -99.6 59.7 0.9
      vertex -97.807 59.7 0.9
    endloop
  endfacet
  facet normal 0 0 -1
    outer loop
      vertex -97.807 59.7 0.9
      vertex -99.6 59.7 0.9
      vertex -98.7 60.593 0.9
    endloop
  endfacet
  facet normal 0 0 -1
    outer loop
      vertex 50 -50 0.9
      vertex 60.593 -59.1 0.9
      vertex 59.7 -60 0.9
    endloop
  endfacet
  facet normal 0 0 -1
    outer loop
      vertex 60.593 -59.1 0.9
      vertex 58.8 -39.3 0.9
      vertex 60.593 59.7 0.9
    endloop
  endfacet
  facet normal 0 0 -1
    outer loop
      vertex 58.8 39.9 0.9
      vertex 60.593 59.7 0.9
      vertex 58.8 -39.3 0.9
    endloop
  endfacet
  facet normal 0 0 -1
    outer loop
      vertex 60.593 -59.1 0.9
      vertex 57.914 -40.193 0.9
      vertex 58.8 -39.3 0.9
    endloop
  endfacet
  facet normal 0 0 -1
    outer loop
      vertex 60.593 -59.1 0.9
      vertex 50 -50 0.9
      vertex 57.914 -40.193 0.9
    endloop
  endfacet
  facet normal 0 0 -1
    outer loop
      vertex 39.9 -58.207 0.9
      vertex 50 -50 0.9
      vertex 59.7 -60 0.9
    endloop
  endfacet
  facet normal 0 0 -1
    outer loop
      vertex 39.9 -58.207 0.9
      vertex 59.7 -60 0.9
      vertex 41.686 -78.014 0.9
    endloop
  endfacet
  facet normal 0 0 -1
    outer loop
      vertex 39.9 -58.207 0.9
      vertex 41.686 -78.014 0.9
      vertex 40.793 -78.9 0.9
    endloop
  endfacet
  facet normal -0 0 -1
    outer loop
      vertex 50 -50 0.9
      vertex 39.9 -58.207 0.9
      vertex 48.107 -50 0.9
    endloop
  endfacet
  facet normal 0 0 -1
    outer loop
      vertex 50 50 0.9
      vertex 60.593 59.7 0.9
      vertex 58.8 39.9 0.9
    endloop
  endfacet
  facet normal 0 0 -1
    outer loop
      vertex 50 50 0.9
      vertex 58.8 39.9 0.9
      vertex 50 48.7 0.9
    endloop
  endfacet
  facet normal -0 0 -1
    outer loop
      vertex 60.593 59.7 0.9
      vertex 50 50 0.9
      vertex 59.7 60.593 0.9
    endloop
  endfacet
  facet normal 0 0 -1
    outer loop
      vertex 39.9 58.8 0.9
      vertex 50 50 0.9
      vertex 48.7 50 0.9
    endloop
  endfacet
  facet normal 0 0 -1
    outer loop
      vertex 50 50 0.9
      vertex 39.9 58.8 0.9
      vertex 59.7 60.593 0.9
    endloop
  endfacet
  facet normal 0 0 -1
    outer loop
      vertex -39.3 58.8 0.9
      vertex 59.7 60.593 0.9
      vertex 39.9 58.8 0.9
    endloop
  endfacet
  facet normal 0 0 -1
    outer loop
      vertex -50 50 0.9
      vertex -39.3 58.8 0.9
      vertex -48.1 50 0.9
    endloop
  endfacet
  facet normal 0 0 -1
    outer loop
      vertex -59.1 60.593 0.9
      vertex -57.314 40.786 0.9
      vertex -58.207 39.9 0.9
    endloop
  endfacet
  facet normal 0 0 -1
    outer loop
      vertex -39.3 58.8 0.9
      vertex -59.1 60.593 0.9
      vertex 59.7 60.593 0.9
    endloop
  endfacet
  facet normal 0 0 -1
    outer loop
      vertex -50 50 0.9
      vertex -59.1 60.593 0.9
      vertex -39.3 58.8 0.9
    endloop
  endfacet
  facet normal 0 0 -1
    outer loop
      vertex -57.314 40.786 0.9
      vertex -59.1 60.593 0.9
      vertex -50 50 0.9
    endloop
  endfacet
  facet normal 0 0 -1
    outer loop
      vertex 57.914 -40.193 0.9
      vertex 50 -50 0.9
      vertex 50 -48.107 0.9
    endloop
  endfacet
  facet normal -0.577357 -0.577357 -0.577336
    outer loop
      vertex -98.7 -108.677 9.97734
      vertex -99.6 -98.7 0.9
      vertex -98.7 -99.6 0.9
    endloop
  endfacet
  facet normal -0.577357 -0.577357 -0.577336
    outer loop
      vertex -99.6 -98.7 0.9
      vertex -98.7 -108.677 9.97734
      vertex -108.677 -98.7 9.97734
    endloop
  endfacet
  facet normal 0 -0.70712 -0.707094
    outer loop
      vertex -98.7 -108.677 9.97734
      vertex 59.7 -99.6 0.9
      vertex 59.7 -108.677 9.97734
    endloop
  endfacet
  facet normal -0 -0.70712 -0.707094
    outer loop
      vertex 59.7 -99.6 0.9
      vertex -98.7 -108.677 9.97734
      vertex -98.7 -99.6 0.9
    endloop
  endfacet
  facet normal 0.58035 -0.575836 -0.575853
    outer loop
      vertex 69.6 -98.7 9.97734
      vertex 59.7 -99.6 0.9
      vertex 60.593 -98.7 0.9
    endloop
  endfacet
  facet normal 0.58034 -0.575861 -0.575839
    outer loop
      vertex 59.7 -99.6 0.9
      vertex 69.6 -98.7 9.97734
      vertex 59.7 -108.677 9.97734
    endloop
  endfacet
  facet normal -0.70712 0 -0.707094
    outer loop
      vertex -108.677 -98.7 9.97734
      vertex -99.6 59.7 0.9
      vertex -99.6 -98.7 0.9
    endloop
  endfacet
  facet normal -0.70712 0 -0.707094
    outer loop
      vertex -99.6 59.7 0.9
      vertex -108.677 -98.7 9.97734
      vertex -108.677 59.7 9.97734
    endloop
  endfacet
  facet normal 0.578842 0.578842 -0.574356
    outer loop
      vertex 59.7 -88.8 9.97734
      vertex 58.807 -96.914 0.9
      vertex 49.8 -78.9 9.97734
    endloop
  endfacet
  facet normal 0.578842 0.578842 -0.574356
    outer loop
      vertex 58.807 -96.914 0.9
      vertex 59.7 -88.8 9.97734
      vertex 59.7 -97.807 0.9
    endloop
  endfacet
  facet normal 0.578842 0.578842 -0.574356
    outer loop
      vertex 49.8 -78.9 9.97734
      vertex 58.807 -96.914 0.9
      vertex 40.793 -78.9 0.9
    endloop
  endfacet
  facet normal 0.578842 0.578842 -0.574356
    outer loop
      vertex 69.6 -98.7 9.97734
      vertex 59.7 -97.807 0.9
      vertex 59.7 -88.8 9.97734
    endloop
  endfacet
  facet normal 0.578842 0.578842 -0.574356
    outer loop
      vertex 59.7 -97.807 0.9
      vertex 69.6 -98.7 9.97734
      vertex 60.593 -98.7 0.9
    endloop
  endfacet
  facet normal 0.577309 -0.58187 -0.572836
    outer loop
      vertex 41.686 -78.014 0.9
      vertex 49.8 -78.9 9.97734
      vertex 40.793 -78.9 0.9
    endloop
  endfacet
  facet normal 0.577316 -0.581859 -0.572841
    outer loop
      vertex 49.8 -78.9 9.97734
      vertex 41.686 -78.014 0.9
      vertex 59.7 -69.0773 9.97734
    endloop
  endfacet
  facet normal 0.577351 -0.577351 -0.577349
    outer loop
      vertex 59.7 -60 0.9
      vertex 59.7 -69.0773 9.97734
      vertex 41.686 -78.014 0.9
    endloop
  endfacet
  facet normal 0.58035 -0.575836 -0.575853
    outer loop
      vertex 69.6 -59.1 9.97734
      vertex 59.7 -60 0.9
      vertex 60.593 -59.1 0.9
    endloop
  endfacet
  facet normal 0.580345 -0.575848 -0.575846
    outer loop
      vertex 59.7 -60 0.9
      vertex 69.6 -59.1 9.97734
      vertex 59.7 -69.0773 9.97734
    endloop
  endfacet
  facet normal 0.578842 0.578842 -0.574356
    outer loop
      vertex -50 -39.3 9.1711
      vertex -50 -47.507 0.9
      vertex -58.207 -39.3 0.9
    endloop
  endfacet
  facet normal 0.578842 0.578842 -0.574356
    outer loop
      vertex -39.3 -50 9.1711
      vertex -39.3 -58.207 0.9
      vertex -47.507 -50 0.9
    endloop
  endfacet
  facet normal 0 0.709852 -0.704351
    outer loop
      vertex 39.9 -58.207 0.9
      vertex -39.3 -50 9.1711
      vertex 39.9 -50 9.1711
    endloop
  endfacet
  facet normal 0 0.709852 -0.704351
    outer loop
      vertex -39.3 -50 9.1711
      vertex 39.9 -58.207 0.9
      vertex -39.3 -58.207 0.9
    endloop
  endfacet
  facet normal -0.578853 0.574331 -0.578855
    outer loop
      vertex 50 -39.3 9.69999
      vertex 57.914 -40.193 0.9
      vertex 50 -44.15 4.88789
    endloop
  endfacet
  facet normal -0.578859 0.574321 -0.578859
    outer loop
      vertex 57.914 -40.193 0.9
      vertex 50 -39.3 9.69999
      vertex 58.8 -39.3 0.9
    endloop
  endfacet
  facet normal -0.578842 0.578842 -0.574356
    outer loop
      vertex 39.9 -50 9.1711
      vertex 48.107 -50 0.9
      vertex 39.9 -58.207 0.9
    endloop
  endfacet
  facet normal -0.578841 0.578841 -0.574357
    outer loop
      vertex 50 -44.15 4.88789
      vertex 57.914 -40.193 0.9
      vertex 50 -48.107 0.9
    endloop
  endfacet
  facet normal 0.709852 0 -0.704351
    outer loop
      vertex 69.6 -59.1 9.97734
      vertex 60.593 59.7 0.9
      vertex 69.6 59.7 9.97734
    endloop
  endfacet
  facet normal 0.709852 0 -0.704351
    outer loop
      vertex 60.593 59.7 0.9
      vertex 69.6 -59.1 9.97734
      vertex 60.593 -59.1 0.9
    endloop
  endfacet
  facet normal 0.709852 0 -0.704351
    outer loop
      vertex -50 -39.3 9.1711
      vertex -58.207 39.9 0.9
      vertex -50 39.9 9.1711
    endloop
  endfacet
  facet normal 0.709852 0 -0.704351
    outer loop
      vertex -58.207 39.9 0.9
      vertex -50 -39.3 9.1711
      vertex -58.207 -39.3 0.9
    endloop
  endfacet
  facet normal -0.707106 0 -0.707107
    outer loop
      vertex 50 -39.3 9.69999
      vertex 58.8 39.9 0.9
      vertex 58.8 -39.3 0.9
    endloop
  endfacet
  facet normal -0.707106 0 -0.707107
    outer loop
      vertex 58.8 39.9 0.9
      vertex 50 -39.3 9.69999
      vertex 50 39.9 9.69999
    endloop
  endfacet
  facet normal 0.578842 0.578842 -0.574356
    outer loop
      vertex -78.9 49.8 9.97734
      vertex -79.793 41.686 0.9
      vertex -88.8 59.7 9.97734
    endloop
  endfacet
  facet normal 0.578842 0.578842 -0.574356
    outer loop
      vertex -79.793 41.686 0.9
      vertex -78.9 49.8 9.97734
      vertex -78.9 40.793 0.9
    endloop
  endfacet
  facet normal 0.578842 0.578842 -0.574356
    outer loop
      vertex -88.8 59.7 9.97734
      vertex -79.793 41.686 0.9
      vertex -97.807 59.7 0.9
    endloop
  endfacet
  facet normal -0.57886 0.574322 -0.578857
    outer loop
      vertex -60.886 58.807 0.9
      vertex -69.0773 59.7 9.97734
      vertex -60 59.7 0.9
    endloop
  endfacet
  facet normal -0.578853 0.574333 -0.578852
    outer loop
      vertex -69.0773 59.7 9.97734
      vertex -60.886 58.807 0.9
      vertex -78.9 49.8 9.97734
    endloop
  endfacet
  facet normal -0.578842 0.578842 -0.574356
    outer loop
      vertex -78.9 49.8 9.97734
      vertex -60.886 58.807 0.9
      vertex -78.9 40.793 0.9
    endloop
  endfacet
  facet normal 0.577309 -0.581871 -0.572835
    outer loop
      vertex -57.314 40.786 0.9
      vertex -50 39.9 9.1711
      vertex -58.207 39.9 0.9
    endloop
  endfacet
  facet normal 0.577312 -0.581866 -0.572837
    outer loop
      vertex -50 39.9 9.1711
      vertex -57.314 40.786 0.9
      vertex -50 44.4144 4.58555
    endloop
  endfacet
  facet normal 0.577348 -0.577348 -0.577355
    outer loop
      vertex -50 48.1 0.9
      vertex -50 44.4144 4.58555
      vertex -57.314 40.786 0.9
    endloop
  endfacet
  facet normal 0.57735 -0.57735 -0.577351
    outer loop
      vertex -39.3 58.8 0.9
      vertex -39.3 50 9.69999
      vertex -48.1 50 0.9
    endloop
  endfacet
  facet normal 0 -0.707106 -0.707107
    outer loop
      vertex -39.3 50 9.69999
      vertex 39.9 58.8 0.9
      vertex 39.9 50 9.69999
    endloop
  endfacet
  facet normal -0 -0.707106 -0.707107
    outer loop
      vertex 39.9 58.8 0.9
      vertex -39.3 50 9.69999
      vertex -39.3 58.8 0.9
    endloop
  endfacet
  facet normal -0.57735 -0.57735 -0.577351
    outer loop
      vertex 39.9 58.8 0.9
      vertex 48.7 50 0.9
      vertex 39.9 50 9.69999
    endloop
  endfacet
  facet normal -0.57735 -0.57735 -0.577351
    outer loop
      vertex 50 48.7 0.9
      vertex 58.8 39.9 0.9
      vertex 50 39.9 9.69999
    endloop
  endfacet
  facet normal -0.575836 0.58035 -0.575853
    outer loop
      vertex -99.6 59.7 0.9
      vertex -98.7 69.6 9.97734
      vertex -98.7 60.593 0.9
    endloop
  endfacet
  facet normal -0.575861 0.58034 -0.575839
    outer loop
      vertex -98.7 69.6 9.97734
      vertex -99.6 59.7 0.9
      vertex -108.677 59.7 9.97734
    endloop
  endfacet
  facet normal 0.578842 0.578842 -0.574356
    outer loop
      vertex -97.807 59.7 0.9
      vertex -98.7 69.6 9.97734
      vertex -88.8 59.7 9.97734
    endloop
  endfacet
  facet normal 0.578842 0.578842 -0.574356
    outer loop
      vertex -98.7 69.6 9.97734
      vertex -97.807 59.7 0.9
      vertex -98.7 60.593 0.9
    endloop
  endfacet
  facet normal -0.575836 0.58035 -0.575853
    outer loop
      vertex -60 59.7 0.9
      vertex -59.1 69.6 9.97734
      vertex -59.1 60.593 0.9
    endloop
  endfacet
  facet normal -0.575848 0.580345 -0.575846
    outer loop
      vertex -59.1 69.6 9.97734
      vertex -60 59.7 0.9
      vertex -69.0773 59.7 9.97734
    endloop
  endfacet
  facet normal 0 0.709852 -0.704351
    outer loop
      vertex 59.7 60.593 0.9
      vertex -59.1 69.6 9.97734
      vertex 59.7 69.6 9.97734
    endloop
  endfacet
  facet normal 0 0.709852 -0.704351
    outer loop
      vertex -59.1 69.6 9.97734
      vertex 59.7 60.593 0.9
      vertex -59.1 60.593 0.9
    endloop
  endfacet
  facet normal 0.578842 0.578842 -0.574356
    outer loop
      vertex 69.6 59.7 9.97734
      vertex 59.7 60.593 0.9
      vertex 59.7 69.6 9.97734
    endloop
  endfacet
  facet normal 0.578842 0.578842 -0.574356
    outer loop
      vertex 59.7 60.593 0.9
      vertex 69.6 59.7 9.97734
      vertex 60.593 59.7 0.9
    endloop
  endfacet
  facet normal -0.707107 -0.707107 0
    outer loop
      vertex -98.7 -108.677 9.97734
      vertex -108.677 -98.7 108.977
      vertex -108.677 -98.7 9.97734
    endloop
  endfacet
  facet normal -0.707107 -0.707107 0
    outer loop
      vertex -108.677 -98.7 108.977
      vertex -98.7 -108.677 9.97734
      vertex -98.7 -108.677 108.977
    endloop
  endfacet
  facet normal 0 -1 0
    outer loop
      vertex -98.7 -108.677 9.97734
      vertex 20.1 -108.677 108.977
      vertex -98.7 -108.677 108.977
    endloop
  endfacet
  facet normal 0 -1 0
    outer loop
      vertex 20.1 -108.677 108.977
      vertex 39.9 -108.677 49.5773
      vertex 39.9 -108.677 89.1773
    endloop
  endfacet
  facet normal 0 -1 -0
    outer loop
      vertex 20.1 -108.677 108.977
      vertex -98.7 -108.677 9.97734
      vertex 39.9 -108.677 49.5773
    endloop
  endfacet
  facet normal 0 -1 0
    outer loop
      vertex 59.7 -108.677 9.97734
      vertex 39.9 -108.677 49.5773
      vertex -98.7 -108.677 9.97734
    endloop
  endfacet
  facet normal 0 -1 0
    outer loop
      vertex 39.9 -108.677 49.5773
      vertex 59.7 -108.677 9.97734
      vertex 59.7 -108.677 29.7773
    endloop
  endfacet
  facet normal 0.709841 -0.704362 0
    outer loop
      vertex 59.7 -108.677 29.7773
      vertex 69.6 -98.7 9.97734
      vertex 69.6 -98.7 29.7773
    endloop
  endfacet
  facet normal 0.709841 -0.704362 0
    outer loop
      vertex 69.6 -98.7 9.97734
      vertex 59.7 -108.677 29.7773
      vertex 59.7 -108.677 9.97734
    endloop
  endfacet
  facet normal -1 0 0
    outer loop
      vertex -108.677 39.9 29.7773
      vertex -108.677 20.1 89.1773
      vertex -108.677 39.9 69.3773
    endloop
  endfacet
  facet normal -1 0 0
    outer loop
      vertex -108.677 -98.7 9.97734
      vertex -108.677 39.9 29.7773
      vertex -108.677 59.7 9.97734
    endloop
  endfacet
  facet normal -1 0 0
    outer loop
      vertex -108.677 -98.7 9.97734
      vertex -108.677 20.1 89.1773
      vertex -108.677 39.9 29.7773
    endloop
  endfacet
  facet normal -1 0 0
    outer loop
      vertex -108.677 -98.7 108.977
      vertex -108.677 20.1 89.1773
      vertex -108.677 -98.7 9.97734
    endloop
  endfacet
  facet normal -1 0 0
    outer loop
      vertex -108.677 20.1 89.1773
      vertex -108.677 -98.7 108.977
      vertex -108.677 20.1 108.977
    endloop
  endfacet
  facet normal 0.707107 0.707107 0
    outer loop
      vertex 59.7 -88.8 29.7773
      vertex 49.8 -78.9 9.97734
      vertex 49.8 -78.9 29.7773
    endloop
  endfacet
  facet normal 0.707107 0.707107 0
    outer loop
      vertex 49.8 -78.9 9.97734
      vertex 59.7 -88.8 29.7773
      vertex 59.7 -88.8 9.97734
    endloop
  endfacet
  facet normal 0.707107 0.707107 0
    outer loop
      vertex 69.6 -98.7 29.7773
      vertex 59.7 -88.8 9.97734
      vertex 59.7 -88.8 29.7773
    endloop
  endfacet
  facet normal 0.707107 0.707107 0
    outer loop
      vertex 59.7 -88.8 9.97734
      vertex 69.6 -98.7 29.7773
      vertex 69.6 -98.7 9.97734
    endloop
  endfacet
  facet normal 0.57283 -0.577338 0.581848
    outer loop
      vertex 59.7 -69.0773 9.97734
      vertex 59.7 -59.1 19.8773
      vertex 49.8 -78.9 9.97734
    endloop
  endfacet
  facet normal 0.577351 -0.577349 0.577351
    outer loop
      vertex 59.7 -59.1 19.8773
      vertex 49.8 -59.1 29.7773
      vertex 49.8 -78.9 9.97734
    endloop
  endfacet
  facet normal 0.57884 -0.574356 0.578843
    outer loop
      vertex 69.6 -59.1 9.97734
      vertex 59.7 -59.1 19.8773
      vertex 59.7 -69.0773 9.97734
    endloop
  endfacet
  facet normal 0.577349 0.578853 0.575845
    outer loop
      vertex 59.7 -59.1 19.8773
      vertex 50 -50 20.4551
      vertex 41.5 -50 28.9773
    endloop
  endfacet
  facet normal 0.577349 0.578853 0.575846
    outer loop
      vertex 50 -50 20.4551
      vertex 59.7 -59.1 19.8773
      vertex 50 -39.8504 10.2525
    endloop
  endfacet
  facet normal 0.57735 0.57735 0.57735
    outer loop
      vertex 49.8 -59.1 29.7773
      vertex 41.5 -50 28.9773
      vertex 40.7 -50 29.7773
    endloop
  endfacet
  facet normal 0.57735 0.57735 0.57735
    outer loop
      vertex 41.5 -50 28.9773
      vertex 49.8 -59.1 29.7773
      vertex 59.7 -59.1 19.8773
    endloop
  endfacet
  facet normal 0.707105 -0 0.707108
    outer loop
      vertex 59.7 39.9 19.8773
      vertex 69.6 59.7 9.97734
      vertex 59.7 59.7 19.8773
    endloop
  endfacet
  facet normal 0.707105 0 0.707108
    outer loop
      vertex 69.6 -59.1 9.97734
      vertex 59.7 39.9 19.8773
      vertex 59.7 -59.1 19.8773
    endloop
  endfacet
  facet normal 0.707105 0 0.707108
    outer loop
      vertex 59.7 39.9 19.8773
      vertex 69.6 -59.1 9.97734
      vertex 69.6 59.7 9.97734
    endloop
  endfacet
  facet normal -0.70435 0 0.709853
    outer loop
      vertex 50 -39.8504 10.2525
      vertex 59.7 39.9 19.8773
      vertex 50 39.9 10.2525
    endloop
  endfacet
  facet normal -0.70435 0 0.709853
    outer loop
      vertex 59.7 39.9 19.8773
      vertex 50 -39.8504 10.2525
      vertex 59.7 -59.1 19.8773
    endloop
  endfacet
  facet normal 0.57735 0.57735 0.57735
    outer loop
      vertex -59.1 30 29.7773
      vertex -59.1 39.9 19.8773
      vertex -69 39.9 29.7773
    endloop
  endfacet
  facet normal 0.57735 0.57735 0.57735
    outer loop
      vertex -59.1 30 29.7773
      vertex -50 21.7 28.9773
      vertex -59.1 39.9 19.8773
    endloop
  endfacet
  facet normal 0.57735 0.57735 0.57735
    outer loop
      vertex -50 21.7 28.9773
      vertex -59.1 30 29.7773
      vertex -50 20.9 29.7773
    endloop
  endfacet
  facet normal 0.57735 0.57735 0.57735
    outer loop
      vertex -50 21.7 28.9773
      vertex -50 39.9 10.7773
      vertex -59.1 39.9 19.8773
    endloop
  endfacet
  facet normal -0.574367 0.578836 0.578836
    outer loop
      vertex -98.7 49.8 29.7773
      vertex -98.7 59.7 19.8773
      vertex -108.677 59.7 9.97734
    endloop
  endfacet
  facet normal -0.574368 0.578835 0.578836
    outer loop
      vertex -98.7 49.8 29.7773
      vertex -108.677 59.7 9.97734
      vertex -108.677 39.9 29.7773
    endloop
  endfacet
  facet normal 0.577349 0.577351 0.577351
    outer loop
      vertex -78.9 49.8 9.97734
      vertex -98.7 59.7 19.8773
      vertex -98.7 49.8 29.7773
    endloop
  endfacet
  facet normal 0.577349 0.577349 0.577352
    outer loop
      vertex -98.7 59.7 19.8773
      vertex -78.9 49.8 9.97734
      vertex -88.8 59.7 9.97734
    endloop
  endfacet
  facet normal -0.70435 0 0.709853
    outer loop
      vertex -59.1 39.9 19.8773
      vertex -59.1 59.7 19.8773
      vertex -69.0773 59.7 9.97734
    endloop
  endfacet
  facet normal 0.577349 0.578851 0.575847
    outer loop
      vertex -59.1 39.9 19.8773
      vertex -69.0773 59.7 9.97734
      vertex -78.9 49.8 29.7773
    endloop
  endfacet
  facet normal -0.709873 0.70433 0
    outer loop
      vertex -78.9 49.8 29.7773
      vertex -69.0773 59.7 9.97734
      vertex -78.9 49.8 9.97734
    endloop
  endfacet
  facet normal 0.57735 0.57735 0.57735
    outer loop
      vertex -69 39.9 29.7773
      vertex -59.1 39.9 19.8773
      vertex -78.9 49.8 29.7773
    endloop
  endfacet
  facet normal 0.572828 -0.577339 0.581849
    outer loop
      vertex -39.3 50 10.2525
      vertex -39.3 59.7 19.8773
      vertex -44.15 50 15.0273
    endloop
  endfacet
  facet normal 0.57735 -0.57735 0.57735
    outer loop
      vertex -50 39.9 10.7773
      vertex -50 49 19.8773
      vertex -59.1 39.9 19.8773
    endloop
  endfacet
  facet normal 0.57735 -0.57735 0.57735
    outer loop
      vertex -44.15 50 15.0273
      vertex -39.3 59.7 19.8773
      vertex -49 50 19.8773
    endloop
  endfacet
  facet normal -0 0 1
    outer loop
      vertex -59.1 59.7 19.8773
      vertex -49 50 19.8773
      vertex -39.3 59.7 19.8773
    endloop
  endfacet
  facet normal 0 0 1
    outer loop
      vertex -49 50 19.8773
      vertex -59.1 59.7 19.8773
      vertex -50 50 19.8773
    endloop
  endfacet
  facet normal 0 0 1
    outer loop
      vertex -59.1 39.9 19.8773
      vertex -50 50 19.8773
      vertex -59.1 59.7 19.8773
    endloop
  endfacet
  facet normal 0 0 1
    outer loop
      vertex -50 50 19.8773
      vertex -59.1 39.9 19.8773
      vertex -50 49 19.8773
    endloop
  endfacet
  facet normal 0 -0.70435 0.709853
    outer loop
      vertex -39.3 59.7 19.8773
      vertex 39.9 50 10.2525
      vertex 39.9 59.7 19.8773
    endloop
  endfacet
  facet normal 0 -0.70435 0.709853
    outer loop
      vertex 39.9 50 10.2525
      vertex -39.3 59.7 19.8773
      vertex -39.3 50 10.2525
    endloop
  endfacet
  facet normal -0.575847 -0.575847 0.580346
    outer loop
      vertex 59.7 39.9 19.8773
      vertex 50 49.6 19.8773
      vertex 50 39.9 10.2525
    endloop
  endfacet
  facet normal -0.575847 -0.575847 0.580346
    outer loop
      vertex 49.6 50 19.8773
      vertex 39.9 59.7 19.8773
      vertex 39.9 50 10.2525
    endloop
  endfacet
  facet normal 0 0 1
    outer loop
      vertex 59.7 59.7 19.8773
      vertex 50 50 19.8773
      vertex 59.7 39.9 19.8773
    endloop
  endfacet
  facet normal 0 0 1
    outer loop
      vertex 59.7 59.7 19.8773
      vertex 49.6 50 19.8773
      vertex 50 50 19.8773
    endloop
  endfacet
  facet normal 0 -0 1
    outer loop
      vertex 49.6 50 19.8773
      vertex 59.7 59.7 19.8773
      vertex 39.9 59.7 19.8773
    endloop
  endfacet
  facet normal 0 0 1
    outer loop
      vertex 59.7 39.9 19.8773
      vertex 50 50 19.8773
      vertex 50 49.6 19.8773
    endloop
  endfacet
  facet normal -0.574367 0.578835 0.578837
    outer loop
      vertex -98.7 59.7 19.8773
      vertex -98.7 69.6 9.97734
      vertex -108.677 59.7 9.97734
    endloop
  endfacet
  facet normal 0.577349 0.577349 0.577352
    outer loop
      vertex -88.8 59.7 9.97734
      vertex -98.7 69.6 9.97734
      vertex -98.7 59.7 19.8773
    endloop
  endfacet
  facet normal -0.574356 0.57884 0.578843
    outer loop
      vertex -59.1 59.7 19.8773
      vertex -59.1 69.6 9.97734
      vertex -69.0773 59.7 9.97734
    endloop
  endfacet
  facet normal 0 0.707105 0.707108
    outer loop
      vertex 59.7 69.6 9.97734
      vertex 39.9 59.7 19.8773
      vertex 59.7 59.7 19.8773
    endloop
  endfacet
  facet normal 0 0.707105 0.707108
    outer loop
      vertex 39.9 59.7 19.8773
      vertex 59.7 69.6 9.97734
      vertex -39.3 59.7 19.8773
    endloop
  endfacet
  facet normal -0 0.707105 0.707108
    outer loop
      vertex -59.1 69.6 9.97734
      vertex -39.3 59.7 19.8773
      vertex 59.7 69.6 9.97734
    endloop
  endfacet
  facet normal 0 0.707105 0.707108
    outer loop
      vertex -39.3 59.7 19.8773
      vertex -59.1 69.6 9.97734
      vertex -59.1 59.7 19.8773
    endloop
  endfacet
  facet normal 0.577349 0.577349 0.577352
    outer loop
      vertex 69.6 59.7 9.97734
      vertex 59.7 69.6 9.97734
      vertex 59.7 59.7 19.8773
    endloop
  endfacet
  facet normal 0.578836 -0.574368 0.578836
    outer loop
      vertex 59.7 -98.7 39.6773
      vertex 49.8 -98.7 49.5773
      vertex 39.9 -108.677 49.5773
    endloop
  endfacet
  facet normal 0.578836 -0.574368 0.578836
    outer loop
      vertex 59.7 -108.677 29.7773
      vertex 59.7 -98.7 39.6773
      vertex 39.9 -108.677 49.5773
    endloop
  endfacet
  facet normal 0.578836 -0.574368 0.578836
    outer loop
      vertex 69.6 -98.7 29.7773
      vertex 59.7 -98.7 39.6773
      vertex 59.7 -108.677 29.7773
    endloop
  endfacet
  facet normal 0.57735 0.57735 0.57735
    outer loop
      vertex 59.7 -98.7 39.6773
      vertex 59.7 -88.8 29.7773
      vertex 49.8 -98.7 49.5773
    endloop
  endfacet
  facet normal 0.57735 0.57735 0.57735
    outer loop
      vertex 59.7 -88.8 29.7773
      vertex 49.8 -78.9 29.7773
      vertex 49.8 -98.7 49.5773
    endloop
  endfacet
  facet normal 0.57735 0.57735 0.57735
    outer loop
      vertex 69.6 -98.7 29.7773
      vertex 59.7 -88.8 29.7773
      vertex 59.7 -98.7 39.6773
    endloop
  endfacet
  facet normal 0.57735 0.57735 0.57735
    outer loop
      vertex 39.9 -69 49.5773
      vertex 39.9 -59.1 39.6773
      vertex 30 -59.1 49.5773
    endloop
  endfacet
  facet normal 0.57735 0.57735 0.57735
    outer loop
      vertex 39.9 -69 49.5773
      vertex 49.8 -59.1 29.7773
      vertex 39.9 -59.1 39.6773
    endloop
  endfacet
  facet normal 0.57735 0.57735 0.57735
    outer loop
      vertex 49.8 -59.1 29.7773
      vertex 39.9 -69 49.5773
      vertex 49.8 -78.9 49.5773
    endloop
  endfacet
  facet normal 0.57735 0.57735 0.57735
    outer loop
      vertex 39.9 -59.1 39.6773
      vertex 39.1 -50 31.3773
      vertex 30 -59.1 49.5773
    endloop
  endfacet
  facet normal 0.57735 0.57735 0.57735
    outer loop
      vertex 39.1 -50 31.3773
      vertex 39.9 -59.1 39.6773
      vertex 39.9 -50 30.5773
    endloop
  endfacet
  facet normal 0.57735 0.57735 0.57735
    outer loop
      vertex 30 -59.1 49.5773
      vertex 39.1 -50 31.3773
      vertex 20.9 -50 49.5773
    endloop
  endfacet
  facet normal 0.57735 0.57735 0.57735
    outer loop
      vertex 49.8 -59.1 29.7773
      vertex 39.9 -50 30.5773
      vertex 39.9 -59.1 39.6773
    endloop
  endfacet
  facet normal 0.57735 0.57735 0.57735
    outer loop
      vertex 39.9 -50 30.5773
      vertex 49.8 -59.1 29.7773
      vertex 40.7 -50 29.7773
    endloop
  endfacet
  facet normal 0.707107 0.707107 0
    outer loop
      vertex -59.1 30 49.5773
      vertex -69 39.9 29.7773
      vertex -69 39.9 49.5773
    endloop
  endfacet
  facet normal 0.707107 0.707107 0
    outer loop
      vertex -69 39.9 29.7773
      vertex -59.1 30 49.5773
      vertex -59.1 30 29.7773
    endloop
  endfacet
  facet normal 0.707107 0.707107 0
    outer loop
      vertex -50 20.9 89.1773
      vertex -59.1 30 49.5773
      vertex -59.1 30 89.1773
    endloop
  endfacet
  facet normal 0.707107 0.707107 -0
    outer loop
      vertex -50 20.9 29.7773
      vertex -59.1 30 49.5773
      vertex -50 20.9 89.1773
    endloop
  endfacet
  facet normal 0.707107 0.707107 0
    outer loop
      vertex -59.1 30 49.5773
      vertex -50 20.9 29.7773
      vertex -59.1 30 29.7773
    endloop
  endfacet
  facet normal -0.704362 0.709841 0
    outer loop
      vertex -98.7 49.8 29.7773
      vertex -108.677 39.9 69.3773
      vertex -98.7 49.8 69.3773
    endloop
  endfacet
  facet normal -0.704362 0.709841 0
    outer loop
      vertex -108.677 39.9 69.3773
      vertex -98.7 49.8 29.7773
      vertex -108.677 39.9 29.7773
    endloop
  endfacet
  facet normal 0 1 0
    outer loop
      vertex -98.7 49.8 29.7773
      vertex -78.9 49.8 49.5773
      vertex -78.9 49.8 29.7773
    endloop
  endfacet
  facet normal 0 1 0
    outer loop
      vertex -78.9 49.8 49.5773
      vertex -98.7 49.8 29.7773
      vertex -98.7 49.8 69.3773
    endloop
  endfacet
  facet normal -0 1 0
    outer loop
      vertex -98.7 49.8 29.7773
      vertex -78.9 49.8 29.7773
      vertex -78.9 49.8 9.97734
    endloop
  endfacet
  facet normal 0.707107 0.707107 0
    outer loop
      vertex -69 39.9 49.5773
      vertex -78.9 49.8 29.7773
      vertex -78.9 49.8 49.5773
    endloop
  endfacet
  facet normal 0.707107 0.707107 0
    outer loop
      vertex -78.9 49.8 29.7773
      vertex -69 39.9 49.5773
      vertex -69 39.9 29.7773
    endloop
  endfacet
  facet normal 0.709841 -0.704362 0
    outer loop
      vertex 39.9 -108.677 89.1773
      vertex 49.8 -98.7 49.5773
      vertex 49.8 -98.7 89.1773
    endloop
  endfacet
  facet normal 0.709841 -0.704362 0
    outer loop
      vertex 49.8 -98.7 49.5773
      vertex 39.9 -108.677 89.1773
      vertex 39.9 -108.677 49.5773
    endloop
  endfacet
  facet normal 1 0 0
    outer loop
      vertex 49.8 -78.9 29.7773
      vertex 49.8 -59.1 29.7773
      vertex 49.8 -78.9 49.5773
    endloop
  endfacet
  facet normal 1 0 0
    outer loop
      vertex 49.8 -59.1 29.7773
      vertex 49.8 -78.9 29.7773
      vertex 49.8 -78.9 9.97734
    endloop
  endfacet
  facet normal 1 0 0
    outer loop
      vertex 49.8 -98.7 49.5773
      vertex 49.8 -78.9 49.5773
      vertex 49.8 -78.9 69.3773
    endloop
  endfacet
  facet normal 1 0 0
    outer loop
      vertex 49.8 -98.7 49.5773
      vertex 49.8 -78.9 69.3773
      vertex 49.8 -98.7 89.1773
    endloop
  endfacet
  facet normal 1 0 0
    outer loop
      vertex 49.8 -78.9 49.5773
      vertex 49.8 -98.7 49.5773
      vertex 49.8 -78.9 29.7773
    endloop
  endfacet
  facet normal 0.707107 0.707107 0
    outer loop
      vertex 39.9 -69 69.3773
      vertex 30 -59.1 49.5773
      vertex 30 -59.1 69.3773
    endloop
  endfacet
  facet normal 0.707107 0.707107 0
    outer loop
      vertex 30 -59.1 49.5773
      vertex 39.9 -69 69.3773
      vertex 39.9 -69 49.5773
    endloop
  endfacet
  facet normal 0.707107 0.707107 -0
    outer loop
      vertex 49.8 -78.9 49.5773
      vertex 39.9 -69 69.3773
      vertex 49.8 -78.9 69.3773
    endloop
  endfacet
  facet normal 0.707107 0.707107 0
    outer loop
      vertex 39.9 -69 69.3773
      vertex 49.8 -78.9 49.5773
      vertex 39.9 -69 49.5773
    endloop
  endfacet
  facet normal 0.707107 0.707107 -0
    outer loop
      vertex 30 -59.1 69.3773
      vertex 20.9 -50 89.1773
      vertex 30 -59.1 89.1773
    endloop
  endfacet
  facet normal 0.707107 0.707107 0
    outer loop
      vertex 20.9 -50 49.5773
      vertex 30 -59.1 69.3773
      vertex 30 -59.1 49.5773
    endloop
  endfacet
  facet normal 0.707107 0.707107 0
    outer loop
      vertex 30 -59.1 69.3773
      vertex 20.9 -50 49.5773
      vertex 20.9 -50 89.1773
    endloop
  endfacet
  facet normal 0.57735 0.57735 0.57735
    outer loop
      vertex -78.9 30 69.3773
      vertex -78.9 39.9 59.4773
      vertex -88.8 39.9 69.3773
    endloop
  endfacet
  facet normal 0.57735 0.57735 0.57735
    outer loop
      vertex -59.1 30 49.5773
      vertex -69 39.9 49.5773
      vertex -78.9 39.9 59.4773
    endloop
  endfacet
  facet normal 0.57735 0.57735 0.57735
    outer loop
      vertex -59.1 30 49.5773
      vertex -78.9 39.9 59.4773
      vertex -78.9 30 69.3773
    endloop
  endfacet
  facet normal 0.57735 0.57735 0.57735
    outer loop
      vertex -78.9 39.9 59.4773
      vertex -78.9 49.8 49.5773
      vertex -88.8 39.9 69.3773
    endloop
  endfacet
  facet normal 0.57735 0.57735 0.57735
    outer loop
      vertex -88.8 39.9 69.3773
      vertex -78.9 49.8 49.5773
      vertex -98.7 49.8 69.3773
    endloop
  endfacet
  facet normal 0.57735 0.57735 0.57735
    outer loop
      vertex -69 39.9 49.5773
      vertex -78.9 49.8 49.5773
      vertex -78.9 39.9 59.4773
    endloop
  endfacet
  facet normal 0.57735 0.57735 0.57735
    outer loop
      vertex 39.9 -88.8 89.1773
      vertex 39.9 -78.9 79.2773
      vertex 30 -78.9 89.1773
    endloop
  endfacet
  facet normal 0.57735 0.57735 0.57735
    outer loop
      vertex 49.8 -98.7 89.1773
      vertex 39.9 -78.9 79.2773
      vertex 39.9 -88.8 89.1773
    endloop
  endfacet
  facet normal 0.57735 0.57735 0.57735
    outer loop
      vertex 49.8 -98.7 89.1773
      vertex 49.8 -78.9 69.3773
      vertex 39.9 -78.9 79.2773
    endloop
  endfacet
  facet normal 0.57735 0.57735 0.57735
    outer loop
      vertex 39.9 -78.9 79.2773
      vertex 39.9 -69 69.3773
      vertex 30 -78.9 89.1773
    endloop
  endfacet
  facet normal 0.57735 0.57735 0.57735
    outer loop
      vertex 39.9 -69 69.3773
      vertex 30 -59.1 69.3773
      vertex 30 -78.9 89.1773
    endloop
  endfacet
  facet normal 0.57735 0.57735 0.57735
    outer loop
      vertex 49.8 -78.9 69.3773
      vertex 39.9 -69 69.3773
      vertex 39.9 -78.9 79.2773
    endloop
  endfacet
  facet normal -0.574368 0.578836 0.578836
    outer loop
      vertex -98.7 30 89.1773
      vertex -98.7 39.9 79.2773
      vertex -108.677 39.9 69.3773
    endloop
  endfacet
  facet normal -0.574368 0.578836 0.578836
    outer loop
      vertex -98.7 30 89.1773
      vertex -108.677 39.9 69.3773
      vertex -108.677 20.1 89.1773
    endloop
  endfacet
  facet normal 0.57735 0.57735 0.57735
    outer loop
      vertex -78.9 30 69.3773
      vertex -88.8 39.9 69.3773
      vertex -98.7 39.9 79.2773
    endloop
  endfacet
  facet normal 0.57735 0.57735 0.57735
    outer loop
      vertex -78.9 30 69.3773
      vertex -98.7 39.9 79.2773
      vertex -98.7 30 89.1773
    endloop
  endfacet
  facet normal -0.574368 0.578836 0.578836
    outer loop
      vertex -98.7 39.9 79.2773
      vertex -98.7 49.8 69.3773
      vertex -108.677 39.9 69.3773
    endloop
  endfacet
  facet normal 0.57735 0.57735 0.57735
    outer loop
      vertex -88.8 39.9 69.3773
      vertex -98.7 49.8 69.3773
      vertex -98.7 39.9 79.2773
    endloop
  endfacet
  facet normal 0.57883 -0.574371 0.578838
    outer loop
      vertex 39.9 -108.677 89.1773
      vertex 39.9 -98.7 99.0773
      vertex 20.1 -108.677 108.977
    endloop
  endfacet
  facet normal 0.578836 -0.574368 0.578836
    outer loop
      vertex 49.8 -98.7 89.1773
      vertex 39.9 -98.7 99.0773
      vertex 39.9 -108.677 89.1773
    endloop
  endfacet
  facet normal 0.577339 0.577356 0.577356
    outer loop
      vertex 39.9 -98.7 99.0773
      vertex 39.9 -88.8 89.1773
      vertex 30 -98.7 108.977
    endloop
  endfacet
  facet normal 0.577347 0.577347 0.577356
    outer loop
      vertex 39.9 -88.8 89.1773
      vertex 30 -78.9 89.1773
      vertex 30 -98.7 108.977
    endloop
  endfacet
  facet normal 1 0 0
    outer loop
      vertex 30 -78.9 89.1773
      vertex 30 -59.1 89.1773
      vertex 30 -78.9 108.977
    endloop
  endfacet
  facet normal 1 0 0
    outer loop
      vertex 30 -59.1 89.1773
      vertex 30 -78.9 89.1773
      vertex 30 -59.1 69.3773
    endloop
  endfacet
  facet normal 1 0 -0
    outer loop
      vertex 30 -78.9 89.1773
      vertex 30 -78.9 108.977
      vertex 30 -98.7 108.977
    endloop
  endfacet
  facet normal 0.57735 0.57735 0.57735
    outer loop
      vertex 49.8 -98.7 89.1773
      vertex 39.9 -88.8 89.1773
      vertex 39.9 -98.7 99.0773
    endloop
  endfacet
  facet normal 0.577344 0.577344 0.577362
    outer loop
      vertex 20.1 -69 108.977
      vertex 20.1 -59.1 99.0773
      vertex 10.2 -59.1 108.977
    endloop
  endfacet
  facet normal 0.577344 0.577344 0.577362
    outer loop
      vertex 30 -78.9 108.977
      vertex 20.1 -59.1 99.0773
      vertex 20.1 -69 108.977
    endloop
  endfacet
  facet normal 0.577353 0.577344 0.577353
    outer loop
      vertex 30 -78.9 108.977
      vertex 30 -59.1 89.1773
      vertex 20.1 -59.1 99.0773
    endloop
  endfacet
  facet normal 0.577339 0.577355 0.577357
    outer loop
      vertex 20.1 -59.1 99.0773
      vertex 19.3 -50 90.7773
      vertex 10.2 -59.1 108.977
    endloop
  endfacet
  facet normal 0.57735 0.57735 0.57735
    outer loop
      vertex 19.3 -50 90.7773
      vertex 20.1 -59.1 99.0773
      vertex 20.1 -50 89.9773
    endloop
  endfacet
  facet normal 0.577347 0.577347 0.577357
    outer loop
      vertex 10.2 -59.1 108.977
      vertex 19.3 -50 90.7773
      vertex 1.1 -50 108.977
    endloop
  endfacet
  facet normal 0.57735 0.57735 0.57735
    outer loop
      vertex 30 -59.1 89.1773
      vertex 20.1 -50 89.9773
      vertex 20.1 -59.1 99.0773
    endloop
  endfacet
  facet normal 0.57735 0.57735 0.57735
    outer loop
      vertex 20.1 -50 89.9773
      vertex 30 -59.1 89.1773
      vertex 20.9 -50 89.1773
    endloop
  endfacet
  facet normal 0.577344 0.577344 0.577362
    outer loop
      vertex -59.1 10.2 108.977
      vertex -59.1 20.1 99.0773
      vertex -69 20.1 108.977
    endloop
  endfacet
  facet normal 0.577346 0.577344 0.577361
    outer loop
      vertex -59.1 10.2 108.977
      vertex -50 1.89999 108.177
      vertex -59.1 20.1 99.0773
    endloop
  endfacet
  facet normal 0.577353 0.577353 0.577345
    outer loop
      vertex -50 1.89999 108.177
      vertex -59.1 10.2 108.977
      vertex -50 1.1 108.977
    endloop
  endfacet
  facet normal 0.577354 0.577344 0.577354
    outer loop
      vertex -50 1.89999 108.177
      vertex -50 20.1 89.9773
      vertex -59.1 20.1 99.0773
    endloop
  endfacet
  facet normal -0.704362 0.709841 0
    outer loop
      vertex -98.7 30 89.1773
      vertex -108.677 20.1 108.977
      vertex -98.7 30 108.977
    endloop
  endfacet
  facet normal -0.704362 0.709841 0
    outer loop
      vertex -108.677 20.1 108.977
      vertex -98.7 30 89.1773
      vertex -108.677 20.1 89.1773
    endloop
  endfacet
  facet normal 0 1 0
    outer loop
      vertex -98.7 30 89.1773
      vertex -78.9 30 108.977
      vertex -59.1 30 89.1773
    endloop
  endfacet
  facet normal 0 1 0
    outer loop
      vertex -78.9 30 108.977
      vertex -98.7 30 89.1773
      vertex -98.7 30 108.977
    endloop
  endfacet
  facet normal 0 1 0
    outer loop
      vertex -59.1 30 89.1773
      vertex -78.9 30 69.3773
      vertex -98.7 30 89.1773
    endloop
  endfacet
  facet normal -0 1 0
    outer loop
      vertex -78.9 30 69.3773
      vertex -59.1 30 89.1773
      vertex -59.1 30 49.5773
    endloop
  endfacet
  facet normal 0.577339 0.577356 0.577356
    outer loop
      vertex -59.1 20.1 99.0773
      vertex -59.1 30 89.1773
      vertex -69 20.1 108.977
    endloop
  endfacet
  facet normal 0.577347 0.577347 0.577356
    outer loop
      vertex -69 20.1 108.977
      vertex -59.1 30 89.1773
      vertex -78.9 30 108.977
    endloop
  endfacet
  facet normal 0.57735 0.57735 0.57735
    outer loop
      vertex -59.1 20.1 99.0773
      vertex -50 20.9 89.1773
      vertex -59.1 30 89.1773
    endloop
  endfacet
  facet normal 0.57735 0.57735 0.57735
    outer loop
      vertex -50 20.9 89.1773
      vertex -59.1 20.1 99.0773
      vertex -50 20.1 89.9773
    endloop
  endfacet
  facet normal -0.575853 -0.575853 0.580332
    outer loop
      vertex -98.7 -108.677 108.977
      vertex -98.7 -98.7 118.877
      vertex -108.677 -98.7 108.977
    endloop
  endfacet
  facet normal 0 -0.704362 0.709841
    outer loop
      vertex -98.7 -98.7 118.877
      vertex 20.1 -108.677 108.977
      vertex 20.1 -98.7 118.877
    endloop
  endfacet
  facet normal 0 -0.704362 0.709841
    outer loop
      vertex 20.1 -108.677 108.977
      vertex -98.7 -98.7 118.877
      vertex -98.7 -108.677 108.977
    endloop
  endfacet
  facet normal 0.578836 -0.574368 0.578836
    outer loop
      vertex 20.1 -108.677 108.977
      vertex 30 -98.7 108.977
      vertex 20.1 -98.7 118.877
    endloop
  endfacet
  facet normal 0.57883 -0.574362 0.578847
    outer loop
      vertex 30 -98.7 108.977
      vertex 20.1 -108.677 108.977
      vertex 39.9 -98.7 99.0773
    endloop
  endfacet
  facet normal -0.704362 0 0.709841
    outer loop
      vertex -108.677 20.1 108.977
      vertex -98.7 -98.7 118.877
      vertex -98.7 20.1 118.877
    endloop
  endfacet
  facet normal -0.704362 0 0.709841
    outer loop
      vertex -98.7 -98.7 118.877
      vertex -108.677 20.1 108.977
      vertex -108.677 -98.7 108.977
    endloop
  endfacet
  facet normal -0 0 1
    outer loop
      vertex -98.7 20.1 118.877
      vertex -59.1 0.299999 118.877
      vertex -78.9 20.1 118.877
    endloop
  endfacet
  facet normal 0 0 1
    outer loop
      vertex -50 -48.4 118.877
      vertex -59.1 -39.3 118.877
      vertex -50 -50 118.877
    endloop
  endfacet
  facet normal 0 0 1
    outer loop
      vertex 0.299999 -59.1 118.877
      vertex 20.1 -98.7 118.877
      vertex 20.1 -78.9 118.877
    endloop
  endfacet
  facet normal -0 0 1
    outer loop
      vertex -39.3 -59.1 118.877
      vertex 20.1 -98.7 118.877
      vertex 0.299999 -59.1 118.877
    endloop
  endfacet
  facet normal -0 0 1
    outer loop
      vertex -50 -50 118.877
      vertex -39.3 -59.1 118.877
      vertex -48.4 -50 118.877
    endloop
  endfacet
  facet normal 0 0 1
    outer loop
      vertex -59.1 0.299999 118.877
      vertex -98.7 20.1 118.877
      vertex -59.1 -39.3 118.877
    endloop
  endfacet
  facet normal 0 0 1
    outer loop
      vertex -39.3 -59.1 118.877
      vertex -98.7 -98.7 118.877
      vertex 20.1 -98.7 118.877
    endloop
  endfacet
  facet normal 0 0 1
    outer loop
      vertex -50 -50 118.877
      vertex -98.7 -98.7 118.877
      vertex -39.3 -59.1 118.877
    endloop
  endfacet
  facet normal 0 0 1
    outer loop
      vertex -59.1 -39.3 118.877
      vertex -98.7 -98.7 118.877
      vertex -50 -50 118.877
    endloop
  endfacet
  facet normal 0 0 1
    outer loop
      vertex -98.7 -98.7 118.877
      vertex -59.1 -39.3 118.877
      vertex -98.7 20.1 118.877
    endloop
  endfacet
  facet normal 0.707107 -0 0.707107
    outer loop
      vertex 20.1 -98.7 118.877
      vertex 30 -78.9 108.977
      vertex 20.1 -78.9 118.877
    endloop
  endfacet
  facet normal 0.707107 0 0.707107
    outer loop
      vertex 30 -78.9 108.977
      vertex 20.1 -98.7 118.877
      vertex 30 -98.7 108.977
    endloop
  endfacet
  facet normal 0.57735 0.57735 0.57735
    outer loop
      vertex 20.1 -69 108.977
      vertex 10.2 -59.1 108.977
      vertex 0.299999 -59.1 118.877
    endloop
  endfacet
  facet normal 0.57735 0.57735 0.57735
    outer loop
      vertex 20.1 -78.9 118.877
      vertex 20.1 -69 108.977
      vertex 0.299999 -59.1 118.877
    endloop
  endfacet
  facet normal 0.57735 0.57735 0.57735
    outer loop
      vertex 30 -78.9 108.977
      vertex 20.1 -69 108.977
      vertex 20.1 -78.9 118.877
    endloop
  endfacet
  facet normal 0.57735 0.57735 0.57735
    outer loop
      vertex -39.3 -59.1 118.877
      vertex -39.3 -50 109.777
      vertex -48.4 -50 118.877
    endloop
  endfacet
  facet normal 0.57735 0.57735 0.57735
    outer loop
      vertex -50 -48.4 118.877
      vertex -50 -39.3 109.777
      vertex -59.1 -39.3 118.877
    endloop
  endfacet
  facet normal 0 0.707107 0.707107
    outer loop
      vertex 0.299999 -50 109.777
      vertex -39.3 -59.1 118.877
      vertex 0.299999 -59.1 118.877
    endloop
  endfacet
  facet normal 0 0.707107 0.707107
    outer loop
      vertex -39.3 -59.1 118.877
      vertex 0.299999 -50 109.777
      vertex -39.3 -50 109.777
    endloop
  endfacet
  facet normal 0.57735 0.57735 0.57735
    outer loop
      vertex 10.2 -59.1 108.977
      vertex 0.299999 -50 109.777
      vertex 0.299999 -59.1 118.877
    endloop
  endfacet
  facet normal 0.57735 0.57735 0.577351
    outer loop
      vertex 0.299999 -50 109.777
      vertex 10.2 -59.1 108.977
      vertex 1.1 -50 108.977
    endloop
  endfacet
  facet normal 0.707107 -0 0.707107
    outer loop
      vertex -59.1 -39.3 118.877
      vertex -50 0.299999 109.777
      vertex -59.1 0.299999 118.877
    endloop
  endfacet
  facet normal 0.707107 0 0.707107
    outer loop
      vertex -50 0.299999 109.777
      vertex -59.1 -39.3 118.877
      vertex -50 -39.3 109.777
    endloop
  endfacet
  facet normal 0.57735 0.57735 0.57735
    outer loop
      vertex -59.1 10.2 108.977
      vertex -69 20.1 108.977
      vertex -78.9 20.1 118.877
    endloop
  endfacet
  facet normal 0.57735 0.57735 0.57735
    outer loop
      vertex -59.1 0.299999 118.877
      vertex -59.1 10.2 108.977
      vertex -78.9 20.1 118.877
    endloop
  endfacet
  facet normal 0.57735 0.57735 0.57735
    outer loop
      vertex -59.1 0.299999 118.877
      vertex -50 1.1 108.977
      vertex -59.1 10.2 108.977
    endloop
  endfacet
  facet normal 0.577351 0.57735 0.577351
    outer loop
      vertex -50 1.1 108.977
      vertex -59.1 0.299999 118.877
      vertex -50 0.299999 109.777
    endloop
  endfacet
  facet normal -0.574368 0.578836 0.578836
    outer loop
      vertex -98.7 20.1 118.877
      vertex -98.7 30 108.977
      vertex -108.677 20.1 108.977
    endloop
  endfacet
  facet normal 0 0.707107 0.707107
    outer loop
      vertex -78.9 30 108.977
      vertex -98.7 20.1 118.877
      vertex -78.9 20.1 118.877
    endloop
  endfacet
  facet normal 0 0.707107 0.707107
    outer loop
      vertex -98.7 20.1 118.877
      vertex -78.9 30 108.977
      vertex -98.7 30 108.977
    endloop
  endfacet
  facet normal 0.57735 0.57735 0.57735
    outer loop
      vertex -69 20.1 108.977
      vertex -78.9 30 108.977
      vertex -78.9 20.1 118.877
    endloop
  endfacet
  facet normal -1 0 0
    outer loop
      vertex 50 50 0.9
      vertex 50 49.6 19.8773
      vertex 50 50 19.8773
    endloop
  endfacet
  facet normal -1 0 0
    outer loop
      vertex 50 48.7 0.9
      vertex 50 49.6 19.8773
      vertex 50 50 0.9
    endloop
  endfacet
  facet normal -1 0 0
    outer loop
      vertex 50 39.9 10.2525
      vertex 50 48.7 0.9
      vertex 50 39.9 9.69999
    endloop
  endfacet
  facet normal -1 0 0
    outer loop
      vertex 50 48.7 0.9
      vertex 50 39.9 10.2525
      vertex 50 49.6 19.8773
    endloop
  endfacet
  facet normal -1 0 0
    outer loop
      vertex 50 -39.3 9.69999
      vertex 50 39.9 10.2525
      vertex 50 39.9 9.69999
    endloop
  endfacet
  facet normal -1 0 0
    outer loop
      vertex 50 -39.3 9.69999
      vertex 50 -39.8504 10.2525
      vertex 50 39.9 10.2525
    endloop
  endfacet
  facet normal -1 0 0
    outer loop
      vertex 50 -44.15 4.88789
      vertex 50 -39.8504 10.2525
      vertex 50 -39.3 9.69999
    endloop
  endfacet
  facet normal -1 0 0
    outer loop
      vertex 50 -50 0.9
      vertex 50 -44.15 4.88789
      vertex 50 -48.107 0.9
    endloop
  endfacet
  facet normal -1 0 0
    outer loop
      vertex 50 -50 20.4551
      vertex 50 -44.15 4.88789
      vertex 50 -50 0.9
    endloop
  endfacet
  facet normal -1 0 0
    outer loop
      vertex 50 -44.15 4.88789
      vertex 50 -50 20.4551
      vertex 50 -39.8504 10.2525
    endloop
  endfacet
  facet normal 1 0 0
    outer loop
      vertex -50 20.9 89.1773
      vertex -50 20.1 89.9773
      vertex -50 20.9 29.7773
    endloop
  endfacet
  facet normal 1 0 0
    outer loop
      vertex -50 44.4144 4.58555
      vertex -50 50 19.8773
      vertex -50 49 19.8773
    endloop
  endfacet
  facet normal 1 0 0
    outer loop
      vertex -50 50 19.8773
      vertex -50 44.4144 4.58555
      vertex -50 50 0.9
    endloop
  endfacet
  facet normal 1 0 0
    outer loop
      vertex -50 50 0.9
      vertex -50 44.4144 4.58555
      vertex -50 48.1 0.9
    endloop
  endfacet
  facet normal 1 -0 0
    outer loop
      vertex -50 39.9 10.7773
      vertex -50 44.4144 4.58555
      vertex -50 49 19.8773
    endloop
  endfacet
  facet normal 1 0 0
    outer loop
      vertex -50 39.9 10.7773
      vertex -50 39.9 9.1711
      vertex -50 44.4144 4.58555
    endloop
  endfacet
  facet normal 1 0 0
    outer loop
      vertex -50 21.7 28.9773
      vertex -50 39.9 9.1711
      vertex -50 39.9 10.7773
    endloop
  endfacet
  facet normal 1 0 0
    outer loop
      vertex -50 -39.3 9.1711
      vertex -50 21.7 28.9773
      vertex -50 20.9 29.7773
    endloop
  endfacet
  facet normal 1 0 0
    outer loop
      vertex -50 -39.3 109.777
      vertex -50 20.1 89.9773
      vertex -50 1.89999 108.177
    endloop
  endfacet
  facet normal 1 0 0
    outer loop
      vertex -50 -39.3 109.777
      vertex -50 1.89999 108.177
      vertex -50 1.1 108.977
    endloop
  endfacet
  facet normal 1 -0 0
    outer loop
      vertex -50 -39.3 109.777
      vertex -50 1.1 108.977
      vertex -50 0.299999 109.777
    endloop
  endfacet
  facet normal 1 0 0
    outer loop
      vertex -50 20.1 89.9773
      vertex -50 -39.3 109.777
      vertex -50 20.9 29.7773
    endloop
  endfacet
  facet normal 1 0 0
    outer loop
      vertex -50 21.7 28.9773
      vertex -50 -39.3 9.1711
      vertex -50 39.9 9.1711
    endloop
  endfacet
  facet normal 1 0 0
    outer loop
      vertex -50 -39.3 109.777
      vertex -50 -39.3 9.1711
      vertex -50 20.9 29.7773
    endloop
  endfacet
  facet normal 1 0 0
    outer loop
      vertex -50 -50 0.9
      vertex -50 -39.3 9.1711
      vertex -50 -39.3 109.777
    endloop
  endfacet
  facet normal 1 -0 0
    outer loop
      vertex -50 -50 118.877
      vertex -50 -39.3 109.777
      vertex -50 -48.4 118.877
    endloop
  endfacet
  facet normal 1 0 0
    outer loop
      vertex -50 -50 0.9
      vertex -50 -39.3 109.777
      vertex -50 -50 118.877
    endloop
  endfacet
  facet normal 1 0 0
    outer loop
      vertex -50 -39.3 9.1711
      vertex -50 -50 0.9
      vertex -50 -47.507 0.9
    endloop
  endfacet
  facet normal 0 -1 0
    outer loop
      vertex -50 50 19.8773
      vertex -44.15 50 15.0273
      vertex -49 50 19.8773
    endloop
  endfacet
  facet normal 0 -1 0
    outer loop
      vertex -50 50 0.9
      vertex -44.15 50 15.0273
      vertex -50 50 19.8773
    endloop
  endfacet
  facet normal 0 -1 0
    outer loop
      vertex -39.3 50 10.2525
      vertex -39.3 50 9.69999
      vertex 39.9 50 10.2525
    endloop
  endfacet
  facet normal -0 -1 0
    outer loop
      vertex -39.3 50 9.69999
      vertex -44.15 50 15.0273
      vertex -48.1 50 0.9
    endloop
  endfacet
  facet normal 0 -1 0
    outer loop
      vertex -44.15 50 15.0273
      vertex -50 50 0.9
      vertex -48.1 50 0.9
    endloop
  endfacet
  facet normal 0 -1 0
    outer loop
      vertex -44.15 50 15.0273
      vertex -39.3 50 9.69999
      vertex -39.3 50 10.2525
    endloop
  endfacet
  facet normal 0 -1 0
    outer loop
      vertex 48.7 50 0.9
      vertex 49.6 50 19.8773
      vertex 39.9 50 10.2525
    endloop
  endfacet
  facet normal 0 -1 0
    outer loop
      vertex 39.9 50 9.69999
      vertex 39.9 50 10.2525
      vertex -39.3 50 9.69999
    endloop
  endfacet
  facet normal 0 -1 0
    outer loop
      vertex 48.7 50 0.9
      vertex 39.9 50 10.2525
      vertex 39.9 50 9.69999
    endloop
  endfacet
  facet normal 0 -1 0
    outer loop
      vertex 50 50 0.9
      vertex 49.6 50 19.8773
      vertex 48.7 50 0.9
    endloop
  endfacet
  facet normal 0 -1 0
    outer loop
      vertex 49.6 50 19.8773
      vertex 50 50 0.9
      vertex 50 50 19.8773
    endloop
  endfacet
  facet normal 0 1 0
    outer loop
      vertex 0.299999 -50 109.777
      vertex 1.1 -50 108.977
      vertex -39.3 -50 109.777
    endloop
  endfacet
  facet normal 0 1 0
    outer loop
      vertex -39.3 -50 109.777
      vertex -50 -50 118.877
      vertex -48.4 -50 118.877
    endloop
  endfacet
  facet normal 0 1 0
    outer loop
      vertex 19.3 -50 90.7773
      vertex -39.3 -50 109.777
      vertex 1.1 -50 108.977
    endloop
  endfacet
  facet normal 0 1 0
    outer loop
      vertex 20.9 -50 49.5773
      vertex 19.3 -50 90.7773
      vertex 20.1 -50 89.9773
    endloop
  endfacet
  facet normal 0 1 -0
    outer loop
      vertex 20.9 -50 49.5773
      vertex 20.1 -50 89.9773
      vertex 20.9 -50 89.1773
    endloop
  endfacet
  facet normal 0 1 0
    outer loop
      vertex 19.3 -50 90.7773
      vertex 20.9 -50 49.5773
      vertex -39.3 -50 109.777
    endloop
  endfacet
  facet normal 0 1 0
    outer loop
      vertex -39.3 -50 9.1711
      vertex -39.3 -50 109.777
      vertex 20.9 -50 49.5773
    endloop
  endfacet
  facet normal 0 1 0
    outer loop
      vertex 39.9 -50 9.1711
      vertex 20.9 -50 49.5773
      vertex 39.1 -50 31.3773
    endloop
  endfacet
  facet normal 0 1 -0
    outer loop
      vertex 39.9 -50 9.1711
      vertex 39.1 -50 31.3773
      vertex 39.9 -50 30.5773
    endloop
  endfacet
  facet normal 0 1 0
    outer loop
      vertex 39.9 -50 9.1711
      vertex 39.9 -50 30.5773
      vertex 40.7 -50 29.7773
    endloop
  endfacet
  facet normal 0 1 0
    outer loop
      vertex 39.9 -50 9.1711
      vertex 40.7 -50 29.7773
      vertex 41.5 -50 28.9773
    endloop
  endfacet
  facet normal 0 1 0
    outer loop
      vertex 39.9 -50 9.1711
      vertex 41.5 -50 28.9773
      vertex 50 -50 20.4551
    endloop
  endfacet
  facet normal 0 1 0
    outer loop
      vertex 20.9 -50 49.5773
      vertex 39.9 -50 9.1711
      vertex -39.3 -50 9.1711
    endloop
  endfacet
  facet normal 0 1 0
    outer loop
      vertex -50 -50 0.9
      vertex -39.3 -50 109.777
      vertex -39.3 -50 9.1711
    endloop
  endfacet
  facet normal 0 1 0
    outer loop
      vertex -50 -50 0.9
      vertex -39.3 -50 9.1711
      vertex -47.507 -50 0.9
    endloop
  endfacet
  facet normal 0 1 0
    outer loop
      vertex -39.3 -50 109.777
      vertex -50 -50 0.9
      vertex -50 -50 118.877
    endloop
  endfacet
  facet normal 0 1 -0
    outer loop
      vertex 50 -50 0.9
      vertex 39.9 -50 9.1711
      vertex 50 -50 20.4551
    endloop
  endfacet
  facet normal 0 1 0
    outer loop
      vertex 39.9 -50 9.1711
      vertex 50 -50 0.9
      vertex 48.107 -50 0.9
    endloop
  endfacet
endsolid OpenSCAD_Model
