solid OpenSCAD_Model
  facet normal -0 0 -1
    outer loop
      vertex -50 48.1 0.9
      vertex -57.314 40.786 0.9
      vertex -50 50 0.9
    endloop
  endfacet
  facet normal 0 0 -1
    outer loop
      vertex 50 -50 0.9
      vertex 100.193 -98.7 0.9
      vertex 99.3 -99.6 0.9
    endloop
  endfacet
  facet normal 0 0 -1
    outer loop
      vertex 100.193 -98.7 0.9
      vertex 79.5 -38.407 0.9
      vertex 100.193 -39.3 0.9
    endloop
  endfacet
  facet normal 0 0 -1
    outer loop
      vertex 100.193 -39.3 0.9
      vertex 79.5 -38.407 0.9
      vertex 99.3 -38.407 0.9
    endloop
  endfacet
  facet normal 0 0 -1
    outer loop
      vertex 100.193 -98.7 0.9
      vertex 50 -50 0.9
      vertex 79.5 -38.407 0.9
    endloop
  endfacet
  facet normal 0 -0 -1
    outer loop
      vertex 57.914 -40.193 0.9
      vertex 79.5 -38.407 0.9
      vertex 50 -50 0.9
    endloop
  endfacet
  facet normal 0 0 -1
    outer loop
      vertex 58.8 39.9 0.9
      vertex 60.593 59.7 0.9
      vertex 60.593 -19.5 0.9
    endloop
  endfacet
  facet normal 0 0 -1
    outer loop
      vertex 58.8 39.9 0.9
      vertex 60.593 -19.5 0.9
      vertex 58.8 -39.3 0.9
    endloop
  endfacet
  facet normal -0 0 -1
    outer loop
      vertex 78.607 -37.514 0.9
      vertex 58.8 -39.3 0.9
      vertex 60.593 -19.5 0.9
    endloop
  endfacet
  facet normal -0 0 -1
    outer loop
      vertex 79.5 -38.407 0.9
      vertex 58.8 -39.3 0.9
      vertex 78.607 -37.514 0.9
    endloop
  endfacet
  facet normal 0 -0 -1
    outer loop
      vertex 58.8 -39.3 0.9
      vertex 79.5 -38.407 0.9
      vertex 57.914 -40.193 0.9
    endloop
  endfacet
  facet normal 0 0 -1
    outer loop
      vertex 39.9 -58.207 0.9
      vertex 50 -50 0.9
      vertex 99.3 -99.6 0.9
    endloop
  endfacet
  facet normal -0 0 -1
    outer loop
      vertex 50 -50 0.9
      vertex 39.9 -58.207 0.9
      vertex 48.107 -50 0.9
    endloop
  endfacet
  facet normal 0 0 -1
    outer loop
      vertex 99.3 -99.6 0.9
      vertex -39.3 -58.207 0.9
      vertex 39.9 -58.207 0.9
    endloop
  endfacet
  facet normal 0 0 -1
    outer loop
      vertex -39.3 -58.207 0.9
      vertex -50 -50 0.9
      vertex -47.507 -50 0.9
    endloop
  endfacet
  facet normal 0 0 -1
    outer loop
      vertex -50 -50 0.9
      vertex -58.207 -39.3 0.9
      vertex -50 -47.507 0.9
    endloop
  endfacet
  facet normal 0 0 -1
    outer loop
      vertex -60 -19.5 0.9
      vertex -58.207 39.9 0.9
      vertex -58.207 -39.3 0.9
    endloop
  endfacet
  facet normal 0 0 -1
    outer loop
      vertex -60 59.7 0.9
      vertex -58.207 39.9 0.9
      vertex -60 -19.5 0.9
    endloop
  endfacet
  facet normal 0 0 -1
    outer loop
      vertex -58.207 -39.3 0.9
      vertex -60.886 -20.393 0.9
      vertex -60 -19.5 0.9
    endloop
  endfacet
  facet normal 0 0 -1
    outer loop
      vertex -58.207 -39.3 0.9
      vertex -78.9 -38.407 0.9
      vertex -60.886 -20.393 0.9
    endloop
  endfacet
  facet normal 0 0 -1
    outer loop
      vertex -50 -50 0.9
      vertex -78.9 -38.407 0.9
      vertex -58.207 -39.3 0.9
    endloop
  endfacet
  facet normal 0 0 -1
    outer loop
      vertex -98.7 -99.6 0.9
      vertex -50 -50 0.9
      vertex -39.3 -58.207 0.9
    endloop
  endfacet
  facet normal 0 0 -1
    outer loop
      vertex -98.7 -99.6 0.9
      vertex -39.3 -58.207 0.9
      vertex 99.3 -99.6 0.9
    endloop
  endfacet
  facet normal 0 0 -1
    outer loop
      vertex -99.6 -98.7 0.9
      vertex -50 -50 0.9
      vertex -98.7 -99.6 0.9
    endloop
  endfacet
  facet normal -0 0 -1
    outer loop
      vertex -50 -50 0.9
      vertex -99.6 -98.7 0.9
      vertex -78.9 -38.407 0.9
    endloop
  endfacet
  facet normal 0 0 -1
    outer loop
      vertex -99.6 -39.3 0.9
      vertex -78.9 -38.407 0.9
      vertex -99.6 -98.7 0.9
    endloop
  endfacet
  facet normal -0 0 -1
    outer loop
      vertex -78.9 -38.407 0.9
      vertex -99.6 -39.3 0.9
      vertex -98.7 -38.407 0.9
    endloop
  endfacet
  facet normal 0 0 -1
    outer loop
      vertex 50 50 0.9
      vertex 60.593 59.7 0.9
      vertex 58.8 39.9 0.9
    endloop
  endfacet
  facet normal 0 0 -1
    outer loop
      vertex 50 50 0.9
      vertex 58.8 39.9 0.9
      vertex 50 48.7 0.9
    endloop
  endfacet
  facet normal -0 0 -1
    outer loop
      vertex 60.593 59.7 0.9
      vertex 50 50 0.9
      vertex 59.7 60.593 0.9
    endloop
  endfacet
  facet normal 0 0 -1
    outer loop
      vertex 39.9 58.8 0.9
      vertex 50 50 0.9
      vertex 48.7 50 0.9
    endloop
  endfacet
  facet normal 0 0 -1
    outer loop
      vertex 50 50 0.9
      vertex 39.9 58.8 0.9
      vertex 59.7 60.593 0.9
    endloop
  endfacet
  facet normal 0 0 -1
    outer loop
      vertex -39.3 58.8 0.9
      vertex 59.7 60.593 0.9
      vertex 39.9 58.8 0.9
    endloop
  endfacet
  facet normal 0 0 -1
    outer loop
      vertex -50 50 0.9
      vertex -39.3 58.8 0.9
      vertex -48.1 50 0.9
    endloop
  endfacet
  facet normal 0 0 -1
    outer loop
      vertex -59.1 60.593 0.9
      vertex -57.314 40.786 0.9
      vertex -58.207 39.9 0.9
    endloop
  endfacet
  facet normal 0 0 -1
    outer loop
      vertex -39.3 58.8 0.9
      vertex -59.1 60.593 0.9
      vertex 59.7 60.593 0.9
    endloop
  endfacet
  facet normal 0 0 -1
    outer loop
      vertex -50 50 0.9
      vertex -59.1 60.593 0.9
      vertex -39.3 58.8 0.9
    endloop
  endfacet
  facet normal 0 0 -1
    outer loop
      vertex -57.314 40.786 0.9
      vertex -59.1 60.593 0.9
      vertex -50 50 0.9
    endloop
  endfacet
  facet normal 0 0 -1
    outer loop
      vertex 57.914 -40.193 0.9
      vertex 50 -50 0.9
      vertex 50 -48.107 0.9
    endloop
  endfacet
  facet normal 0 0 -1
    outer loop
      vertex -58.207 39.9 0.9
      vertex -60 59.7 0.9
      vertex -59.1 60.593 0.9
    endloop
  endfacet
  facet normal -0.577357 -0.577357 -0.577336
    outer loop
      vertex -98.7 -108.677 9.97734
      vertex -99.6 -98.7 0.9
      vertex -98.7 -99.6 0.9
    endloop
  endfacet
  facet normal -0.577357 -0.577357 -0.577336
    outer loop
      vertex -99.6 -98.7 0.9
      vertex -98.7 -108.677 9.97734
      vertex -108.677 -98.7 9.97734
    endloop
  endfacet
  facet normal 0 -0.70712 -0.707094
    outer loop
      vertex -98.7 -108.677 9.97734
      vertex 99.3 -99.6 0.9
      vertex 99.3 -108.677 9.97734
    endloop
  endfacet
  facet normal -0 -0.70712 -0.707094
    outer loop
      vertex 99.3 -99.6 0.9
      vertex -98.7 -108.677 9.97734
      vertex -98.7 -99.6 0.9
    endloop
  endfacet
  facet normal 0.58035 -0.575836 -0.575853
    outer loop
      vertex 109.2 -98.7 9.97734
      vertex 99.3 -99.6 0.9
      vertex 100.193 -98.7 0.9
    endloop
  endfacet
  facet normal 0.58034 -0.575861 -0.575839
    outer loop
      vertex 99.3 -99.6 0.9
      vertex 109.2 -98.7 9.97734
      vertex 99.3 -108.677 9.97734
    endloop
  endfacet
  facet normal -0.70712 0 -0.707094
    outer loop
      vertex -108.677 -98.7 9.97734
      vertex -99.6 -39.3 0.9
      vertex -99.6 -98.7 0.9
    endloop
  endfacet
  facet normal -0.70712 0 -0.707094
    outer loop
      vertex -99.6 -39.3 0.9
      vertex -108.677 -98.7 9.97734
      vertex -108.677 -39.3 9.97734
    endloop
  endfacet
  facet normal 0.709852 0 -0.704351
    outer loop
      vertex 109.2 -98.7 9.97734
      vertex 100.193 -39.3 0.9
      vertex 109.2 -39.3 9.97734
    endloop
  endfacet
  facet normal 0.709852 0 -0.704351
    outer loop
      vertex 100.193 -39.3 0.9
      vertex 109.2 -98.7 9.97734
      vertex 100.193 -98.7 0.9
    endloop
  endfacet
  facet normal 0.578842 0.578842 -0.574356
    outer loop
      vertex -50 -39.3 9.1711
      vertex -50 -47.507 0.9
      vertex -58.207 -39.3 0.9
    endloop
  endfacet
  facet normal 0.578842 0.578842 -0.574356
    outer loop
      vertex -39.3 -50 9.1711
      vertex -39.3 -58.207 0.9
      vertex -47.507 -50 0.9
    endloop
  endfacet
  facet normal 0 0.709852 -0.704351
    outer loop
      vertex 39.9 -58.207 0.9
      vertex -39.3 -50 9.1711
      vertex 39.9 -50 9.1711
    endloop
  endfacet
  facet normal 0 0.709852 -0.704351
    outer loop
      vertex -39.3 -50 9.1711
      vertex 39.9 -58.207 0.9
      vertex -39.3 -58.207 0.9
    endloop
  endfacet
  facet normal -0.578853 0.574331 -0.578855
    outer loop
      vertex 50 -39.3 9.69999
      vertex 57.914 -40.193 0.9
      vertex 50 -44.15 4.88789
    endloop
  endfacet
  facet normal -0.578859 0.574321 -0.578859
    outer loop
      vertex 57.914 -40.193 0.9
      vertex 50 -39.3 9.69999
      vertex 58.8 -39.3 0.9
    endloop
  endfacet
  facet normal -0.578842 0.578842 -0.574356
    outer loop
      vertex 39.9 -50 9.1711
      vertex 48.107 -50 0.9
      vertex 39.9 -58.207 0.9
    endloop
  endfacet
  facet normal -0.578841 0.578841 -0.574357
    outer loop
      vertex 50 -44.15 4.88789
      vertex 57.914 -40.193 0.9
      vertex 50 -48.107 0.9
    endloop
  endfacet
  facet normal -0.575836 0.58035 -0.575853
    outer loop
      vertex -99.6 -39.3 0.9
      vertex -98.7 -29.4 9.97734
      vertex -98.7 -38.407 0.9
    endloop
  endfacet
  facet normal -0.575861 0.58034 -0.575839
    outer loop
      vertex -98.7 -29.4 9.97734
      vertex -99.6 -39.3 0.9
      vertex -108.677 -39.3 9.97734
    endloop
  endfacet
  facet normal 0 0.709852 -0.704351
    outer loop
      vertex -78.9 -38.407 0.9
      vertex -98.7 -29.4 9.97734
      vertex -78.9 -29.4 9.97734
    endloop
  endfacet
  facet normal 0 0.709852 -0.704351
    outer loop
      vertex -98.7 -29.4 9.97734
      vertex -78.9 -38.407 0.9
      vertex -98.7 -38.407 0.9
    endloop
  endfacet
  facet normal -0.57886 0.574322 -0.578857
    outer loop
      vertex -60.886 -20.393 0.9
      vertex -69.0773 -19.5 9.97734
      vertex -60 -19.5 0.9
    endloop
  endfacet
  facet normal -0.578853 0.574333 -0.578852
    outer loop
      vertex -69.0773 -19.5 9.97734
      vertex -60.886 -20.393 0.9
      vertex -78.9 -29.4 9.97734
    endloop
  endfacet
  facet normal -0.578842 0.578842 -0.574356
    outer loop
      vertex -78.9 -29.4 9.97734
      vertex -60.886 -20.393 0.9
      vertex -78.9 -38.407 0.9
    endloop
  endfacet
  facet normal 0.709852 0 -0.704351
    outer loop
      vertex -50 -39.3 9.1711
      vertex -58.207 39.9 0.9
      vertex -50 39.9 9.1711
    endloop
  endfacet
  facet normal 0.709852 0 -0.704351
    outer loop
      vertex -58.207 39.9 0.9
      vertex -50 -39.3 9.1711
      vertex -58.207 -39.3 0.9
    endloop
  endfacet
  facet normal -0.707106 0 -0.707107
    outer loop
      vertex 50 -39.3 9.69999
      vertex 58.8 39.9 0.9
      vertex 58.8 -39.3 0.9
    endloop
  endfacet
  facet normal -0.707106 0 -0.707107
    outer loop
      vertex 58.8 39.9 0.9
      vertex 50 -39.3 9.69999
      vertex 50 39.9 9.69999
    endloop
  endfacet
  facet normal 0.578842 0.578842 -0.574356
    outer loop
      vertex 78.607 -37.514 0.9
      vertex 79.5 -29.4 9.97734
      vertex 79.5 -38.407 0.9
    endloop
  endfacet
  facet normal 0.578842 0.578842 -0.574356
    outer loop
      vertex 79.5 -29.4 9.97734
      vertex 78.607 -37.514 0.9
      vertex 69.6 -19.5 9.97734
    endloop
  endfacet
  facet normal 0.578842 0.578842 -0.574356
    outer loop
      vertex 69.6 -19.5 9.97734
      vertex 78.607 -37.514 0.9
      vertex 60.593 -19.5 0.9
    endloop
  endfacet
  facet normal 0 0.709852 -0.704351
    outer loop
      vertex 99.3 -38.407 0.9
      vertex 79.5 -29.4 9.97734
      vertex 99.3 -29.4 9.97734
    endloop
  endfacet
  facet normal 0 0.709852 -0.704351
    outer loop
      vertex 79.5 -29.4 9.97734
      vertex 99.3 -38.407 0.9
      vertex 79.5 -38.407 0.9
    endloop
  endfacet
  facet normal 0.578842 0.578842 -0.574356
    outer loop
      vertex 100.193 -39.3 0.9
      vertex 99.3 -29.4 9.97734
      vertex 109.2 -39.3 9.97734
    endloop
  endfacet
  facet normal 0.578842 0.578842 -0.574356
    outer loop
      vertex 99.3 -29.4 9.97734
      vertex 100.193 -39.3 0.9
      vertex 99.3 -38.407 0.9
    endloop
  endfacet
  facet normal -0.707108 -0 -0.707105
    outer loop
      vertex -69.0773 0.299999 9.97734
      vertex -60 -19.5 0.9
      vertex -69.0773 -19.5 9.97734
    endloop
  endfacet
  facet normal -0.707108 0 -0.707105
    outer loop
      vertex -60 -19.5 0.9
      vertex -69.0773 0.299999 9.97734
      vertex -60 59.7 0.9
    endloop
  endfacet
  facet normal -0.707108 0 -0.707105
    outer loop
      vertex -60 59.7 0.9
      vertex -69.0773 0.299999 9.97734
      vertex -69.0773 59.7 9.97734
    endloop
  endfacet
  facet normal 0.709852 0 -0.704351
    outer loop
      vertex 69.6 0.299999 9.97734
      vertex 60.593 59.7 0.9
      vertex 69.6 59.7 9.97734
    endloop
  endfacet
  facet normal 0.709852 0 -0.704351
    outer loop
      vertex 60.593 -19.5 0.9
      vertex 69.6 0.299999 9.97734
      vertex 69.6 -19.5 9.97734
    endloop
  endfacet
  facet normal 0.709852 0 -0.704351
    outer loop
      vertex 69.6 0.299999 9.97734
      vertex 60.593 -19.5 0.9
      vertex 60.593 59.7 0.9
    endloop
  endfacet
  facet normal 0.577309 -0.581871 -0.572835
    outer loop
      vertex -57.314 40.786 0.9
      vertex -50 39.9 9.1711
      vertex -58.207 39.9 0.9
    endloop
  endfacet
  facet normal 0.577312 -0.581866 -0.572837
    outer loop
      vertex -50 39.9 9.1711
      vertex -57.314 40.786 0.9
      vertex -50 44.4144 4.58555
    endloop
  endfacet
  facet normal 0.577348 -0.577348 -0.577355
    outer loop
      vertex -50 48.1 0.9
      vertex -50 44.4144 4.58555
      vertex -57.314 40.786 0.9
    endloop
  endfacet
  facet normal 0.57735 -0.57735 -0.577351
    outer loop
      vertex -39.3 58.8 0.9
      vertex -39.3 50 9.69999
      vertex -48.1 50 0.9
    endloop
  endfacet
  facet normal 0 -0.707106 -0.707107
    outer loop
      vertex -39.3 50 9.69999
      vertex 39.9 58.8 0.9
      vertex 39.9 50 9.69999
    endloop
  endfacet
  facet normal -0 -0.707106 -0.707107
    outer loop
      vertex 39.9 58.8 0.9
      vertex -39.3 50 9.69999
      vertex -39.3 58.8 0.9
    endloop
  endfacet
  facet normal -0.57735 -0.57735 -0.577351
    outer loop
      vertex 39.9 58.8 0.9
      vertex 48.7 50 0.9
      vertex 39.9 50 9.69999
    endloop
  endfacet
  facet normal -0.57735 -0.57735 -0.577351
    outer loop
      vertex 50 48.7 0.9
      vertex 58.8 39.9 0.9
      vertex 50 39.9 9.69999
    endloop
  endfacet
  facet normal -0.575836 0.58035 -0.575853
    outer loop
      vertex -60 59.7 0.9
      vertex -59.1 69.6 9.97734
      vertex -59.1 60.593 0.9
    endloop
  endfacet
  facet normal -0.575848 0.580345 -0.575846
    outer loop
      vertex -59.1 69.6 9.97734
      vertex -60 59.7 0.9
      vertex -69.0773 59.7 9.97734
    endloop
  endfacet
  facet normal 0 0.709852 -0.704351
    outer loop
      vertex 59.7 60.593 0.9
      vertex -59.1 69.6 9.97734
      vertex 59.7 69.6 9.97734
    endloop
  endfacet
  facet normal 0 0.709852 -0.704351
    outer loop
      vertex -59.1 69.6 9.97734
      vertex 59.7 60.593 0.9
      vertex -59.1 60.593 0.9
    endloop
  endfacet
  facet normal 0.578842 0.578842 -0.574356
    outer loop
      vertex 69.6 59.7 9.97734
      vertex 59.7 60.593 0.9
      vertex 59.7 69.6 9.97734
    endloop
  endfacet
  facet normal 0.578842 0.578842 -0.574356
    outer loop
      vertex 59.7 60.593 0.9
      vertex 69.6 59.7 9.97734
      vertex 60.593 59.7 0.9
    endloop
  endfacet
  facet normal -0.707107 -0.707107 0
    outer loop
      vertex -98.7 -108.677 9.97734
      vertex -108.677 -98.7 108.977
      vertex -108.677 -98.7 9.97734
    endloop
  endfacet
  facet normal -0.707107 -0.707107 0
    outer loop
      vertex -108.677 -98.7 108.977
      vertex -98.7 -108.677 9.97734
      vertex -98.7 -108.677 108.977
    endloop
  endfacet
  facet normal 0 -1 0
    outer loop
      vertex -98.7 -108.677 9.97734
      vertex 99.3 -108.677 108.977
      vertex -98.7 -108.677 108.977
    endloop
  endfacet
  facet normal 0 -1 -0
    outer loop
      vertex 99.3 -108.677 108.977
      vertex -98.7 -108.677 9.97734
      vertex 99.3 -108.677 9.97734
    endloop
  endfacet
  facet normal 0.709841 -0.704362 0
    outer loop
      vertex 99.3 -108.677 108.977
      vertex 109.2 -98.7 9.97734
      vertex 109.2 -98.7 108.977
    endloop
  endfacet
  facet normal 0.709841 -0.704362 0
    outer loop
      vertex 109.2 -98.7 9.97734
      vertex 99.3 -108.677 108.977
      vertex 99.3 -108.677 9.97734
    endloop
  endfacet
  facet normal -1 0 0
    outer loop
      vertex -108.677 -39.3 9.97734
      vertex -108.677 -98.7 9.97734
      vertex -108.677 -39.3 29.7773
    endloop
  endfacet
  facet normal -1 0 0
    outer loop
      vertex -108.677 -98.7 108.977
      vertex -108.677 -19.5 49.5773
      vertex -108.677 -39.3 29.7773
    endloop
  endfacet
  facet normal -1 0 0
    outer loop
      vertex -108.677 -98.7 108.977
      vertex -108.677 -39.3 29.7773
      vertex -108.677 -98.7 9.97734
    endloop
  endfacet
  facet normal -1 0 0
    outer loop
      vertex -108.677 -19.5 49.5773
      vertex -108.677 -98.7 108.977
      vertex -108.677 -19.5 108.977
    endloop
  endfacet
  facet normal 1 -0 0
    outer loop
      vertex 109.2 -98.7 108.977
      vertex 109.2 -19.5 49.5773
      vertex 109.2 -19.5 108.977
    endloop
  endfacet
  facet normal 1 0 0
    outer loop
      vertex 109.2 -19.5 49.5773
      vertex 109.2 -98.7 108.977
      vertex 109.2 -39.3 29.7773
    endloop
  endfacet
  facet normal 1 0 0
    outer loop
      vertex 109.2 -98.7 9.97734
      vertex 109.2 -39.3 29.7773
      vertex 109.2 -98.7 108.977
    endloop
  endfacet
  facet normal 1 0 0
    outer loop
      vertex 109.2 -39.3 29.7773
      vertex 109.2 -98.7 9.97734
      vertex 109.2 -39.3 9.97734
    endloop
  endfacet
  facet normal -0.704362 0.709841 0
    outer loop
      vertex -98.7 -29.4 9.97734
      vertex -108.677 -39.3 29.7773
      vertex -98.7 -29.4 29.7773
    endloop
  endfacet
  facet normal -0.704362 0.709841 0
    outer loop
      vertex -108.677 -39.3 29.7773
      vertex -98.7 -29.4 9.97734
      vertex -108.677 -39.3 9.97734
    endloop
  endfacet
  facet normal 0 1 0
    outer loop
      vertex -98.7 -29.4 29.7773
      vertex -78.9 -29.4 9.97734
      vertex -98.7 -29.4 9.97734
    endloop
  endfacet
  facet normal 0.575835 0.575835 -0.580369
    outer loop
      vertex 79.5 -19.5 19.8
      vertex 79.5 -29.4 9.97734
      vertex 69.6 -19.5 9.97734
    endloop
  endfacet
  facet normal 0.581847 0.572829 -0.577339
    outer loop
      vertex 79.5 -19.5 19.8
      vertex 89.4 -19.5 29.7773
      vertex 79.5 -29.4 9.97734
    endloop
  endfacet
  facet normal 0.57735 0.57735 -0.577351
    outer loop
      vertex 89.4 -19.5 29.7773
      vertex 99.3 -29.4 29.7773
      vertex 79.5 -29.4 9.97734
    endloop
  endfacet
  facet normal 0 1 0
    outer loop
      vertex 99.3 -29.4 29.7773
      vertex 99.3 -29.4 9.97734
      vertex 79.5 -29.4 9.97734
    endloop
  endfacet
  facet normal 0.707107 0.707107 -0
    outer loop
      vertex 109.2 -39.3 9.97734
      vertex 99.3 -29.4 29.7773
      vertex 109.2 -39.3 29.7773
    endloop
  endfacet
  facet normal 0.707107 0.707107 0
    outer loop
      vertex 99.3 -29.4 29.7773
      vertex 109.2 -39.3 9.97734
      vertex 99.3 -29.4 9.97734
    endloop
  endfacet
  facet normal -0.707105 -0 -0.707108
    outer loop
      vertex -69.0773 0.299999 9.97734
      vertex -69.0773 -19.5 9.97734
      vertex -78.9 -19.5 19.8
    endloop
  endfacet
  facet normal -0.578853 0.574332 0.578854
    outer loop
      vertex -59.1 -9.6 29.7773
      vertex -69.0773 0.299999 9.97734
      vertex -78.9 -19.5 19.8
    endloop
  endfacet
  facet normal 0 0.709851 -0.704352
    outer loop
      vertex -78.9 -9.6 29.7773
      vertex -59.1 -9.6 29.7773
      vertex -78.9 -19.5 19.8
    endloop
  endfacet
  facet normal -0.574355 0.578842 0.578842
    outer loop
      vertex -59.1 -9.6 29.7773
      vertex -59.1 0.299999 19.8773
      vertex -69.0773 0.299999 9.97734
    endloop
  endfacet
  facet normal 0.57735 0.57735 0.57735
    outer loop
      vertex -59.1 -9.6 29.7773
      vertex -50 -17.9 28.9773
      vertex -59.1 0.299999 19.8773
    endloop
  endfacet
  facet normal 0.57735 0.57735 0.57735
    outer loop
      vertex -50 -17.9 28.9773
      vertex -59.1 -9.6 29.7773
      vertex -50 -18.7 29.7773
    endloop
  endfacet
  facet normal 0.57735 0.57735 0.57735
    outer loop
      vertex -50 -17.9 28.9773
      vertex -50 0.299999 10.7773
      vertex -59.1 0.299999 19.8773
    endloop
  endfacet
  facet normal -0.574354 0.578844 0.578842
    outer loop
      vertex 50 0.0248 10.5277
      vertex 59.7 0.299999 19.8773
      vertex 50 0.299999 10.2525
    endloop
  endfacet
  facet normal -0.574355 0.578842 0.578842
    outer loop
      vertex 59.7 0.299999 19.8773
      vertex 50 0.0248 10.5277
      vertex 59.7 -9.6 29.7773
    endloop
  endfacet
  facet normal -0.574355 0.578842 0.578842
    outer loop
      vertex 59.7 -9.6 29.7773
      vertex 50 0.0248 10.5277
      vertex 50 -19.2248 29.7773
    endloop
  endfacet
  facet normal 0 0.709851 -0.704352
    outer loop
      vertex 79.5 -9.6 29.7773
      vertex 79.5 -19.5 19.8
      vertex 59.7 -9.6 29.7773
    endloop
  endfacet
  facet normal 0.578852 0.575846 0.57735
    outer loop
      vertex 79.5 -19.5 19.8
      vertex 69.6 0.299999 9.97734
      vertex 59.7 -9.6 29.7773
    endloop
  endfacet
  facet normal 0.704329 0 -0.709874
    outer loop
      vertex 69.6 0.299999 9.97734
      vertex 79.5 -19.5 19.8
      vertex 69.6 -19.5 9.97734
    endloop
  endfacet
  facet normal 0.577349 0.577351 0.577351
    outer loop
      vertex 69.6 0.299999 9.97734
      vertex 59.7 0.299999 19.8773
      vertex 59.7 -9.6 29.7773
    endloop
  endfacet
  facet normal 0.578841 0.578841 -0.574357
    outer loop
      vertex 79.5 -9.6 29.7773
      vertex 89.4 -19.5 29.7773
      vertex 79.5 -19.5 19.8
    endloop
  endfacet
  facet normal -0.70435 0 0.709853
    outer loop
      vertex -69.0773 59.7 9.97734
      vertex -59.1 39.9 19.8773
      vertex -59.1 59.7 19.8773
    endloop
  endfacet
  facet normal -0.70435 0 0.709853
    outer loop
      vertex -69.0773 0.299999 9.97734
      vertex -59.1 39.9 19.8773
      vertex -69.0773 59.7 9.97734
    endloop
  endfacet
  facet normal -0.70435 0 0.709853
    outer loop
      vertex -59.1 39.9 19.8773
      vertex -69.0773 0.299999 9.97734
      vertex -59.1 0.299999 19.8773
    endloop
  endfacet
  facet normal 0.707107 -0 0.707107
    outer loop
      vertex -59.1 0.299999 19.8773
      vertex -50 39.9 10.7773
      vertex -59.1 39.9 19.8773
    endloop
  endfacet
  facet normal 0.707107 0 0.707107
    outer loop
      vertex -50 39.9 10.7773
      vertex -59.1 0.299999 19.8773
      vertex -50 0.299999 10.7773
    endloop
  endfacet
  facet normal -0.70435 0 0.709853
    outer loop
      vertex 50 39.9 10.2525
      vertex 59.7 0.299999 19.8773
      vertex 59.7 39.9 19.8773
    endloop
  endfacet
  facet normal -0.70435 0 0.709853
    outer loop
      vertex 59.7 0.299999 19.8773
      vertex 50 39.9 10.2525
      vertex 50 0.299999 10.2525
    endloop
  endfacet
  facet normal 0.707105 -0 0.707108
    outer loop
      vertex 59.7 39.9 19.8773
      vertex 69.6 59.7 9.97734
      vertex 59.7 59.7 19.8773
    endloop
  endfacet
  facet normal 0.707105 0 0.707108
    outer loop
      vertex 69.6 0.299999 9.97734
      vertex 59.7 39.9 19.8773
      vertex 59.7 0.299999 19.8773
    endloop
  endfacet
  facet normal 0.707105 0 0.707108
    outer loop
      vertex 59.7 39.9 19.8773
      vertex 69.6 0.299999 9.97734
      vertex 69.6 59.7 9.97734
    endloop
  endfacet
  facet normal 0.572828 -0.577339 0.581849
    outer loop
      vertex -39.3 50 10.2525
      vertex -39.3 59.7 19.8773
      vertex -44.15 50 15.0273
    endloop
  endfacet
  facet normal 0.57735 -0.57735 0.57735
    outer loop
      vertex -50 39.9 10.7773
      vertex -50 49 19.8773
      vertex -59.1 39.9 19.8773
    endloop
  endfacet
  facet normal 0.57735 -0.57735 0.57735
    outer loop
      vertex -44.15 50 15.0273
      vertex -39.3 59.7 19.8773
      vertex -49 50 19.8773
    endloop
  endfacet
  facet normal -0 0 1
    outer loop
      vertex -59.1 59.7 19.8773
      vertex -49 50 19.8773
      vertex -39.3 59.7 19.8773
    endloop
  endfacet
  facet normal 0 0 1
    outer loop
      vertex -49 50 19.8773
      vertex -59.1 59.7 19.8773
      vertex -50 50 19.8773
    endloop
  endfacet
  facet normal 0 0 1
    outer loop
      vertex -59.1 39.9 19.8773
      vertex -50 50 19.8773
      vertex -59.1 59.7 19.8773
    endloop
  endfacet
  facet normal 0 0 1
    outer loop
      vertex -50 50 19.8773
      vertex -59.1 39.9 19.8773
      vertex -50 49 19.8773
    endloop
  endfacet
  facet normal 0 -0.70435 0.709853
    outer loop
      vertex -39.3 59.7 19.8773
      vertex 39.9 50 10.2525
      vertex 39.9 59.7 19.8773
    endloop
  endfacet
  facet normal 0 -0.70435 0.709853
    outer loop
      vertex 39.9 50 10.2525
      vertex -39.3 59.7 19.8773
      vertex -39.3 50 10.2525
    endloop
  endfacet
  facet normal -0.575847 -0.575847 0.580346
    outer loop
      vertex 59.7 39.9 19.8773
      vertex 50 49.6 19.8773
      vertex 50 39.9 10.2525
    endloop
  endfacet
  facet normal -0.575847 -0.575847 0.580346
    outer loop
      vertex 49.6 50 19.8773
      vertex 39.9 59.7 19.8773
      vertex 39.9 50 10.2525
    endloop
  endfacet
  facet normal 0 0 1
    outer loop
      vertex 59.7 59.7 19.8773
      vertex 50 50 19.8773
      vertex 59.7 39.9 19.8773
    endloop
  endfacet
  facet normal 0 0 1
    outer loop
      vertex 59.7 59.7 19.8773
      vertex 49.6 50 19.8773
      vertex 50 50 19.8773
    endloop
  endfacet
  facet normal 0 -0 1
    outer loop
      vertex 49.6 50 19.8773
      vertex 59.7 59.7 19.8773
      vertex 39.9 59.7 19.8773
    endloop
  endfacet
  facet normal 0 0 1
    outer loop
      vertex 59.7 39.9 19.8773
      vertex 50 50 19.8773
      vertex 50 49.6 19.8773
    endloop
  endfacet
  facet normal -0.574356 0.57884 0.578843
    outer loop
      vertex -59.1 59.7 19.8773
      vertex -59.1 69.6 9.97734
      vertex -69.0773 59.7 9.97734
    endloop
  endfacet
  facet normal 0 0.707105 0.707108
    outer loop
      vertex 59.7 69.6 9.97734
      vertex 39.9 59.7 19.8773
      vertex 59.7 59.7 19.8773
    endloop
  endfacet
  facet normal 0 0.707105 0.707108
    outer loop
      vertex 39.9 59.7 19.8773
      vertex 59.7 69.6 9.97734
      vertex -39.3 59.7 19.8773
    endloop
  endfacet
  facet normal -0 0.707105 0.707108
    outer loop
      vertex -59.1 69.6 9.97734
      vertex -39.3 59.7 19.8773
      vertex 59.7 69.6 9.97734
    endloop
  endfacet
  facet normal 0 0.707105 0.707108
    outer loop
      vertex -39.3 59.7 19.8773
      vertex -59.1 69.6 9.97734
      vertex -59.1 59.7 19.8773
    endloop
  endfacet
  facet normal 0.577349 0.577349 0.577352
    outer loop
      vertex 69.6 59.7 9.97734
      vertex 59.7 69.6 9.97734
      vertex 59.7 59.7 19.8773
    endloop
  endfacet
  facet normal -0.572854 0.577309 -0.581853
    outer loop
      vertex -98.7 -19.5 39.6
      vertex -98.7 -29.4 29.7773
      vertex -108.677 -39.3 29.7773
    endloop
  endfacet
  facet normal -0.577362 0.577344 -0.577344
    outer loop
      vertex -108.677 -19.5 49.5773
      vertex -98.7 -19.5 39.6
      vertex -108.677 -39.3 29.7773
    endloop
  endfacet
  facet normal -0.578852 0.574332 -0.578854
    outer loop
      vertex -78.9 -29.4 9.97734
      vertex -78.9 -19.5 19.8
      vertex -69.0773 -19.5 9.97734
    endloop
  endfacet
  facet normal -0.578853 0.574332 -0.578854
    outer loop
      vertex -78.9 -19.5 19.8
      vertex -78.9 -29.4 9.97734
      vertex -98.7 -29.4 29.7773
    endloop
  endfacet
  facet normal -0.578853 0.574333 -0.578853
    outer loop
      vertex -78.9 -19.5 19.8
      vertex -98.7 -29.4 29.7773
      vertex -98.7 -19.5 39.6
    endloop
  endfacet
  facet normal 0.575836 0.575836 -0.580367
    outer loop
      vertex 99.3 -19.5 39.6
      vertex 99.3 -29.4 29.7773
      vertex 89.4 -19.5 29.7773
    endloop
  endfacet
  facet normal 0.581846 0.572831 -0.577339
    outer loop
      vertex 99.3 -19.5 39.6
      vertex 109.2 -19.5 49.5773
      vertex 99.3 -29.4 29.7773
    endloop
  endfacet
  facet normal 0.57735 0.57735 -0.57735
    outer loop
      vertex 109.2 -19.5 49.5773
      vertex 109.2 -39.3 29.7773
      vertex 99.3 -29.4 29.7773
    endloop
  endfacet
  facet normal -0.575859 0.580338 -0.575842
    outer loop
      vertex -98.7 -9.6 49.5773
      vertex -98.7 -19.5 39.6
      vertex -108.677 -19.5 49.5773
    endloop
  endfacet
  facet normal -0.575848 0.580344 -0.575848
    outer loop
      vertex -78.9 -9.6 29.7773
      vertex -98.7 -19.5 39.6
      vertex -98.7 -9.6 49.5773
    endloop
  endfacet
  facet normal -0.575848 0.580344 -0.575848
    outer loop
      vertex -98.7 -19.5 39.6
      vertex -78.9 -9.6 29.7773
      vertex -78.9 -19.5 19.8
    endloop
  endfacet
  facet normal 0.707107 0.707107 0
    outer loop
      vertex -50 -18.7 108.977
      vertex -59.1 -9.6 29.7773
      vertex -59.1 -9.6 108.977
    endloop
  endfacet
  facet normal 0.707107 0.707107 0
    outer loop
      vertex -59.1 -9.6 29.7773
      vertex -50 -18.7 108.977
      vertex -50 -18.7 29.7773
    endloop
  endfacet
  facet normal -0.70435 0.709853 0
    outer loop
      vertex 59.7 -9.6 29.7773
      vertex 50 -19.2248 108.977
      vertex 59.7 -9.6 108.977
    endloop
  endfacet
  facet normal -0.70435 0.709853 0
    outer loop
      vertex 50 -19.2248 108.977
      vertex 59.7 -9.6 29.7773
      vertex 50 -19.2248 29.7773
    endloop
  endfacet
  facet normal 0 1 -0
    outer loop
      vertex 99.3 -9.6 49.5773
      vertex 59.7 -9.6 108.977
      vertex 99.3 -9.6 108.977
    endloop
  endfacet
  facet normal 0 1 0
    outer loop
      vertex 59.7 -9.6 29.7773
      vertex 99.3 -9.6 49.5773
      vertex 79.5 -9.6 29.7773
    endloop
  endfacet
  facet normal 0 1 0
    outer loop
      vertex 99.3 -9.6 49.5773
      vertex 59.7 -9.6 29.7773
      vertex 59.7 -9.6 108.977
    endloop
  endfacet
  facet normal 0.575836 0.575836 -0.580367
    outer loop
      vertex 99.3 -19.5 39.6
      vertex 89.4 -19.5 29.7773
      vertex 79.5 -9.6 29.7773
    endloop
  endfacet
  facet normal 0.575848 0.580344 -0.575848
    outer loop
      vertex 99.3 -9.6 49.5773
      vertex 99.3 -19.5 39.6
      vertex 79.5 -9.6 29.7773
    endloop
  endfacet
  facet normal 0.578841 0.578841 -0.574357
    outer loop
      vertex 99.3 -9.6 49.5773
      vertex 109.2 -19.5 49.5773
      vertex 99.3 -19.5 39.6
    endloop
  endfacet
  facet normal -0.704362 0.709841 0
    outer loop
      vertex -98.7 -9.6 49.5773
      vertex -108.677 -19.5 108.977
      vertex -98.7 -9.6 108.977
    endloop
  endfacet
  facet normal -0.704362 0.709841 0
    outer loop
      vertex -108.677 -19.5 108.977
      vertex -98.7 -9.6 49.5773
      vertex -108.677 -19.5 49.5773
    endloop
  endfacet
  facet normal 0 1 0
    outer loop
      vertex -59.1 -9.6 108.977
      vertex -98.7 -9.6 49.5773
      vertex -98.7 -9.6 108.977
    endloop
  endfacet
  facet normal 0 1 -0
    outer loop
      vertex -59.1 -9.6 29.7773
      vertex -98.7 -9.6 49.5773
      vertex -59.1 -9.6 108.977
    endloop
  endfacet
  facet normal 0 1 0
    outer loop
      vertex -98.7 -9.6 49.5773
      vertex -59.1 -9.6 29.7773
      vertex -78.9 -9.6 29.7773
    endloop
  endfacet
  facet normal 0.707107 0.707107 -0
    outer loop
      vertex 109.2 -19.5 49.5773
      vertex 99.3 -9.6 108.977
      vertex 109.2 -19.5 108.977
    endloop
  endfacet
  facet normal 0.707107 0.707107 0
    outer loop
      vertex 99.3 -9.6 108.977
      vertex 109.2 -19.5 49.5773
      vertex 99.3 -9.6 49.5773
    endloop
  endfacet
  facet normal -0.575853 -0.575853 0.580332
    outer loop
      vertex -98.7 -108.677 108.977
      vertex -98.7 -98.7 118.877
      vertex -108.677 -98.7 108.977
    endloop
  endfacet
  facet normal 0 -0.704362 0.709841
    outer loop
      vertex -98.7 -98.7 118.877
      vertex 99.3 -108.677 108.977
      vertex 99.3 -98.7 118.877
    endloop
  endfacet
  facet normal 0 -0.704362 0.709841
    outer loop
      vertex 99.3 -108.677 108.977
      vertex -98.7 -98.7 118.877
      vertex -98.7 -108.677 108.977
    endloop
  endfacet
  facet normal 0.578836 -0.574368 0.578836
    outer loop
      vertex 109.2 -98.7 108.977
      vertex 99.3 -98.7 118.877
      vertex 99.3 -108.677 108.977
    endloop
  endfacet
  facet normal -0.704362 0 0.709841
    outer loop
      vertex -108.677 -19.5 108.977
      vertex -98.7 -98.7 118.877
      vertex -98.7 -19.5 118.877
    endloop
  endfacet
  facet normal -0.704362 0 0.709841
    outer loop
      vertex -98.7 -98.7 118.877
      vertex -108.677 -19.5 108.977
      vertex -108.677 -98.7 108.977
    endloop
  endfacet
  facet normal 0 0 1
    outer loop
      vertex -59.1 -19.5 118.877
      vertex -98.7 -19.5 118.877
      vertex -59.1 -39.3 118.877
    endloop
  endfacet
  facet normal 0 0 1
    outer loop
      vertex -50 -48.4 118.877
      vertex -59.1 -39.3 118.877
      vertex -50 -50 118.877
    endloop
  endfacet
  facet normal 0 0 1
    outer loop
      vertex 59.7 -39.3 118.877
      vertex 99.3 -19.5 118.877
      vertex 59.7 -19.5 118.877
    endloop
  endfacet
  facet normal 0 0 1
    outer loop
      vertex 99.3 -19.5 118.877
      vertex 59.7 -39.3 118.877
      vertex 99.3 -98.7 118.877
    endloop
  endfacet
  facet normal 0 0 1
    outer loop
      vertex 50 -50 118.877
      vertex 59.7 -39.3 118.877
      vertex 50 -49 118.877
    endloop
  endfacet
  facet normal 0 0 1
    outer loop
      vertex 59.7 -39.3 118.877
      vertex 50 -50 118.877
      vertex 99.3 -98.7 118.877
    endloop
  endfacet
  facet normal 0 0 1
    outer loop
      vertex 39.9 -59.1 118.877
      vertex 50 -50 118.877
      vertex 49 -50 118.877
    endloop
  endfacet
  facet normal 0 0 1
    outer loop
      vertex 50 -50 118.877
      vertex 39.9 -59.1 118.877
      vertex 99.3 -98.7 118.877
    endloop
  endfacet
  facet normal -0 0 1
    outer loop
      vertex -39.3 -59.1 118.877
      vertex 99.3 -98.7 118.877
      vertex 39.9 -59.1 118.877
    endloop
  endfacet
  facet normal -0 0 1
    outer loop
      vertex -50 -50 118.877
      vertex -39.3 -59.1 118.877
      vertex -48.4 -50 118.877
    endloop
  endfacet
  facet normal 0 0 1
    outer loop
      vertex -98.7 -98.7 118.877
      vertex -59.1 -39.3 118.877
      vertex -98.7 -19.5 118.877
    endloop
  endfacet
  facet normal 0 0 1
    outer loop
      vertex -59.1 -39.3 118.877
      vertex -98.7 -98.7 118.877
      vertex -50 -50 118.877
    endloop
  endfacet
  facet normal 0 0 1
    outer loop
      vertex -39.3 -59.1 118.877
      vertex -98.7 -98.7 118.877
      vertex 99.3 -98.7 118.877
    endloop
  endfacet
  facet normal 0 0 1
    outer loop
      vertex -50 -50 118.877
      vertex -98.7 -98.7 118.877
      vertex -39.3 -59.1 118.877
    endloop
  endfacet
  facet normal 0.707107 -0 0.707107
    outer loop
      vertex 99.3 -98.7 118.877
      vertex 109.2 -19.5 108.977
      vertex 99.3 -19.5 118.877
    endloop
  endfacet
  facet normal 0.707107 0 0.707107
    outer loop
      vertex 109.2 -19.5 108.977
      vertex 99.3 -98.7 118.877
      vertex 109.2 -98.7 108.977
    endloop
  endfacet
  facet normal 0.57735 0.57735 0.57735
    outer loop
      vertex -39.3 -59.1 118.877
      vertex -39.3 -50 109.777
      vertex -48.4 -50 118.877
    endloop
  endfacet
  facet normal 0.57735 0.57735 0.57735
    outer loop
      vertex -50 -48.4 118.877
      vertex -50 -39.3 109.777
      vertex -59.1 -39.3 118.877
    endloop
  endfacet
  facet normal 0 0.707107 0.707107
    outer loop
      vertex 39.9 -50 109.777
      vertex -39.3 -59.1 118.877
      vertex 39.9 -59.1 118.877
    endloop
  endfacet
  facet normal 0 0.707107 0.707107
    outer loop
      vertex -39.3 -59.1 118.877
      vertex 39.9 -50 109.777
      vertex -39.3 -50 109.777
    endloop
  endfacet
  facet normal -0.580374 0.575833 0.575833
    outer loop
      vertex 44.4144 -50 114.327
      vertex 39.9 -50 109.777
      vertex 39.9 -59.1 118.877
    endloop
  endfacet
  facet normal -0.575845 0.575845 0.58035
    outer loop
      vertex 49 -50 118.877
      vertex 44.4144 -50 114.327
      vertex 39.9 -59.1 118.877
    endloop
  endfacet
  facet normal -0.575831 0.575831 0.580378
    outer loop
      vertex 59.7 -39.3 118.877
      vertex 50 -39.3 109.253
      vertex 50 -49 118.877
    endloop
  endfacet
  facet normal 0.707107 -0 0.707107
    outer loop
      vertex -59.1 -39.3 118.877
      vertex -50 -19.5 109.777
      vertex -59.1 -19.5 118.877
    endloop
  endfacet
  facet normal 0.707107 0 0.707107
    outer loop
      vertex -50 -19.5 109.777
      vertex -59.1 -39.3 118.877
      vertex -50 -39.3 109.777
    endloop
  endfacet
  facet normal -0.70432 0 0.709882
    outer loop
      vertex 50 -19.5 109.253
      vertex 59.7 -39.3 118.877
      vertex 59.7 -19.5 118.877
    endloop
  endfacet
  facet normal -0.70432 0 0.709882
    outer loop
      vertex 59.7 -39.3 118.877
      vertex 50 -19.5 109.253
      vertex 50 -39.3 109.253
    endloop
  endfacet
  facet normal -0.574368 0.578836 0.578836
    outer loop
      vertex -98.7 -19.5 118.877
      vertex -98.7 -9.6 108.977
      vertex -108.677 -19.5 108.977
    endloop
  endfacet
  facet normal 0 0.707107 0.707107
    outer loop
      vertex -59.1 -9.6 108.977
      vertex -98.7 -19.5 118.877
      vertex -59.1 -19.5 118.877
    endloop
  endfacet
  facet normal 0 0.707107 0.707107
    outer loop
      vertex -98.7 -19.5 118.877
      vertex -59.1 -9.6 108.977
      vertex -98.7 -9.6 108.977
    endloop
  endfacet
  facet normal 0.57735 0.57735 0.57735
    outer loop
      vertex -59.1 -19.5 118.877
      vertex -50 -18.7 108.977
      vertex -59.1 -9.6 108.977
    endloop
  endfacet
  facet normal 0.57735 0.57735 0.57735
    outer loop
      vertex -50 -18.7 108.977
      vertex -59.1 -19.5 118.877
      vertex -50 -19.5 109.777
    endloop
  endfacet
  facet normal -0.574323 0.578858 0.578858
    outer loop
      vertex 59.7 -9.6 108.977
      vertex 50 -19.5 109.253
      vertex 59.7 -19.5 118.877
    endloop
  endfacet
  facet normal -0.574913 0.579404 0.577725
    outer loop
      vertex 50 -19.5 109.253
      vertex 59.7 -9.6 108.977
      vertex 50 -19.2248 108.977
    endloop
  endfacet
  facet normal 0 0.707107 0.707107
    outer loop
      vertex 99.3 -9.6 108.977
      vertex 59.7 -19.5 118.877
      vertex 99.3 -19.5 118.877
    endloop
  endfacet
  facet normal 0 0.707107 0.707107
    outer loop
      vertex 59.7 -19.5 118.877
      vertex 99.3 -9.6 108.977
      vertex 59.7 -9.6 108.977
    endloop
  endfacet
  facet normal 0.57735 0.57735 0.57735
    outer loop
      vertex 109.2 -19.5 108.977
      vertex 99.3 -9.6 108.977
      vertex 99.3 -19.5 118.877
    endloop
  endfacet
  facet normal -1 0 0
    outer loop
      vertex 50 50 0.9
      vertex 50 49.6 19.8773
      vertex 50 50 19.8773
    endloop
  endfacet
  facet normal -1 0 0
    outer loop
      vertex 50 48.7 0.9
      vertex 50 49.6 19.8773
      vertex 50 50 0.9
    endloop
  endfacet
  facet normal -1 0 0
    outer loop
      vertex 50 39.9 10.2525
      vertex 50 48.7 0.9
      vertex 50 39.9 9.69999
    endloop
  endfacet
  facet normal -1 0 0
    outer loop
      vertex 50 48.7 0.9
      vertex 50 39.9 10.2525
      vertex 50 49.6 19.8773
    endloop
  endfacet
  facet normal -1 0 0
    outer loop
      vertex 50 39.9 9.69999
      vertex 50 0.299999 10.2525
      vertex 50 39.9 10.2525
    endloop
  endfacet
  facet normal -1 0 0
    outer loop
      vertex 50 -39.3 109.253
      vertex 50 -19.2248 108.977
      vertex 50 -19.2248 29.7773
    endloop
  endfacet
  facet normal -1 0 0
    outer loop
      vertex 50 -39.3 9.69999
      vertex 50 0.299999 10.2525
      vertex 50 39.9 9.69999
    endloop
  endfacet
  facet normal -1 0 0
    outer loop
      vertex 50 -39.3 9.69999
      vertex 50 0.0248 10.5277
      vertex 50 0.299999 10.2525
    endloop
  endfacet
  facet normal -1 0 0
    outer loop
      vertex 50 -39.3 9.69999
      vertex 50 -19.2248 29.7773
      vertex 50 0.0248 10.5277
    endloop
  endfacet
  facet normal -1 0 0
    outer loop
      vertex 50 -39.3 109.253
      vertex 50 -19.2248 29.7773
      vertex 50 -39.3 9.69999
    endloop
  endfacet
  facet normal -1 0 0
    outer loop
      vertex 50 -19.2248 108.977
      vertex 50 -39.3 109.253
      vertex 50 -19.5 109.253
    endloop
  endfacet
  facet normal -1 0 0
    outer loop
      vertex 50 -50 0.9
      vertex 50 -39.3 9.69999
      vertex 50 -44.15 4.88789
    endloop
  endfacet
  facet normal -1 0 0
    outer loop
      vertex 50 -50 0.9
      vertex 50 -44.15 4.88789
      vertex 50 -48.107 0.9
    endloop
  endfacet
  facet normal -1 -0 0
    outer loop
      vertex 50 -39.3 9.69999
      vertex 50 -50 0.9
      vertex 50 -39.3 109.253
    endloop
  endfacet
  facet normal -1 0 0
    outer loop
      vertex 50 -50 118.877
      vertex 50 -39.3 109.253
      vertex 50 -50 0.9
    endloop
  endfacet
  facet normal -1 0 0
    outer loop
      vertex 50 -39.3 109.253
      vertex 50 -50 118.877
      vertex 50 -49 118.877
    endloop
  endfacet
  facet normal 1 -0 0
    outer loop
      vertex -50 -39.3 109.777
      vertex -50 -18.7 108.977
      vertex -50 -19.5 109.777
    endloop
  endfacet
  facet normal 1 0 0
    outer loop
      vertex -50 44.4144 4.58555
      vertex -50 50 19.8773
      vertex -50 49 19.8773
    endloop
  endfacet
  facet normal 1 0 0
    outer loop
      vertex -50 50 19.8773
      vertex -50 44.4144 4.58555
      vertex -50 50 0.9
    endloop
  endfacet
  facet normal 1 0 0
    outer loop
      vertex -50 50 0.9
      vertex -50 44.4144 4.58555
      vertex -50 48.1 0.9
    endloop
  endfacet
  facet normal 1 -0 0
    outer loop
      vertex -50 39.9 10.7773
      vertex -50 44.4144 4.58555
      vertex -50 49 19.8773
    endloop
  endfacet
  facet normal 1 0 0
    outer loop
      vertex -50 39.9 10.7773
      vertex -50 39.9 9.1711
      vertex -50 44.4144 4.58555
    endloop
  endfacet
  facet normal 1 -0 0
    outer loop
      vertex -50 0.299999 10.7773
      vertex -50 39.9 9.1711
      vertex -50 39.9 10.7773
    endloop
  endfacet
  facet normal 1 0 0
    outer loop
      vertex -50 -39.3 9.1711
      vertex -50 -17.9 28.9773
      vertex -50 -18.7 29.7773
    endloop
  endfacet
  facet normal 1 0 0
    outer loop
      vertex -50 -18.7 108.977
      vertex -50 -39.3 109.777
      vertex -50 -18.7 29.7773
    endloop
  endfacet
  facet normal 1 0 0
    outer loop
      vertex -50 0.299999 10.7773
      vertex -50 -39.3 9.1711
      vertex -50 39.9 9.1711
    endloop
  endfacet
  facet normal 1 0 0
    outer loop
      vertex -50 -17.9 28.9773
      vertex -50 -39.3 9.1711
      vertex -50 0.299999 10.7773
    endloop
  endfacet
  facet normal 1 0 0
    outer loop
      vertex -50 -39.3 109.777
      vertex -50 -39.3 9.1711
      vertex -50 -18.7 29.7773
    endloop
  endfacet
  facet normal 1 0 0
    outer loop
      vertex -50 -50 0.9
      vertex -50 -39.3 9.1711
      vertex -50 -39.3 109.777
    endloop
  endfacet
  facet normal 1 -0 0
    outer loop
      vertex -50 -50 118.877
      vertex -50 -39.3 109.777
      vertex -50 -48.4 118.877
    endloop
  endfacet
  facet normal 1 0 0
    outer loop
      vertex -50 -50 0.9
      vertex -50 -39.3 109.777
      vertex -50 -50 118.877
    endloop
  endfacet
  facet normal 1 0 0
    outer loop
      vertex -50 -39.3 9.1711
      vertex -50 -50 0.9
      vertex -50 -47.507 0.9
    endloop
  endfacet
  facet normal 0 -1 0
    outer loop
      vertex -50 50 19.8773
      vertex -44.15 50 15.0273
      vertex -49 50 19.8773
    endloop
  endfacet
  facet normal 0 -1 0
    outer loop
      vertex -50 50 0.9
      vertex -44.15 50 15.0273
      vertex -50 50 19.8773
    endloop
  endfacet
  facet normal 0 -1 0
    outer loop
      vertex -39.3 50 10.2525
      vertex -39.3 50 9.69999
      vertex 39.9 50 10.2525
    endloop
  endfacet
  facet normal -0 -1 0
    outer loop
      vertex -39.3 50 9.69999
      vertex -44.15 50 15.0273
      vertex -48.1 50 0.9
    endloop
  endfacet
  facet normal 0 -1 0
    outer loop
      vertex -44.15 50 15.0273
      vertex -50 50 0.9
      vertex -48.1 50 0.9
    endloop
  endfacet
  facet normal 0 -1 0
    outer loop
      vertex -44.15 50 15.0273
      vertex -39.3 50 9.69999
      vertex -39.3 50 10.2525
    endloop
  endfacet
  facet normal 0 -1 0
    outer loop
      vertex 48.7 50 0.9
      vertex 49.6 50 19.8773
      vertex 39.9 50 10.2525
    endloop
  endfacet
  facet normal 0 -1 0
    outer loop
      vertex 39.9 50 9.69999
      vertex 39.9 50 10.2525
      vertex -39.3 50 9.69999
    endloop
  endfacet
  facet normal 0 -1 0
    outer loop
      vertex 48.7 50 0.9
      vertex 39.9 50 10.2525
      vertex 39.9 50 9.69999
    endloop
  endfacet
  facet normal 0 -1 0
    outer loop
      vertex 50 50 0.9
      vertex 49.6 50 19.8773
      vertex 48.7 50 0.9
    endloop
  endfacet
  facet normal 0 -1 0
    outer loop
      vertex 49.6 50 19.8773
      vertex 50 50 0.9
      vertex 50 50 19.8773
    endloop
  endfacet
  facet normal 0 1 0
    outer loop
      vertex 50 -50 118.877
      vertex 44.4144 -50 114.327
      vertex 49 -50 118.877
    endloop
  endfacet
  facet normal 0 1 0
    outer loop
      vertex 50 -50 118.877
      vertex 39.9 -50 109.777
      vertex 44.4144 -50 114.327
    endloop
  endfacet
  facet normal 0 1 0
    outer loop
      vertex 39.9 -50 109.777
      vertex 39.9 -50 9.1711
      vertex -39.3 -50 109.777
    endloop
  endfacet
  facet normal 0 1 -0
    outer loop
      vertex 50 -50 0.9
      vertex 39.9 -50 109.777
      vertex 50 -50 118.877
    endloop
  endfacet
  facet normal 0 1 0
    outer loop
      vertex 39.9 -50 109.777
      vertex 50 -50 0.9
      vertex 39.9 -50 9.1711
    endloop
  endfacet
  facet normal 0 1 0
    outer loop
      vertex 39.9 -50 9.1711
      vertex 50 -50 0.9
      vertex 48.107 -50 0.9
    endloop
  endfacet
  facet normal 0 1 0
    outer loop
      vertex -39.3 -50 109.777
      vertex -50 -50 118.877
      vertex -48.4 -50 118.877
    endloop
  endfacet
  facet normal 0 1 0
    outer loop
      vertex -39.3 -50 9.1711
      vertex -39.3 -50 109.777
      vertex 39.9 -50 9.1711
    endloop
  endfacet
  facet normal 0 1 0
    outer loop
      vertex -50 -50 0.9
      vertex -39.3 -50 109.777
      vertex -39.3 -50 9.1711
    endloop
  endfacet
  facet normal 0 1 0
    outer loop
      vertex -50 -50 0.9
      vertex -39.3 -50 9.1711
      vertex -47.507 -50 0.9
    endloop
  endfacet
  facet normal 0 1 0
    outer loop
      vertex -39.3 -50 109.777
      vertex -50 -50 0.9
      vertex -50 -50 118.877
    endloop
  endfacet
endsolid OpenSCAD_Model
